<svg version="1.2" xmlns="http://www.w3.org/2000/svg" viewBox="0 0 150 110" width="150" height="110">
	<title>business-svg</title>
	<style>
		.s0 { fill: #703bff } 
		.s1 { fill: #1b1b20 } 
	</style>
	<path id="Layer" fill-rule="evenodd" class="s0" d="m40.2 70.5q0.2 0 0.4 0.1 0.2 0.1 0.4 0.2 0.1 0.1 0.2 0.3 0.1 0.2 0.2 0.4c0 0.2 0 0.5 0 0.8q0 0.8-0.1 1.6v0.5l-0.1 1-0.2 1.1q0 1-0.1 2v0.9l-0.1 0.6q0 0.7-0.1 1.5 0 0.5-0.1 1 0 0.5 0 1-0.1 0.4-0.2 0.9 0 0.5-0.1 1l-0.1 0.8v0.6q-0.1 0.5-0.2 1 0 0.4-0.1 0.9 0 0.5-0.1 1 0 0.5 0 1l-0.1 0.5q0 0.5 0 0.9l-0.2 1.4-0.1 1.4q-0.1 0.8-0.2 1.6 0 0.5-0.1 0.9v0.4l-0.1 0.6q0 0.4-0.1 0.9c-0.1 0.4-0.2 0.9-0.2 1.4l-0.1 0.5v0.1q0 0.1-0.1 0.3c-0.1 0.2-0.2 0.5-0.4 0.7q-0.3 0.2-0.6 0.3-0.5 0.2-0.9 0.3h-0.4q-0.3 0.1-0.6 0.2-0.1 0-0.2 0-0.1 0.1-0.2 0.1-0.1 0-0.2 0.1-0.1 0-0.2 0-0.4 0.1-0.7 0.1-0.3 0.1-0.7 0.1-0.3 0.1-0.7 0.1-0.3 0-0.7 0-0.6 0-1.4 0l-1.3-0.1q-0.8-0.1-1.7-0.2h-0.1c-0.7-0.1-1.5-0.1-2.3-0.1q-0.2 0-0.5 0-0.3 0-0.5 0-0.3 0.1-0.5 0.1-0.3 0-0.6 0l-1.2 0.1-1.1 0.2q-0.7 0.1-1.4 0.2-0.7 0.1-1.5 0.1h-0.2q-0.3 0-0.4-0.1-0.1 0-0.2-0.1-0.1 0-0.2-0.1-0.1-0.1-0.2-0.2-0.1-0.1-0.2-0.2-0.1-0.2-0.1-0.4-0.1-0.1-0.1-0.2 0-0.1 0-0.2 0-0.1 0-0.2 0-0.1 0-0.2 0.1-0.9 0.2-1.8 0.1-0.3 0.1-0.6 0-0.4 0.1-0.7 0-0.3 0-0.6 0.1-0.4 0.1-0.7 0-0.3 0-0.6 0.1-0.3 0.1-0.6 0-0.3 0-0.7 0.1-0.3 0.1-0.6l0.2-1.8 0.1-1.7q0.1-0.5 0.1-1.1 0.1-0.5 0.1-1.1 0.1-0.5 0.1-1.1 0.1-0.6 0.1-1.1 0.1-0.7 0.2-1.5l0.1-0.9q0.1-0.8 0.1-1.6 0.1-0.8 0.1-1.6 0.1-0.8 0.1-1.6 0.1-0.9 0.1-1.7c0-0.4 0-1.1 0-1.4q0-0.3 0-0.6 0-0.2 0-0.4-0.1-0.3 0-0.5 0-0.2 0-0.5 0-0.2 0-0.4l0.1-0.3c0-0.1 0-0.6 0-0.7q0.1-0.3 0.1-0.5 0.1-0.2 0.1-0.4 0.1-0.2 0.2-0.4c0.1-0.2 0.4-0.4 0.6-0.4q0.2-0.1 0.3-0.1 0.1 0 0.3 0.1 0.1 0 0.2 0.1 0.1 0.1 0.2 0.2 0 0 0.1-0.1 0.1 0 0.1 0c0 0 0.2 0 0.3 0l1.1-0.2 0.8-0.2h0.4q1.2-0.3 2.7-0.3h1.1q0.7 0 1.4-0.1h0.4c0.6 0 1.3 0 1.9-0.1h0.4q0.5-0.1 1-0.1 0.3 0 0.5 0 0.3-0.1 0.5-0.1 0.3 0 0.5 0 0.3 0 0.5 0 0.8 0 1.6 0l0.3-0.1q0.3 0 0.6-0.1 0.3 0 0.6 0 0.3 0 0.6-0.1 0.3 0 0.6 0c0.1 0 0.7 0 0.9 0q0.4-0.1 0.8-0.1zm37.6-20h-0.3l-0.5 0.1q-0.4 0-0.7 0.1-0.5 0.1-1.2 0.2 0 0-0.1 0-0.1 0-0.1 0-0.1 0-0.2 0 0 0-0.1 0c-0.3 0-1.4 0-1.7 0q-0.4 0-0.8 0-0.5 0-0.9 0-0.5 0-0.9 0c-0.5 0-2.2 0-2.7 0q-0.3 0.1-0.5 0.1-0.3 0-0.6 0-0.3 0-0.6 0.1-0.3 0-0.6 0-0.3 0-0.6 0-0.7 0-1.5 0-0.7 0-1.3 0.1l-0.7 0.1c-0.6 0-1.4 0.1-2.1 0.2h-0.2q-0.1 0.1-0.3 0.1-0.1 0-0.3 0.1-0.2 0-0.3 0-0.2 0.1-0.3 0.1l-0.5 0.1-2.1 0.5q-0.1 0-0.2 0.1-0.1 0-0.1 0.1-0.1 0-0.2 0.1 0 0.1-0.1 0.1 0 0.1-0.1 0.2 0 0.1 0 0.2 0 0.1 0 0.2 0 0.1 0 0.2 0.1 0.3 0.3 0.5 0 0 0 0.1-0.1 0-0.1 0.1-0.1 0.1-0.1 0.1 0 0.3 0 0.5c0 0.2 0 1 0 1.2q0 0.3 0 0.6 0.1 0.3 0.1 0.6 0.1 0.2 0.1 0.5l0.2 0.9q0 1.1 0 2.1v0.6l-0.1 3q-0.1 0.8-0.1 1.5 0 0.8 0 1.5 0 0.8 0 1.6 0 0.7 0 1.5c0 0.4 0 1 0 1.4q0 0.7 0 1.3v1.2l-0.1 2.2q-0.1 3.3-0.3 6.5l-0.1 1.7-0.1 1.3q-0.1 0.6-0.1 1.2-0.1 0.6-0.1 1.3-0.1 0.6-0.2 1.2 0 0.6-0.1 1.2 0 0.3-0.1 0.6 0 0.2 0 0.5 0 0.3-0.1 0.6 0 0.2 0 0.5c-0.1 0.7-0.2 1.4-0.3 2.2q-0.2 1.5-0.4 3.2l-0.1 1.2v0.7q-0.1 0.6-0.1 1.2c0 0.5 0 1.1 0.3 1.6l0.2 0.2q0.1 0.1 0.3 0.2c0.1 0.1 0.3 0.2 0.4 0.2q0.2 0.1 0.3 0.1 0.1 0 0.3 0 0.1 0 0.3 0 0.1 0 0.2 0h0.9q0.8 0 1.5-0.1c0.2 0 1.9 0 2.2 0q0.4-0.1 0.8-0.1 0.4 0 0.7-0.1 0.4 0 0.8 0 0.4-0.1 0.8-0.1 0.4 0 0.7 0 0.4 0 0.8 0 0.4 0 0.8 0l1.2 0.1q0.9 0.1 1.8 0.1 0.5 0.1 1 0.1 0.5 0 1 0 0.6 0 1.1 0 0.5-0.1 1-0.1c0.3 0 0.6-0.1 1-0.3q0.6-0.2 0.8-0.6 0.2-0.3 0.3-0.8 0-0.1 0-0.2 0-0.1 0.1-0.2 0-0.1 0-0.2 0-0.1 0-0.2l0.1-0.6 0.1-0.5 0.2-0.6 0.1-0.5c0.1-0.4 0.2-1.4 0.3-1.8q0.2-0.5 0.2-1.1 0.1-0.6 0.2-1.2 0.1-0.6 0.1-1.2l0.1-0.7q0-0.2 0.1-0.5 0-0.2 0-0.4 0-0.2 0.1-0.5 0-0.2 0-0.4 0.1-0.5 0.2-1 0.1-0.5 0.1-1.1 0.1-0.5 0.2-1 0-0.5 0.1-1v-0.4q0.1-0.6 0.1-1.1l0.1-0.5 0.1-1.4v-0.2q0-0.3 0.1-0.6 0-0.2 0-0.5 0-0.3 0-0.6 0-0.2 0-0.5c0.1-0.7 0.1-1.5 0.2-2.2q0.1-1.7 0.3-3.2l0.1-1.2 0.3-1.9v-0.4c0.1-0.9 0.3-1.8 0.3-2.7l0.1-0.8q0.1-1.2 0.2-2.4 0.1-1.7 0.2-3.2l0.1-1.8 0.1-1.2 0.1-0.4c0-0.9 0.1-1.8 0.1-2.6l0.1-3.2 0.1-1.4v-0.8q0-0.4-0.2-0.9 0-0.1-0.1-0.2-0.1-0.1-0.2-0.1 0-0.1-0.1-0.2-0.1 0-0.3-0.1-0.1 0-0.1 0-0.1 0-0.1 0-0.1 0-0.1 0zm17.7-23.6q-0.2 0-0.3 0-0.2 0.1-0.3 0.2-0.1 0-0.2 0.2-0.1 0.1-0.1 0.2-0.1 0.1-0.1 0.2 0 0.1 0 0.2 0 0.1 0 0.1 0 0.1 0.1 0.2 0 0 0 0.1 0 0 0 0.1v0.7c-0.3 0.3-0.4 0.8-0.4 1.2l-0.1 0.7q0 0.7 0 1.4v0.1q-0.1 0.5-0.1 1.1 0 0.5 0 1 0 0.6 0 1.1 0 0.5 0.1 1.1 0 0.2 0 0.3 0 0.2 0 0.4 0 0.2 0 0.3 0 0.2 0.1 0.4c0 0.8 0 1.8 0 2.9 0 1 0 2 0 3.1q0.1 1.3 0 2.6v0.5l-0.1 1.5-0.1 4.6c-0.1 2.1-0.2 4.2-0.3 6.2l-0.3 2.7v0.6q-0.1 0.7-0.1 1.3l-0.1 0.2-0.1 1v0.5l-0.3 2.4v0.7l-0.1 0.5c-0.1 0.9-0.2 1.8-0.2 2.6l-0.1 0.8q0 0.7 0 1.4-0.1 0.7-0.1 1.5-0.1 0.7-0.1 1.4-0.1 0.7-0.1 1.4l-0.1 1.1-0.1 0.5-0.1 1.5q-0.1 1.3-0.1 2.6v0.5q0 0.5-0.1 0.9 0 0.4 0 0.9-0.1 0.4-0.1 0.8 0 0.5 0 0.9-0.1 0.6-0.1 1.1l-0.1 1.6c0 1.4 0 3.3 0 4.7q0 0.7 0.1 1.3v1.2l0.1 0.9 0.1 1.1v1q0 0.2 0.1 0.4v0.1q0 0.2 0.1 0.5 0.1 0.4 0.4 0.7 0.4 0.4 1.1 0.5l0.2 0.1q0.6 0.1 1.2 0.2h0.1q1.5 0.3 3 0.4c0.3 0 0.7 0 0.9 0q0.4 0 0.7 0 0.4 0 0.8 0 0.3 0 0.7-0.1h1.5l1.5-0.1q0.8 0 1.5-0.1l0.9-0.1 0.7-0.1h0.3l0.7-0.1c0.3 0 0.6-0.1 0.9-0.2l0.4-0.2h0.1l0.5-0.2 0.3-0.2h0.1q0.4-0.2 0.7-0.7 0.2-0.3 0.3-0.7v-0.1q0.1-0.4 0.2-0.7l0.1-0.7 0.1-0.5q0.1-0.3 0.2-0.5v-0.1q0.1-0.2 0.1-0.5l0.1-0.2q0.1-0.3 0.2-0.7 0-0.3 0.1-0.6 0.1-0.3 0.1-0.7 0.1-0.3 0.1-0.7v-0.3q0.1-0.5 0.1-1.1l0.1-0.4 0.1-0.7v-0.7l0.1-0.6 0.1-1 0.1-0.7q0-0.2 0.1-0.4 0-0.2 0-0.4 0-0.3 0-0.5 0-0.2 0.1-0.4v-0.8c0.1-0.5 0.1-1 0.2-1.6l0.2-0.9 0.2-1q0.1-0.5 0.1-0.9 0.1-0.4 0.1-0.8 0.1-0.5 0.1-0.9 0.1-0.4 0.1-0.8l0.1-1.1q0.1-1.1 0.2-2.1l0.1-0.4c0.3-1.7 0.6-3.4 0.7-5.1q0.1-0.8 0.1-1.6l0.1-1.2q0.1-1.2 0.3-2.7l0.1-0.1q0-0.1 0-0.2 0-0.1 0-0.2v-0.1c0.2-1.2 0.4-2.1 0.5-3l0.2-2 0.1-1.1 0.2-3.2c0.1-0.6 0.2-1.3 0.2-1.9l0.2-1.1q0.2-1.4 0.3-3.1 0.2-1.5 0.4-3.2l0.3-3q0.2-1.5 0.4-3l0.1-1.2v-0.8q0.1-0.6 0.1-1.3v-0.5c0.1-1.1 0.2-2.4 0.4-3.7v-0.1c0.1-0.7 0.2-1.4 0.2-2.1q0-0.3 0-0.6v-0.1q0-0.1-0.1-0.2 0-0.2-0.1-0.3 0-0.1-0.1-0.3 0-0.1-0.1-0.2c-0.2-0.5-0.6-0.8-1.1-1q-0.2 0-0.5-0.1-0.2 0-0.5-0.1-0.2 0-0.5 0-0.3 0-0.5 0h-1.1q-0.5 0-1.1-0.1l-0.4-0.1c-0.8-0.1-1.6-0.3-2.3-0.3-0.4-0.1-0.9-0.1-1.4-0.1l-1.5-0.1h-0.9q-1 0-1.9-0.1-1 0-1.9 0-1-0.1-1.9-0.1-1 0-1.9 0c-1-0.1-1.9-0.2-2.9-0.3-0.4-0.1-0.9-0.2-1.2-0.3q-0.2 0-0.3 0z"/>
	<path id="Layer" fill-rule="evenodd" class="s1" d="m34.1 67.4q0.3 0 0.6 0 0.3 0 0.7 0 0.3 0 0.6 0c1.8 0.1 3.5 0.1 5.3 0.2q0.2 0.1 0.4 0.1 0.1 0 0.3 0 0.2 0 0.4 0.1 0.2 0 0.4 0c0.5 0.1 1.1 0.2 1.6 0.3q0.1 0.1 0.2 0.1 0.1 0 0.2 0.1 0.1 0 0.2 0 0 0 0.1 0.1 0.2 0 0.3 0.1 0.3 0.1 0.4 0.2 0.1 0 0.1 0 0.1 0.1 0.1 0.1 0 0 0.1 0 0 0.1 0 0.1l0.1 0.1 0.2 0.3q0.1 0.1 0.1 0.2 0.1 0.1 0.1 0.1 0 0.1 0.1 0.2 0 0.1 0 0.2l0.1 0.6q0 0.4 0 0.9 0 0.5 0 0.9 0 0.5-0.1 0.9 0 0.5-0.1 0.9l-0.1 1.6-0.2 1.4-0.1 1.5q-0.1 0.8-0.2 1.6l-0.1 1.6-0.1 1.4q-0.2 1.5-0.4 3-0.3 1.5-0.5 3-0.2 0.7-0.2 1.3l-0.2 1.4q-0.1 1.5-0.2 2.9c-0.1 0.9-0.1 1.9-0.2 2.9l-0.1 1.3c0 0.5-0.1 1-0.1 1.6q0 0.3-0.1 0.5-0.2 0.2-0.5 0.3-0.3 0.1-0.5 0.1-0.3-0.1-0.5-0.3-0.3-0.3-0.3-0.7c0-0.7 0-1.4 0.1-2.1q0.1-0.7 0.1-1.4 0.1-0.8 0.1-1.5 0.1-1.5 0.2-3.1c0.1-0.9 0.2-1.9 0.3-2.8 0.2-1 0.4-2.1 0.6-3.1 0.2-1.4 0.4-2.8 0.5-4.2q0.2-1.5 0.3-3 0-0.4 0-0.8 0.1-0.4 0.1-0.8 0-0.3 0.1-0.7 0-0.4 0.1-0.8 0.1-0.7 0.1-1.4 0.1-0.8 0.2-1.6c0-0.9 0.1-1.8 0-2.7v-0.3c-0.8-0.3-1.5-0.4-2.3-0.6-1.8-0.2-3.6-0.2-5.4-0.3q-1.5 0-3.1 0-1.3 0-2.7 0.2l0.1-0.1q-0.4 0.1-0.9 0.1-0.4 0.1-0.9 0.1-0.4 0.1-0.8 0.1-0.5 0.1-0.9 0.2c-0.4 0-0.8 0.1-1.1 0.2q-0.2 0-0.4 0.1-0.1 0-0.3 0.1-0.2 0.1-0.3 0.1-0.2 0.1-0.4 0.2 0 0 0 0.1 0 0.1 0 0.2-0.1 0-0.1 0.1 0 0.1 0 0.1c-0.2 1.1-0.2 2.2-0.3 3.3-0.1 1-0.2 2.1-0.3 3.2l-0.3 3.2q-0.1 0.7-0.1 1.4l-0.1 1.5q0 3.1-0.2 6.2c-0.1 1.1-0.2 2.1-0.2 3.2q-0.1 1.6-0.1 3.2-0.1 1.5-0.1 3v1.5q0 0.9 0.1 1.7c0 0.2-0.1 0.5-0.3 0.7q-0.3 0.3-0.7 0.3-0.2 0-0.3-0.1-0.2-0.1-0.3-0.2-0.1-0.1-0.2-0.2-0.1-0.1-0.1-0.3l-0.1-0.3c0-0.4 0-0.9 0-1.4q-0.1-1.5 0-3.1 0-0.4 0-0.8 0-0.4 0-0.8 0-0.4 0-0.8 0.1-0.4 0.1-0.8 0-1.5 0.1-3 0.1-1.6 0.2-3.1c0.1-2.1 0.2-4.2 0.2-6.3q0.1-0.7 0.1-1.4 0.1-0.8 0.2-1.6l0.3-3q0-0.4 0.1-0.8 0-0.4 0-0.8 0.1-0.4 0.1-0.8 0-0.4 0-0.8l0.2-1.6q0-0.4 0.1-0.9 0-0.1 0.1-0.3 0.1-0.6 0.5-1c0.2-0.3 0.6-0.5 0.9-0.7l0.6-0.2q0.2-0.1 0.5-0.1 0.2-0.1 0.5-0.1 0.2-0.1 0.5-0.2 0.2 0 0.5 0 1.6-0.3 3.3-0.4 0.3-0.1 0.6-0.1 0.4 0 0.7-0.1 0.3 0 0.6 0 0.4 0 0.7 0 0.3 0 0.7-0.1zm35.5-20c-1.1 0.1-2.1 0.2-3.1 0.2-1 0.1-2 0.1-3 0.1q-0.3 0-0.6 0-0.3 0-0.6 0-0.2 0-0.5 0-0.3 0-0.6 0c-0.5 0.1-1 0.1-1.5 0.3-0.4 0.1-0.6 0.4-0.8 0.7-0.1 0.2-0.2 0.5-0.2 0.7q-0.1 0.6-0.2 1v1.6l-0.4 12.5c-0.1 4.1-0.2 8.3-0.5 12.5q-0.1 1.5-0.2 3.1l-0.1 3.3-0.1 1.6q-0.1 0.7-0.1 1.3 0 1.7 0 3.4c0 0.9 0 1.8 0 2.8q-0.1 1.5-0.2 3 0 0.4 0 0.8 0 0.3-0.1 0.7 0 0.4 0 0.7-0.1 0.4-0.1 0.8-0.1 1.5-0.2 3c-0.1 0.5 0.4 1 0.9 1 0.6 0 1-0.4 1-0.9q0.1-1.6 0.3-3.2 0.1-1.6 0.2-3.1 0.1-1.6 0.1-3.2v-3.3q0-1.5 0.1-3.1l0.2-3.1 0.1-3.2c0.1-1 0.1-2.1 0.2-3.1 0.3-4.2 0.4-8.4 0.5-12.6l0.4-12.5q0-0.2 0-0.3 0-0.2 0-0.4 0-0.2 0-0.4 0.1-0.2 0.1-0.4h0.2c0.7-0.1 1.3-0.1 2 0h0.9q1.5 0 3-0.1 1.6-0.1 3.3-0.2 1.5-0.1 3 0 1.3 0 2.6 0c0.9 0.1 1.8 0.1 2.7 0.1 0.8 0.1 1.7 0.2 2.5 0.3l1.2 0.1q0.5 0.1 1.1 0.1v0.3q0.1 0.8 0 1.6-0.1 0.8-0.2 1.5 0 0.4 0 0.8-0.1 0.4-0.1 0.8-0.1 0.4-0.1 0.8 0 0.4-0.1 0.8-0.1 1.6-0.2 3.2-0.2 1.5-0.3 3-0.2 3.2-0.5 6.3-0.2 1.5-0.3 3-0.2 1.6-0.2 3.1-0.1 1.8-0.2 3.6 0 0.5 0 0.9 0 0.4-0.1 0.8 0 0.5-0.1 0.9 0 0.4-0.1 0.8l-0.2 1.3q-0.1 0.9-0.3 1.7c-0.1 1-0.2 2-0.3 3.1-0.2 2-0.3 4.1-0.3 6.1l-0.2 4.9q0 0.9 0 1.8c-0.1 0.6 0.4 1 0.9 1q0.2 0 0.4 0 0.1-0.1 0.3-0.2 0.1-0.2 0.2-0.3 0.1-0.2 0.1-0.4c0.1-1.1 0.1-2.2 0.1-3.3l0.1-3.1c0.1-2.1 0.2-4.1 0.3-6.1q0.1-1 0.2-1.9 0.1-0.9 0.2-1.8c0.2-1 0.4-2 0.5-3q0.2-1.6 0.3-3.1 0-3.1 0.3-6.3l0.1-1.4 0.2-1.7 0.2-3 0.3-3 0.1-1.6q0.1-0.8 0.2-1.5l0.1-1.5 0.1-1.6q0.2-1.6 0.3-3.2c0.1-1 0.3-2 0.3-3.1v-0.4q0-0.5-0.1-1-0.1-0.3-0.2-0.5v-0.2l-0.3-0.3q0-0.1-0.1-0.1-0.1-0.1-0.1-0.1-0.1-0.1-0.2-0.1-0.1 0-0.1-0.1c-0.3-0.1-0.5-0.1-0.7-0.1q-0.4-0.1-0.7-0.1h-0.8c-1-0.1-2-0.3-3-0.4-1-0.1-2-0.1-3.1-0.1q-1.9-0.1-3.9-0.1-1.1 0-2.2 0zm29-42.4l-0.2 0.1q-0.2 0.2-0.4 0.4-0.1 0.2-0.1 0.5 0 0.2 0.1 0.4 0.1 0.3 0.3 0.4 0.2 0.1 0.5 0.2l0.6 0.1 0.7 0.3q0.8 0.2 1.7 0.3l1.8 0.3-0.1 0.1c-0.3 0.2-0.6 0.5-0.9 0.8q-0.4 0.4-0.8 0.7-0.9 0.6-1.7 1.2-0.7 0.5-1.5 1.1l-1.6 1.1q-0.4 0.3-0.8 0.7l-0.8 0.7q-0.7 0.7-1.4 1.3l-0.8 0.7-0.7 0.5q-0.5 0.4-1.1 0.7-0.6 0.4-1.2 0.7-0.7 0.5-1.3 1-0.6 0.5-1.1 1-1.1 1-2.1 2-0.3 0.2-0.6 0.5-0.3 0.2-0.5 0.5-0.3 0.2-0.6 0.5-0.3 0.3-0.5 0.5c-0.9 0.8-1.7 1.7-2.5 2.5q-1.3 1.2-2.6 2.3-0.2 0.1-0.3 0.2-0.1 0-0.3 0.1-0.1 0.1-0.2 0.2-0.2 0.1-0.3 0.1-0.6 0.3-1.2 0.6-1.4 0.7-2.6 1.5l-1.2 0.8q-0.7 0.4-1.3 0.8-1.3 0.6-2.7 1.2c-1.9 0.9-3.8 1.9-5.7 2.7l-2.8 1.2-3 1.2c-1.9 0.8-3.8 1.6-5.6 2.6q-1.5 0.7-2.9 1.6-1.3 0.8-2.5 1.7-0.3 0.2-0.6 0.4-0.3 0.2-0.6 0.3-0.3 0.2-0.6 0.4-0.3 0.2-0.6 0.4c-0.7 0.4-1.5 0.8-2.2 1.2q-1.2 0.6-2.4 1.3l-1.1 0.6q-0.6 0.2-1.1 0.4c-0.9 0.4-1.8 0.7-2.6 1q-0.6 0.3-1.2 0.7l-1.2 0.7c-0.4 0.2-0.8 0.5-1.2 0.7q-0.6 0.3-1.2 0.5-1.3 0.5-2.5 1l-2.4 0.9q-1.7 0.7-3.5 1.3-1 0.3-1.9 0.7l-1.6 0.6q-0.6 0.2-1.1 0.4-0.7 0.2-1.5 0.3-0.1 0.1-0.3 0.2-0.2 0.1-0.3 0.3-0.1 0.1-0.1 0.3 0 0.2 0 0.4c0.2 0.5 0.7 0.8 1.2 0.7 0.8-0.2 1.6-0.3 2.4-0.6l1.3-0.5 1.1-0.5c1-0.4 2-0.7 3-1l1.5-0.6 1.6-0.6q1.3-0.5 2.5-1 1.2-0.4 2.4-1c0.8-0.3 1.5-0.8 2.2-1.2q0.3-0.2 0.6-0.4 0.2-0.1 0.5-0.3 0.3-0.1 0.6-0.2 0.3-0.2 0.6-0.3c0.9-0.3 1.9-0.6 2.8-1.1 0.4-0.2 0.9-0.4 1.3-0.7l1.4-0.7 1.3-0.7q0.7-0.3 1.3-0.7 0.7-0.4 1.3-0.7l1.4-0.9q1.4-1 2.7-1.8 1.3-0.8 2.6-1.5 1.4-0.8 2.8-1.4 1.5-0.7 3-1.3 2.9-1.2 5.8-2.4 1.4-0.6 2.8-1.3l2.8-1.4q1.4-0.6 2.7-1.2c0.9-0.4 1.7-1 2.5-1.5 0.9-0.5 1.7-1.1 2.6-1.5 0.4-0.3 0.9-0.4 1.3-0.7q0.6-0.3 1.2-0.7c1.7-1.1 3.1-2.6 4.6-4q1.1-1.1 2.2-2.2 0.5-0.5 1.1-1 0.3-0.3 0.6-0.5 0.3-0.3 0.6-0.6 0.3-0.2 0.5-0.5 0.3-0.3 0.6-0.6 0.6-0.5 1.2-1c0.7-0.5 1.4-0.8 2-1.2q0.7-0.4 1.3-0.9 0.5-0.3 1-0.7l0.9-0.9 0.9-0.8 1-0.9q0.5-0.5 1-0.8l1.8-1.3 1.3-1 1.3-0.9c0.4-0.3 0.7-0.5 1-0.9l0.5-0.4 0.6-0.5 0.8-0.7 0.1-0.1c0.3-0.1 0.5-0.2 0.7-0.5 0.1-0.2 0.2-0.5 0.1-0.8 0-0.2-0.3-0.5-0.5-0.6-0.1-0.1-0.3-0.1-0.4-0.2q-0.2 0-0.3-0.1-0.2 0-0.3 0-0.1 0-0.3-0.1-0.1 0-0.3 0-0.2 0-0.5-0.1-0.3 0-0.6 0-0.3-0.1-0.5-0.1-0.3 0-0.6-0.1-0.9-0.1-1.7-0.4l-0.9-0.2-0.5-0.2c-0.1 0-0.3-0.1-0.5-0.1q-0.1 0-0.1 0 0 0-0.1 0-0.1 0-0.1 0zm0.4 16.9q-0.1 0.1-0.2 0.2-0.1 0.1-0.1 0.2-0.1 0.2-0.2 0.3 0 0.1 0 0.1-0.1 0.1-0.1 0.2 0 0.1 0 0.2-0.1 0-0.1 0.1-0.1 0.4-0.2 0.8 0 0.4-0.1 0.8-0.1 0.4-0.1 0.8-0.1 0.4-0.1 0.8-0.1 0.4-0.1 0.8-0.1 0.4-0.1 0.8 0 0.3-0.1 0.7 0 0.4 0 0.8l-0.1 1.5-0.1 1.6q-0.1 1.5-0.2 3.1-0.1 0.7-0.1 1.5l-0.1 1.6q-0.3 3.1-0.5 6.3-0.2 1.5-0.3 3l-0.2 3.2q0 0.4 0 0.8 0 0.4-0.1 0.8 0 0.4 0 0.8 0 0.4 0 0.8-0.1 1.6-0.1 3.1c0 1 0 5.3 0 6.3q-0.1 3.2-0.2 6.4-0.2 6.5-0.4 13.1c-0.1 2-0.2 4.1-0.4 6.1l-0.6 6.6-0.1 1.5-0.1 0.7v0.8q-0.1 1.8-0.1 3.6c0 0.5 0.4 0.9 1 1 0.5 0 1-0.4 1-1q0-1.7 0-3.5 0.1-0.7 0.1-1.5l0.2-1.5 0.6-6.5q0.2-3 0.3-6l0.2-6.6c0.2-4.3 0.3-8.6 0.4-12.9q0-1.7 0-3.3 0-0.8 0-1.5 0-0.8 0.1-1.6 0-0.8 0-1.6 0-0.8 0-1.6 0.1-1.5 0.2-2.9l0.2-3.3c0-1 0.1-2 0.2-3q0.1-1.6 0.2-3.2c0.1-1.1 0.2-2.1 0.3-3.1q0.1-1.6 0.2-3.2 0.2-1.5 0.3-3 0.1-1.6 0.1-3.2 0.1-0.6 0.1-1.2 0.1-0.6 0.1-1.2 0.1-0.6 0.2-1.2 0-0.6 0.1-1.2 0.1-0.5 0.2-1 0.4 0.2 0.7 0.4c0.6 0.3 1.3 0.5 2 0.7 1 0.2 2 0.4 3.1 0.6q1.5 0.3 3.1 0.7 1.5 0.4 3.1 0.6 1.7 0.3 3.5 0.6 0.9 0.1 1.8 0.4 0.9 0.2 1.7 0.6 0.9 0.3 1.8 0.5c0.6 0.2 1.3 0.3 1.9 0.5l0.1 0.1q0.1 0.3 0.1 0.6c0.1 0.9 0 1.9-0.2 2.8q-0.2 1.6-0.5 3.2l-0.2 1.5q-0.1 0.7-0.2 1.5-0.2 1.5-0.4 3 0 0.4-0.1 0.7l-0.4 2.6q-0.3 1.5-0.5 3l-0.6 3.4 0.1-0.3-0.3 1.8q-0.2 0.8-0.3 1.5-0.2 0.8-0.3 1.5-0.2 0.8-0.3 1.6-0.2 0.7-0.4 1.5-0.3 1.5-0.6 2.9c-0.2 1.1-0.3 2.2-0.4 3.3-0.2 1.7-0.4 3.5-0.6 5.2-0.2 1-0.4 1.9-0.6 2.9q-0.1 0.4-0.2 0.8 0 0.4-0.1 0.8 0 0.4-0.1 0.9 0 0.4-0.1 0.8c-0.1 1-0.1 2-0.2 3.1q-0.1 1.5-0.3 3c-0.1 0.9-0.1 1.9-0.2 2.9q-0.1 1.5-0.3 3c0 1-0.1 1.9-0.2 2.9q-0.1 1.5-0.2 3c0 1.1-0.2 2.2-0.2 3.3q-0.1 0.8-0.1 1.6c-0.1 0.6-0.2 1.2-0.2 1.9 0 0.5 0.4 1 0.9 1 0.6 0 1-0.4 1-1 0-0.5 0.1-1 0.2-1.6q0.1-0.7 0.1-1.4c0-1 0.1-1.9 0.2-2.8 0.1-0.5 0.1-1.1 0.1-1.6q0-0.5 0.1-1.1 0-0.5 0-1.1 0.1-0.6 0.1-1.1 0.1-0.6 0.1-1.1 0.1-0.8 0.1-1.5l0.2-1.4c0.1-1 0.1-2 0.2-3.1 0.1-0.9 0.2-1.9 0.3-2.9q0.1-0.8 0.1-1.6l0.1-1.6q0.1-1.4 0.3-2.9c0.2-0.9 0.4-1.9 0.6-2.8q0.2-0.9 0.3-1.7 0.1-0.7 0.2-1.5c0.2-2 0.4-4.1 0.7-6.1 0.3-1.7 0.7-3.4 1.1-5.1q0.2-1.2 0.5-2.4 0.2-1.4 0.4-2.7v0.1l0.2-1.3q0.5-2.5 0.8-4.9c0.4-2.1 0.8-4.3 1.1-6.4q0.1-1.5 0.4-3l0.5-3.1 0.2-1.6q0.1-0.7 0.1-1.5 0-0.2 0-0.5 0-0.2-0.1-0.4 0-0.2 0-0.5 0-0.2-0.1-0.4 0-0.2-0.1-0.4-0.1-0.2-0.2-0.3-0.1-0.2-0.2-0.3-0.2-0.2-0.3-0.3-0.2-0.1-0.5-0.2c-0.3-0.2-0.7-0.2-1-0.3q-0.3-0.1-0.7-0.2-0.4-0.1-0.7-0.2-0.4-0.1-0.7-0.2-0.3-0.1-0.7-0.2l-1.3-0.5q-0.2 0-0.4-0.1-0.2 0-0.4-0.1-0.1 0-0.3-0.1-0.2 0-0.4-0.1-1.3-0.2-2.6-0.4-0.5-0.1-1.1-0.1-0.6-0.1-1.2-0.2-0.6-0.1-1.1-0.3-0.6-0.1-1.2-0.2l-1.3-0.3q-0.6-0.2-1.2-0.3-1.3-0.3-2.7-0.5-0.3-0.1-0.6-0.2-0.3 0-0.7-0.1-0.3-0.1-0.6-0.2-0.3-0.1-0.6-0.2c-0.5-0.2-0.9-0.5-1.3-0.8q-0.1-0.1-0.2-0.1-0.1-0.1-0.2-0.1-0.1 0-0.3-0.1-0.1 0-0.2 0c-0.2 0-0.4 0.1-0.5 0.1q-0.2 0.1-0.3 0.2zm-54.2 48.4l0.1 0.1zm15.7-20.5zm22.9 0.3zm-38.7 20.1l0.1 0.1zm35.9 11.8v0.1z"/>
	<path id="Layer" fill-rule="evenodd" class="s1" d="m105.9 6.8q0.3 0 0.6 0.1 0.3 0.1 0.4 0.3 0.2 0.3 0.2 0.6-0.2 1.1-0.3 2.3 0 0.6 0 1.1 0 0.6-0.1 1.1 0 0.6 0 1.1 0 0.6 0 1.2-0.1 0.5-0.1 1 0 0.2 0 0.3 0 0.2-0.1 0.3-0.1 0.1-0.1 0.2-0.1 0.1-0.2 0.1-0.1 0.1-0.2 0.1-0.1 0.1-0.2 0.1c-0.3 0.1-0.7 0-0.9-0.3-0.2-0.1-0.2-0.3-0.3-0.5-0.1-0.2 0-0.5 0.1-0.7v-1.5q0.1-0.5 0.1-1 0-0.5 0-1 0-0.4 0.1-0.9 0-0.5 0-1 0.1-1.1 0.2-2.1c0.1-0.2 0.1-0.5 0.3-0.7q0.3-0.2 0.5-0.2zm-77 69.7c0 0.5 0.4 1 0.9 1 0.6 0 1-0.4 1-0.9q0-0.2 0-0.4-0.1-0.2-0.2-0.3-0.2-0.2-0.3-0.2-0.2-0.1-0.4-0.1c-0.6 0-1 0.4-1 0.9zm6.4-1.2c0 0.6 0.4 1 1 1 0.5 0 0.9-0.4 1-0.9q0-0.2-0.1-0.4-0.1-0.2-0.2-0.3-0.1-0.1-0.3-0.2-0.2-0.1-0.4-0.1c-0.5 0-1 0.4-1 0.9zm-5.6 7.1c-0.5 0-1 0.4-1 1 0 0.5 0.4 1 1 1h1.6c0.5 0 0.9 0 1.3-0.1q0.4-0.1 0.6-0.5 0.2-0.3 0.2-0.7-0.1-0.2-0.2-0.3-0.1-0.1-0.2-0.3-0.1-0.1-0.3-0.1-0.1-0.1-0.3-0.1-0.1 0-0.1 0 0 0-0.1 0.1zm37.1-25.2c0 0.5 0.5 1 1 1 0.5 0 1-0.4 1-0.9q0-0.2-0.1-0.4 0-0.2-0.2-0.3-0.1-0.2-0.3-0.3-0.2 0-0.3 0c-0.6 0-1 0.4-1 0.9zm4.3-0.6c-0.1 0.5 0.4 1 0.9 1 0.5 0 1-0.4 1-1q0-0.2-0.1-0.3 0-0.2-0.2-0.4-0.1-0.1-0.3-0.2-0.1-0.1-0.3-0.1c-0.6 0-1 0.4-1 1zm-6.3 4.8c-0.5 0.3-0.7 0.9-0.4 1.4l0.5 0.8c0.2 0.4 0.5 0.9 0.9 1.1 0.3 0.3 0.7 0.4 1 0.5q0.4 0.2 0.9 0.3 0.3 0.1 0.6 0.1 0.4 0.1 0.8 0 0.1 0 0.2 0 0.1 0 0.3-0.1 0.1 0 0.2 0 0.1 0 0.2-0.1 0.5 0 1-0.2c0.3-0.1 0.6-0.2 0.9-0.4q0.1-0.1 0.3-0.2 0.1-0.2 0.1-0.4 0.1-0.2 0.1-0.4 0-0.2-0.1-0.3c-0.3-0.5-0.9-0.7-1.4-0.4q-0.2 0.1-0.4 0.2c-0.6 0.2-1.2 0.3-1.8 0.4q-0.2 0-0.4 0-0.2-0.1-0.4-0.1-0.1-0.1-0.3-0.1-0.2-0.1-0.4-0.2-0.1-0.1-0.3-0.2-0.1 0-0.1 0 0-0.1 0-0.1-0.4-0.6-0.7-1.2c-0.2-0.3-0.5-0.5-0.9-0.5q-0.2 0-0.4 0.1zm40.9-27.9c0 0.5 0.4 1 1 1 0.5 0 1-0.4 1-1q0-0.2-0.1-0.3-0.1-0.2-0.2-0.4-0.1-0.1-0.3-0.2-0.2-0.1-0.4-0.1c-0.5 0-1 0.4-1 1zm7.1-0.4c-0.1 0.5 0.4 1 0.9 1 0.5 0 1-0.4 1-1q0-0.2-0.1-0.3 0-0.2-0.2-0.4-0.1-0.1-0.3-0.2-0.1-0.1-0.3-0.1c-0.6 0-1 0.4-1 1zm2.4 4.8q-0.1 0-0.1 0-0.1 0-0.1 0 0 0-0.1 0l-0.3 0.2c-0.3 0.1-0.6 0.2-0.9 0.4q-0.4 0.3-0.8 0.5-0.3 0.2-0.5 0.3-0.3 0.1-0.5 0.2-0.3 0.1-0.5 0.1-0.3 0.1-0.6 0.1-0.5 0-1 0-0.5 0-1 0-0.5 0-1-0.1-0.6 0-1.1-0.1-0.8-0.2-1.6-0.4l-0.2-0.1q0-0.1 0-0.2-0.1-0.1-0.1-0.1-0.1-0.1-0.1-0.2-0.1 0-0.2-0.1-0.1-0.1-0.3-0.1-0.1-0.1-0.3 0-0.1 0-0.2 0-0.2 0.1-0.3 0.2c-0.5-0.2-1.1 0.1-1.2 0.6q-0.1 0.1-0.1 0.3 0 0.1 0 0.2 0.1 0.1 0.1 0.3 0.1 0.1 0.2 0.2-0.1 0.1-0.1 0.2-0.1 0.2-0.1 0.3 0 0.1-0.1 0.3 0 0.1 0 0.3 0 0.7 0.1 1.4 0.1 0.7 0.2 1.4c0.1 0.4 0.3 0.9 0.5 1.3 0.5 0.9 1.4 1.5 2.4 1.9q0.8 0.3 1.5 0.3c0.5 0.1 1 0.1 1.5 0.1q0.2 0 0.4 0 0.2 0 0.4-0.1 0.2 0 0.4 0 0.2-0.1 0.4-0.1c0.4-0.1 0.9-0.3 1.4-0.5q0.7-0.3 1.4-0.8c0.4-0.3 0.7-0.7 1-1.1 0.7-0.8 1.1-1.8 1.5-2.8l0.6-1.4c0.2-0.4 0.4-0.9 0.5-1.4 0-0.2 0.1-0.5 0-0.7q0-0.1-0.1-0.2 0-0.1-0.1-0.2 0-0.1-0.1-0.1-0.1-0.1-0.2-0.2 0 0-0.1 0-0.1-0.1-0.2-0.1 0 0-0.1 0-0.1 0-0.2 0zm-11 2.9q0.7 0.2 1.3 0.4c1.1 0.3 2.2 0.4 3.3 0.5 1 0 2.1 0 3.1-0.2q0.4-0.1 0.7-0.2 0.1-0.1 0.3-0.1 0.1-0.1 0.2-0.1 0.2-0.1 0.3-0.1 0.1-0.1 0.2-0.2c-0.2 0.6-0.4 1.2-0.6 1.7q-0.4 0.7-0.9 1.4-0.4 0.4-0.8 0.8-0.3 0.2-0.6 0.4-0.3 0.1-0.6 0.2-0.4 0.2-0.7 0.2-0.3 0.1-0.7 0.1-0.6 0.1-1.2 0-0.5 0-1.1-0.1 0 0-0.1 0-0.1 0-0.2 0-0.1-0.1-0.1-0.1-0.1 0-0.2-0.1-0.1 0-0.2-0.1-0.1 0-0.1-0.1-0.1 0-0.2-0.1-0.1 0-0.2-0.1 0 0-0.1-0.1 0 0-0.1-0.1 0-0.1-0.1-0.1 0-0.1-0.1-0.1 0-0.1-0.1-0.2 0 0 0-0.1-0.1-0.1-0.1-0.1 0-0.1-0.1-0.2 0-0.1 0-0.2-0.1 0-0.1-0.1 0-0.1 0-0.2 0-0.1-0.1-0.2 0-0.3-0.1-0.7-0.1-0.7 0-1.4v-0.2zm-82.6 61c0 0.5 0.4 1 1 1 0.5 0 1 0.1 1.5 0.1q0.8 0.1 1.6 0.2 1.5 0.1 3 0.1c1 0.1 2.1 0 3.1 0q1.6 0 3.1 0 3.1 0.1 6.3 0.2c0.5 0 2.4 0 2.9 0 1 0 1.9-0.1 2.9-0.2q0.8 0 1.6 0 0.8 0 1.6 0 0.8 0 1.6 0 0.8 0 1.6 0c1 0 2 0.1 3 0.2q1.6 0.1 3.1 0.1 1.6 0.1 3.2 0.2c1 0 2-0.1 3-0.1 2.1 0 4.2 0.1 6.3 0.1 1 0.1 2.1 0 3.2 0q1.5 0 3 0.1 1.7 0 3.3 0 1.5 0 3 0 3.2 0 6.4 0.1l3.1 0.1q0.8 0.1 1.6 0.1l1.5 0.1q2.9 0.2 5.9 0.3c1 0 2 0 3-0.1q0.6 0 1.2 0.1 0.6 0 1.2 0 0.6 0 1.2 0 0.6 0 1.2 0 1 0.1 1.9 0 0.4 0 0.7 0 0.4 0 0.7 0 0.3 0 0.7 0 0.3 0 0.7 0 0.5 0.1 1.1 0.1c0.5 0.1 1-0.4 1-0.9q0-0.1 0-0.2-0.1-0.1-0.1-0.2 0-0.1-0.1-0.2 0-0.1-0.1-0.1-0.3-0.3-0.7-0.3-0.8-0.1-1.6-0.2-0.7 0-1.4 0-0.8 0.1-1.5 0.1c-0.5 0-1 0-1.4 0-2-0.1-4-0.1-6-0.1-0.5 0-0.9 0.1-1.4 0q-1 0-1.9 0-0.9-0.1-1.9-0.1-0.9-0.1-1.9-0.1-0.9-0.1-1.8-0.1-1.5-0.1-3.1-0.2c-2.1 0-4.2-0.1-6.3-0.1q-0.4 0-0.8 0-0.4 0-0.8-0.1-0.4 0-0.8 0-0.4 0-0.8 0-0.8 0-1.6 0.1h-1.5q-3.2-0.1-6.3-0.1-0.7 0-1.5 0h-1.6q-0.8-0.1-1.6-0.1-0.8 0-1.5 0-0.8 0-1.6 0-0.8 0-1.6 0-0.7 0-1.5 0-0.7 0-1.4 0-3.2-0.1-6.4-0.4-0.8 0-1.6 0-0.8-0.1-1.5-0.1-0.8 0-1.6 0-0.8 0-1.6 0-1.5 0-3 0.2-1.5 0.1-3 0.1h-1.5l-1.4-0.1-3.1-0.1q-1.6 0-3.2 0-1.6-0.1-3.2 0-0.7 0-1.4 0-0.8 0-1.5-0.1-0.7 0-1.4-0.1-0.8 0-1.5-0.1-0.5 0-0.9-0.1c-0.1 0-1.4 0-1.5 0q-0.2 0.1-0.3 0.3-0.1 0.1-0.2 0.3-0.1 0.1-0.1 0.3zm10.3-19.4h-0.1z"/>
</svg>