<svg version="1.2" xmlns="http://www.w3.org/2000/svg" viewBox="0 0 150 110" width="150" height="110">
	<title>enterprise-svg</title>
	<defs>
		<clipPath clipPathUnits="userSpaceOnUse" id="cp1">
			<path d="m0 0h150v110h-150z"/>
		</clipPath>
		<clipPath clipPathUnits="userSpaceOnUse" id="cp2">
			<path d="m90.78 5h22.1v27.4h-22.1z"/>
		</clipPath>
	</defs>
	<style>
		.s0 { fill: #703bff } 
		.s1 { fill: #1b1b20 } 
	</style>
	<g id="Clip-Path: Clip-Path" clip-path="url(#cp1)">
		<g id="Clip-Path">
			<g id="Layer">
				<path id="Layer" fill-rule="evenodd" class="s0" d="m65.5 24.6q0.1 0 0.1 0 0.1 0 0.1 0 0 0 0.1 0h0.4q0.1 0 0.3 0.1 0.2 0 0.4 0 0.2 0 0.4 0 0.2 0.1 0.4 0.1 0.1 0 0.1 0 0.1 0 0.2 0 0.1 0 0.1 0 0.1 0 0.2 0h0.3 0.4q0.2 0.1 0.3 0.1 0.1 0 0.3 0 0.1 0 0.2 0 0.2 0 0.3 0l0.3 0.1q0.1 0 0.2 0 0.2 0 0.3 0 0.1 0 0.2 0 0.1 0.1 0.2 0.1h1.3q0.2 0.1 0.4 0.1 0.3 0 0.5 0 0.3 0.1 0.5 0.1 0.3 0 0.5 0h0.5q0.6 0 1.2 0 0.6 0 1.2 0 0.6 0 1.2 0.1 0.5 0 1.1 0l1.2 0.1 1.3 0.1c0.8 0.1 1.5 0.1 2.2 0.1q0.3 0 0.7 0 0.3 0 0.6 0 0.4 0 0.7 0 0.4 0 0.7 0 1.2-0.1 2.4-0.1c0.4-0.1 0.7-0.1 1.1-0.1h0.1q0.2 0 0.4 0 0.2 0 0.4 0 0.3 0 0.5 0 0.2 0.1 0.4 0.1 0.1 0 0.3 0 0.1 0 0.2 0 0.1 0.1 0.2 0.1 0.1 0.1 0.2 0.1 0.2 0.1 0.2 0.1 0.1 0.1 0.2 0.2 0.1 0 0.2 0.1 0 0.1 0.1 0.2 0 0.1 0 0.1 0.1 0.1 0.1 0.2 0 0 0 0.1 0.1 0 0.1 0.1 0.1 0.5 0.1 0.9 0 0.3-0.1 0.6v0.1l-0.1 0.6v0.1l-0.2 0.9-0.2 2v0.6l-0.1 0.8q0 0.2 0 0.4 0 0.2-0.1 0.4 0 0.2 0 0.4 0 0.2 0 0.4l-0.1 0.4q-0.1 1-0.2 2 0 0.2 0 0.3 0 0.2 0 0.3 0 0.2-0.1 0.3 0 0.2 0 0.3v0.6l-0.1 0.6q0 0.5 0 0.9v6.5 0.7q0 2.1 0 4.2 0 1.2-0.1 2.5l-0.1 1.1q-0.1 0.7-0.1 1.4l-0.1 1.1v1.4l-0.1 0.8q0 0.9 0 1.7 0 0.9 0 1.7 0 0.9-0.1 1.7 0 0.9-0.1 1.7l-0.1 1.6q0 0.3 0 0.6 0 0.3 0 0.6 0 0.3 0 0.6-0.1 0.3-0.1 0.6l-0.1 0.9v1.1l-0.1 1.4v0.7q-0.1 0.9-0.1 1.9l-0.1 2.7q-0.1 1-0.1 2v1.7q0.1 1.1 0.1 2.3 0 1.1-0.1 2.2 0 1.1-0.1 2.2-0.1 1.1-0.2 2.2v0.1q-0.1 1.1-0.2 2.3l-0.1 0.9-0.2 1.7q-0.1 0.8-0.1 1.6l-0.1 0.8q0 0.1 0 0.2 0 0.1 0 0.2 0 0.1 0 0.2 0 0.1-0.1 0.3v0.1q0 0.2 0 0.5-0.1 0.2-0.2 0.4-0.1 0.2-0.3 0.4-0.1 0.2-0.3 0.3-0.3 0.2-0.6 0.3-0.2 0-0.4 0-2.6 0-4.8 0.2-0.5 0-1 0-0.5 0.1-1.1 0.1-0.5 0.1-1 0.1-0.5 0.1-1 0.1l-0.7 0.1c-0.8 0.1-1.6 0.1-2.6 0.1q-0.4 0.1-0.9 0.1-0.4 0-0.8 0-0.5 0.1-0.9 0.1-0.5 0-0.9 0.1l-1.5 0.1q-0.3 0-0.5 0-0.3 0-0.6 0-0.2 0-0.5 0-0.2 0-0.5 0h-0.4q-0.4 0-0.9 0-0.5 0-1 0-0.4-0.1-0.9-0.1-0.5 0-1-0.1c-0.4 0-0.9 0-1.3-0.1q-0.6-0.2-1.2-0.4-0.6-0.2-1.2-0.5c-0.4-0.2-0.8-0.4-1-0.9q-0.1-0.1-0.1-0.3v-0.1-0.1-0.3-0.4l0.1-0.5q0.1-0.3 0.1-0.7 0-0.3 0.1-0.7 0-0.3 0-0.7 0.1-0.3 0.1-0.7 0-0.2 0-0.5 0.1-0.2 0.1-0.5 0-0.2 0-0.5 0-0.3 0-0.5v-0.7-0.4l0.1-1.3q0-0.3 0.1-0.6 0-0.3 0-0.6 0-0.3 0-0.6 0.1-0.3 0.1-0.6v-0.3q0-0.6 0-1.1 0-0.6 0-1.1 0.1-0.6 0.1-1.2 0-0.5 0.1-1.1l0.1-1.1 0.1-1.4q0.1-1 0.2-2v-0.4l0.1-1.2v-0.7-0.5q0-0.4 0-0.9 0.1-0.4 0.1-0.8 0-0.4 0.1-0.8 0-0.5 0.1-0.9v-0.3l0.1-1 0.1-0.1 0.1-1.9 0.1-0.8q0-0.3 0.1-0.6 0-0.3 0-0.5 0.1-0.3 0.1-0.6 0-0.3 0.1-0.6 0.1-0.7 0.1-1.3 0.1-0.6 0.2-1.3 0-0.6 0.1-1.2 0-0.7 0.1-1.3l0.1-1 0.1-1.5v-0.4q0-0.3 0-0.5 0.1-0.3 0.1-0.6 0-0.2 0-0.5 0-0.3 0-0.5l0.1-2.6v-1q0.1-0.7 0.1-1.4 0-1 0-2v-0.6q0-0.6 0-1.2 0-0.6 0-1.3 0-0.6 0.1-1.2 0-0.6 0-1.3c0-0.7 0-1.5 0.1-2.4 0.1-0.8 0.1-1.6 0.1-2.6 0.1-0.7 0.1-1.6 0.2-2.4l0.1-1.4 0.1-1q0.2-1.3 0.2-2.5v-7.7q0 0 0-0.1 0 0 0-0.1 0.1 0 0.1 0-0.1-0.2-0.1-0.4 0-0.1 0-0.2 0-0.1 0-0.1 0-0.1 0.1-0.2 0 0 0.1-0.1 0 0 0.1-0.1 0.1 0 0.1 0 0.1-0.1 0.2-0.1 0.1 0 0.2 0z"/>
				<path id="Layer" fill-rule="evenodd" class="s1" d="m64.5 18.9h0.4q0.1-0.1 0.2 0 0.2 0 0.3 0 0.1 0 0.2 0 0.1 0 0.2 0 0.4 0 0.9 0.1 0.5 0 0.9 0 0.5 0 1 0 0.4 0 0.9 0h2.3 1.2q0.2 0 0.3 0.1 0.2 0 0.4 0 0.1 0 0.3 0 0.2 0.1 0.3 0.1l1.3 0.3q0.1 0 0.2 0 0.1 0.1 0.2 0.1 0.1 0 0.3 0 0.1 0.1 0.2 0.1 0.3 0 0.7 0l0.7 0.1q0.5 0.1 0.9 0.1l0.6 0.1 0.6 0.1q0.8 0 1.6 0.1h0.7q0.5 0 0.9 0c0.5 0 1 0.1 1.6 0.1l0.6 0.1q0.4 0 0.8 0l0.5-0.1q0.1 0 0.2-0.1 0 0 0.1 0 0.1 0 0.2 0 0.1 0 0.2 0 0.1 0 0.1 0 0.1 0 0.2 0 0.1 0 0.1 0 0.1 0.1 0.2 0.1 0.1 0.1 0.2 0.3 0.1 0.2 0.1 0.5 0 0.2-0.2 0.4-0.1 0.2-0.3 0.2-0.4 0.1-0.8 0.1l-0.3 0.1q-0.4 0-0.8 0h-0.8q-0.9 0-1.8-0.1c-0.6-0.1-1.2-0.1-1.8-0.1q-1 0-2.1-0.2-0.5 0-1 0-0.6-0.1-1.1-0.2l-0.9-0.1q-0.5 0-1-0.1-0.5-0.2-1-0.3-0.2 0-0.3-0.1-0.2 0-0.4 0-0.2-0.1-0.4-0.1-0.2 0-0.4 0h-1.7q-2 0-3.9 0c-0.8-0.1-1.6-0.2-2.4-0.2-0.8 0-1.6 0-2.4 0.1q-0.1 0-0.2 0.1-0.1 0-0.2 0-0.1 0-0.1 0.1-0.1 0-0.2 0l-0.4 0.2q-0.1 0.5-0.2 1 0 0.4 0 0.7l-0.1 0.8q-0.1 0.2-0.1 0.5 0 0.3 0 0.6 0 0.6-0.1 1.3c-0.1 0.8-0.1 1.5-0.2 2.3q0 0.6-0.1 1.3v1.2l-0.1 1.3q-0.1 0.6-0.1 1.2v2.5q-0.1 0.6-0.1 1.2 0 0.7 0 1.3 0 1.4-0.1 2.7l-0.1 2.6c-0.1 0.9-0.1 1.8-0.2 2.7l-0.1 1.3-0.1 1.4-0.2 2.6q-0.1 0.7-0.2 1.4-0.1 0.6-0.2 1.2c-0.1 0.5-0.1 1-0.2 1.4q0 0.8-0.1 1.5c0 0.5 0 1.1 0 1.6q0 0.5 0 1 0 0.6 0 1.1 0 0.5 0.1 1.1 0 0.5 0 1c0.1 0.9 0 1.8 0 2.7q0 2.7-0.1 5.4 0 1.3-0.1 2.6 0 1.4-0.1 2.8c-0.1 1.8 0 3.6-0.1 5.4q0 0.6 0 1.3 0 0.7 0 1.3-0.1 0.7-0.1 1.4-0.1 0.6-0.1 1.3l-0.1 1.2-0.1 1.3q-0.1 1.4-0.1 2.8-0.1 1.3-0.1 2.6-0.1 0.7-0.1 1.3-0.1 0.7-0.1 1.4l-0.1 1.4q0 0.6-0.1 1.3 0 0.3 0 0.7-0.1 0.3-0.1 0.7 0 0.3-0.1 0.7-0.1 0.3-0.1 0.7c-0.1 0.2-0.2 0.4-0.4 0.5q-0.1 0-0.3 0.1-0.1 0-0.3-0.1-0.1 0-0.2-0.1-0.2-0.1-0.3-0.2-0.2-0.3 0-0.6 0.1-0.6 0.1-1.1 0.1-0.8 0.2-1.6 0-0.9 0.1-1.8 0-0.9 0.1-1.7 0-0.9 0.1-1.8c0.1-0.9 0.1-1.8 0.1-2.7l0.1-1.2v-1.4q0.1-1.3 0.2-2.7 0.1-1.3 0.2-2.6 0.1-2.8 0.1-5.5 0-0.4 0-0.7 0-0.3 0-0.6 0-0.3 0-0.7 0-0.3 0.1-0.6 0-1.3 0-2.6c0.1-0.9 0.1-1.9 0.2-2.8q0-1.3 0-2.7l0.1-2.7q0-1.3-0.1-2.6 0-0.5 0-1 0-0.5-0.1-1 0-0.5 0-1 0-0.5 0-1 0-0.7 0.1-1.3 0-0.7 0-1.3 0.1-0.7 0.2-1.4 0-0.6 0.1-1.3 0.1-0.7 0.3-1.3 0.1-1.1 0.2-2.1c0.1-0.8 0.1-1.5 0.2-2.3 0-0.8 0.1-1.5 0.1-2.3 0.1-0.7 0.1-1.5 0.1-2.3q0.1-1.3 0.2-2.5 0-1.4 0-2.8c0-0.8 0.1-1.6 0.1-2.5q0-0.3 0-0.6 0.1-0.3 0.1-0.6 0-0.4 0-0.7 0-0.3 0-0.6c0-0.8 0.1-1.7 0.1-2.5q0-0.6 0.1-1.2l0.1-1.2 0.1-1.2q0-0.6 0.1-1.2v-1.2c0.1-0.4 0.1-0.7 0.2-1.1 0-0.4 0-0.8 0.1-1.2q0-0.1 0-0.3 0-0.2 0.1-0.4 0-0.2 0.1-0.4 0-0.2 0.1-0.3c0-0.1 0-0.3 0.1-0.3 0.1-0.1 0.1-0.2 0.2-0.3h0.1q0.2-0.2 0.4-0.4 0.4-0.2 0.7-0.3 0.3-0.1 0.5-0.1c0.9-0.1 1.7-0.1 2.5-0.1zm12.6 2.4h0.1z"/>
				<path id="Layer" fill-rule="evenodd" class="s1" d="m87.3 20.3q0.1-0.1 0.2-0.2 0.1-0.2 0.3-0.2 0.1-0.1 0.2-0.1c0.5 0 0.8 0.4 0.8 0.8q0 1.4 0 2.8 0 0.6 0 1.3c-0.1 0.9-0.2 3-0.3 3.9-0.2 1.7-0.3 3.5-0.4 5.2q-0.1 1.3-0.3 2.6-0.1 1.2-0.3 2.5l-0.3 2.5q-0.1 1.3-0.3 2.6l-0.2 1.1 0.1-0.2-0.2 1.2-0.1 0.5q0 0.1 0 0.1c0 0 0 0.2 0 0.3l-0.1 0.8-0.5 4.3q-0.2 1.3-0.3 2.6 0 1.2-0.1 2.6 0 1.3 0 2.6-0.1 1.3-0.3 2.6 0 0.2 0 0.4-0.1 0.2-0.1 0.3 0 0.2 0 0.4-0.1 0.1-0.1 0.3-0.1 1-0.2 2.1v21.7c0 0.8 0 1.7-0.1 2.5q-0.1 1.2-0.1 2.5c0 0.8 0.1 1.6 0.1 2.4v1.2q0 0.5-0.1 1.1c0 0.8 0 4.1 0 4.9q0 0.2-0.1 0.3-0.1 0.2-0.2 0.3-0.1 0.1-0.2 0.2-0.2 0-0.3 0c-0.5 0-0.8-0.3-0.8-0.8 0-1.5 0-3 0-4.6q0.1-0.5 0.1-1 0-0.3 0-0.6 0-0.2 0-0.5 0-0.3 0-0.6 0-0.2 0-0.5 0-0.5-0.1-1.1c0-0.8 0.1-1.6 0.1-2.4l0.1-1.2c0-1.7 0-20 0-21.7q0-1.3 0.1-2.5 0-0.5 0.1-1 0-0.5 0.1-0.9 0.1-0.5 0.1-1 0.1-0.5 0.1-0.9v0.2q0.1-0.5 0.1-1 0.1-0.5 0.1-1 0-0.4 0-0.9 0.1-0.5 0.1-1c0-1.3 0-2.6 0.1-3.9q0.1-1.3 0.2-2.5l0.3-2.4 0.4-2.8q0-0.1 0-0.1c0 0 0-0.2 0-0.3l0.1-0.3 0.1-0.6-0.1 0.2 0.2-1.4q0.1-0.3 0.1-0.6 0.1-0.4 0.1-0.7 0.1-0.4 0.1-0.7 0.1-0.3 0.1-0.7 0.1-1.2 0.3-2.5l0.1-1.2 0.1-1.3q0.2-1.3 0.3-2.6l0.2-2.6q0.1-1.3 0.3-2.6 0-0.3 0-0.7 0-0.3 0.1-0.6 0-0.4 0-0.7 0-0.3 0-0.6l0.1-1.3q0-0.7 0-1.3 0-1.4 0.1-2.7 0-0.1 0-0.3zm-20.4-1q0.1-0.1 0.3-0.1 0.2 0 0.3 0.1 0.1 0 0.3 0.1c0.1 0.2 0.2 0.4 0.2 0.6-0.1 0.7-0.2 1.4-0.2 2.1l-0.1 2.1v6.7q0.1 1.3 0 2.6 0 0.3 0 0.6-0.1 0.4-0.1 0.7 0 0.3-0.1 0.6 0 0.3 0 0.6c-0.1 0.9-0.2 1.7-0.3 2.6v1.3l-0.1 1.2q-0.1 1.4-0.1 2.7c0 1.7 0 7.2 0 8.9q0 0.7-0.1 1.4v1.2q-0.1 0.6-0.1 1.2l-0.2 2.6q-0.1 1.2-0.1 2.5l-0.1 1.3-0.1 1.2c0 0.9-0.1 1.7-0.2 2.5v1.2q-0.1 0.7-0.2 1.4l-0.2 1.8q-0.1 0.9-0.2 1.9-0.1 1.1-0.3 2.1c-0.1 0.6-0.2 1.1-0.3 1.7l-0.2 1.3v0.2l-0.3 2.5q-0.2 1.3-0.2 2.6c0 0.4-0.1 0.8-0.1 1.2q-0.1 0.4-0.1 0.9 0 0.5-0.1 0.9 0 0.5 0 1-0.1 0.4-0.2 0.9l-0.1 1.5-0.2 1.4-0.2 1.8q-0.2 0.7-0.3 1.5l-0.1 0.9-0.1 1q-0.1 0.4-0.1 0.9 0 0.2 0 0.5 0 0.2-0.1 0.3 0 0.2 0 0.4 0 0.2 0 0.3-0.1 0.2-0.1 0.4 0 0.3 0 0.7l-0.1 0.5-0.1 0.3v0.6q0 0.4-0.1 0.7c0 0.2-0.1 0.4-0.1 0.6-0.1 0.2-0.2 0.3-0.4 0.4q-0.1 0.1-0.3 0.1-0.1 0.1-0.3 0-0.1 0-0.3-0.1-0.1-0.1-0.2-0.2c-0.1-0.2-0.1-0.4-0.1-0.6 0.1-0.3 0.2-0.5 0.2-0.8q0.1-0.4 0.1-0.8 0-0.6 0.1-1.1 0.1-0.4 0.1-0.7 0-0.4 0.1-0.8 0-0.3 0-0.7 0-0.3 0.1-0.7 0-0.6 0.2-1.2v-0.7q0.1-0.5 0.2-1l0.2-1.6 0.2-1.1q0-0.5 0.1-1 0-0.5 0.1-1.1 0.1-0.6 0.2-1.1v-0.4c0-0.4 0.1-0.8 0.1-1.2l0.1-1.3 0.1-1.1q0-0.7 0.1-1.3c0-0.8 0.1-1.6 0.2-2.5q0.1-0.5 0.1-1.1 0.1-0.6 0.2-1.2 0-0.6 0.1-1.1 0.1-0.6 0.2-1.2 0.2-0.8 0.3-1.7 0.2-1.2 0.3-2.4 0.1-1.2 0.3-2.4 0.1-0.9 0.1-1.9 0.1-1 0.2-1.9 0.1-1 0.1-1.9 0.1-1 0.1-2l0.1-1.2q0-0.6 0.1-1.3 0-0.6 0-1.3 0.1-0.6 0.1-1.2l0.1-1.2 0.1-1.3c0-0.9 0-6.9 0-7.8q0-2.5 0.1-5.1l0.1-1.3 0.1-1.2q0-0.7 0.1-1.3l0.2-1.3q0.1-1.3 0.2-2.6c0-0.9 0-1.8 0-2.6 0-0.9 0-6.9 0-7.8q0.1-1.3 0.2-2.6 0-0.1 0-0.2 0.1 0 0.1-0.1 0-0.1 0.1-0.1 0-0.1 0-0.2 0.2-0.1 0.3-0.1zm-5.2 72.9l0.1-0.2h-0.1zm13.1-70.6q0.1 0 0.3 0.1 0.1 0.1 0.2 0.2 0.1 0.1 0.2 0.2 0.1 0.2 0.1 0.3 0 1.1-0.2 2.1 0 0.1 0 0.1 0 0.1 0 0.1l-0.1 0.3-0.1 1.5q-0.1 0.8-0.2 1.6v0.8l-0.1 0.7q-0.1 0.8-0.1 1.6l-0.1 1.2c-0.1 0.9-0.2 3-0.3 3.9 0 0.8 0 1.6-0.1 2.5v2.4q0 2.6-0.1 5.2 0 0.5 0 1 0 0.5-0.1 0.9 0 0.5 0 1-0.1 0.5-0.1 1l-0.2 1.3q-0.1 0.6-0.2 1.3 0 0.6-0.1 1.3 0 0.6-0.1 1.2 0 0.7 0 1.3l-0.1 1.3q0 0.7 0 1.3 0 1.3-0.1 2.6c0 0.9-0.1 1.7-0.1 2.6q0 1.3 0 2.6-0.1 1.3-0.1 2.6-0.1 1.3-0.1 2.6c0 1.7 0 3.4-0.1 5.1l-0.1 1.3q0 0.6-0.1 1.3l-0.2 5.2q-0.1 1.3-0.1 2.6c-0.1 0.9-0.2 1.7-0.2 2.6-0.1 0.9-0.1 1.8-0.2 2.7l-0.1 1.2-0.2 1.3-0.2 2.5-0.1 1.3v1.2q-0.1 0.6-0.1 1.3l0.1 1.4c0 0.4-0.4 0.8-0.8 0.8q-0.2-0.1-0.3-0.1-0.2-0.1-0.3-0.2-0.1-0.1-0.2-0.2 0-0.2 0-0.3 0-0.6 0-1.2c-0.1-0.9 0-1.7 0.1-2.6v-1.2l0.1-1.2 0.3-2.6 0.4-5.2c0.1-0.9 0.1-1.8 0.1-2.6 0.1-0.9 0.2-1.7 0.2-2.6q0-1.3 0.1-2.6 0.1-1.3 0.2-2.6 0.1-1.2 0.1-2.5 0.1-2.7 0-5.3c0-0.8 0.1-1.7 0.1-2.5q0.1-1.4 0.1-2.7c0-0.8 0-1.7 0.1-2.5q0-1.3 0.1-2.6c0-0.4 0-2.1 0-2.5q0.1-1.3 0.2-2.7 0-0.6 0-1.2 0.1-0.7 0.2-1.3 0-0.6 0.1-1.3 0.1-0.6 0.2-1.2 0.2-1.9 0.2-3.8 0.1-2 0.1-4v-2.5c0-0.8 0.1-1.6 0.1-2.4v-1.3l0.1-1.3c0.1-0.9 0.1-1.7 0.2-2.5l0.1-1.3q0-0.6 0.1-1.3 0-0.5 0.1-1.1 0-0.6 0.1-1.2l0.1-1.2q0.1-0.5 0.1-1.1l0.1-0.7v-0.4l0.1-0.1q0.1-1 0.1-2c0-0.4 0.3-0.8 0.8-0.8zm5.8-0.7q0.2 0.1 0.3 0.1 0.2 0.1 0.3 0.3 0.1 0.1 0.1 0.3 0.1 0.2 0 0.3l-0.1 0.5-0.1 0.9-0.1 1-0.1 0.9q0 0.8-0.1 1.6l-0.2 1.6-0.1 0.4q0 0.2 0 0.4v0.1q-0.1 0.3-0.1 0.5 0 0.2 0 0.4-0.1 0.2-0.1 0.4 0 0.2 0 0.5l-0.1 1.2q-0.1 0.7-0.1 1.3 0 0.7-0.1 1.3-0.1 0.6-0.1 1.2c0 0.8-0.1 1.6-0.1 2.4l-0.3 3.9q-0.1 0.6-0.1 1.2 0 1.3-0.1 2.6c-0.1 0.8-0.1 1.6-0.1 2.5v7.8q0 1.3 0.1 2.6 0 1.3 0.1 2.6c0 0.8 0.2 1.7 0.2 2.5q0.1 1.3 0.2 2.6 0 1.3 0 2.6v2.7q0 2.6-0.1 5.2c0 0.9-0.1 1.8-0.1 2.8l-0.1 2.5-0.1 2.6q-0.1 1.4-0.1 2.8l-0.1 1.4c0 0.4 0 4.8 0 5.3q0 0.7-0.1 1.3 0 0.7-0.1 1.4 0 0.6-0.1 1.3-0.1 1.3-0.2 2.6c-0.1 0.9-0.1 1.8-0.1 2.7q0 0.2-0.1 0.3 0 0.1-0.1 0.2-0.1 0.2-0.3 0.2-0.1 0.1-0.3 0.1c-0.4 0-0.8-0.4-0.8-0.8 0.1-0.8 0.1-1.6 0.1-2.4l0.2-2.2 0.1-1.4q0.1-0.7 0.1-1.4c0.1-0.8 0.1-1.7 0.1-2.5q0-1.4 0-2.8 0-0.4 0-0.7 0-0.3 0-0.7 0.1-0.3 0.1-0.7 0-0.3 0-0.7l0.1-2.7c0-0.8 0.1-1.7 0.1-2.6q0.1-1.2 0.1-2.5 0-0.7 0-1.4 0.1-0.6 0.1-1.3 0-0.7 0.1-1.4 0-0.6 0-1.3 0-0.7 0-1.3 0-0.7 0-1.4v-5.1q0-1.3-0.1-2.7-0.1-1.2-0.2-2.5c-0.2-1.7-0.2-3.4-0.2-5.2v-9.1q-0.1-0.6 0-1.2c0-0.8 0.1-1.7 0.1-2.5q0-0.6 0.1-1.2 0-0.7 0.1-1.3c0-0.9 0.1-1.8 0.2-2.6q0-0.7 0-1.3l0.1-1.2q0-0.6 0.1-1.2l0.1-1.3q0-0.6 0.1-1.3l0.1-1.3q0-0.3 0-0.6 0-0.3 0.1-0.6 0-0.4 0.1-0.7 0-0.3 0-0.6 0 0 0-0.1 0.1-0.1 0.1-0.1 0.1-1 0.2-1.9l0.1-1.1q0-0.1 0-0.2 0-0.1 0-0.3 0.1-0.1 0.1-0.2 0-0.2 0-0.3 0.1-0.5 0.1-1 0-0.3 0-0.5l0.1-0.7c0.1-0.4 0.1-0.8 0.2-1.2 0.1-0.3 0.4-0.6 0.8-0.6zm-1.6 8zm-14.6 39.8v0.2z"/>
				<path id="Layer" fill-rule="evenodd" class="s1" d="m74.6 19.5q0.2 0 0.3 0 0.2 0.1 0.3 0.2 0.1 0.1 0.2 0.2c0.1 0.2 0.1 0.4 0.1 0.6l-0.1 0.2v2.6c0 0.3 0 0.5-0.2 0.7-0.1 0.2-0.4 0.3-0.6 0.3-0.2 0-0.5-0.1-0.6-0.3-0.2-0.2-0.2-0.4-0.2-0.7v-2.2c0-0.4 0-0.7 0.2-1q0-0.1 0-0.2 0 0 0.1-0.1 0-0.1 0.1-0.1 0-0.1 0.1-0.1 0.1-0.1 0.3-0.1zm-14.6 11.6q0.3 0 0.7 0 0.3 0 0.6 0 0.4 0 0.7 0.1c0.2 0 1.7 0 2 0l1.1 0.1 2.5 0.1q1.2 0.1 2.5 0.2 1.2 0 2.4 0.1c0.8 0 1.6 0.1 2.4 0.1q1.2 0.1 2.4 0.1l1.2 0.1 1.1 0.1q1.2 0 2.4 0.1c0.1 0 1.5 0 1.6 0q0.1 0 0.2 0 0.2 0 0.3 0 0.1 0 0.3 0 0.4 0.1 0.8 0.1 0.3 0 0.5 0 0.2 0 0.5 0 0.2 0 0.5 0 0.2 0 0.4 0.1c0.3 0 0.7 0 1 0q0.2-0.1 0.4 0.1 0.2 0.1 0.3 0.3 0.1 0.2 0 0.5 0 0.2-0.2 0.4c-0.1 0.1-0.3 0.2-0.5 0.2-0.1 0-1.4 0-1.6 0q-0.2 0-0.5 0-0.2 0-0.5 0-0.2 0-0.5 0-0.4-0.1-0.9-0.1-0.2-0.1-0.5-0.1c-0.3 0-1.1 0-1.4 0q-0.4 0-0.9 0-0.4 0-0.8 0-0.4 0-0.8-0.1h-1.2q-0.6-0.1-1.1-0.1-1.2 0-2.4-0.1c-0.8-0.1-1.6-0.1-2.4-0.1-0.9-0.1-1.7-0.2-2.5-0.2q-1.2 0-2.4-0.1l-2.5-0.1-1.2-0.1q-0.5 0-1 0-0.5 0-1-0.1-0.5 0-1 0-0.5 0-1-0.1-0.3 0-0.5-0.2-0.3-0.2-0.3-0.6c0-0.3 0.4-0.7 0.8-0.7zm2.6 22c1.1 0 2.2 0.2 3.2 0.3q0.3 0 0.6 0 0.4 0 0.7 0 0.3 0 0.6 0 0.3 0 0.6 0.1 1.3 0 2.6-0.1 1.2-0.1 2.5-0.2 1.2-0.1 2.4-0.1c0.8 0 1.6 0.1 2.4 0.1q1.1 0.1 2.3 0.1c0.1 0 3.9 0 3.9 0q0.1 0 0.1 0 0.1 0 0.1 0 0.1 0 0.1 0 0.1 0 0.3 0.1c0.2 0.1 0.3 0.3 0.3 0.5q0.1 0 0.1 0.1 0 0 0 0.1 0 0 0 0.1 0 0-0.1 0.1 0 0.1 0 0.2-0.1 0.1-0.2 0.1 0 0.1-0.1 0.2-0.1 0-0.2 0c-0.1 0.1-0.3 0.1-0.4 0.1h-2.4q-1.5 0-2.9-0.1c-0.8 0-1.5-0.1-2.3-0.1-0.8 0-1.7 0-2.5 0q-1.2 0.1-2.5 0.1l-1.3 0.1q-0.6 0.1-1.3 0.1-1.2 0-2.4 0-1.2-0.1-2.5-0.2c-1.7-0.2-3.4-0.1-5.1-0.1-0.4 0-0.7-0.4-0.7-0.8q0-0.1 0-0.3 0.1-0.1 0.2-0.2 0.1-0.1 0.2-0.2 0.2-0.1 0.3-0.1zm-4.4 18.1q0.3 0 0.6 0.1 0.2 0 0.5 0 0.3 0.1 0.6 0.1 0.3 0 0.5 0.1 0.9 0.1 1.8 0.3 0 0 0.1 0 1 0.1 2 0.1c1.6 0.1 3.3 0.1 4.9 0.1h3.7q0.6 0.1 1.2 0.2 1.2 0.1 2.5 0.1h1.2c0.4 0.1 0.8 0.1 1.1 0.1l1.2 0.1q0.6 0 1.2 0.1 0.2 0 0.3 0 0.2 0 0.4 0.1 0.1 0 0.3 0 0.2 0 0.3 0.1 0.5 0.1 1.1 0.2 0.4 0.1 0.8 0.1 0.4 0 0.9 0 0.2 0.1 0.3 0.2 0.2 0.1 0.2 0.3 0.1 0.2 0.1 0.4 0 0.1-0.1 0.3 0 0-0.1 0.1 0 0-0.1 0.1-0.1 0.1-0.1 0.1-0.3 0.2-0.7 0.1-0.2 0-0.4 0-0.2 0-0.4-0.1-0.2 0-0.4 0-0.2 0-0.4-0.1-0.5 0-1-0.2-0.4-0.1-0.8-0.2h-1.4q-0.8-0.1-1.5-0.1c-0.8-0.1-1.7-0.1-2.5-0.1q-1.2-0.1-2.4-0.2-1.2-0.1-2.4-0.2c-1.6 0-5.8 0-7.4 0-0.9-0.1-1.7-0.1-2.6-0.3q-1.1-0.2-2.3-0.3l-0.8-0.1c-0.2-0.1-0.3-0.1-0.5-0.3q-0.1-0.1-0.2-0.2 0-0.2 0-0.3 0-0.2 0-0.3 0.1-0.2 0.2-0.3c0.1-0.1 0.3-0.2 0.5-0.2zm-1.6 21q0-0.2 0.1-0.3 0.2-0.1 0.3-0.1 0.1-0.1 0.3-0.1 0.5 0 1 0l1 0.1q1 0 2 0.1c0.7 0 1.4 0 2 0.1q1 0 1.9 0.1c1.7 0.2 3.3 0.2 5 0.2h0.4q0.5 0 1.1 0.1 0.5 0 1.1 0 0.6 0.1 1.1 0.2 0.6 0 1.2 0.1 0.6 0.1 1.2 0.1c0.5 0.1 0.9 0.1 1.4 0.2q0.7 0.1 1.4 0.1 0.3 0 0.6 0l0.7 0.1q0.1 0 0.3 0 0.2 0.1 0.4 0.1 0.2 0 0.4 0 0.2 0 0.4 0c0.3 0 0.7 0 1.1 0q0.2 0.1 0.3 0.3 0.2 0.2 0.2 0.4 0 0.2-0.1 0.4-0.1 0.3-0.3 0.4-0.2 0.1-0.5 0.1l-0.5-0.1c-0.2 0-0.6 0-0.8 0q-0.3 0-0.5 0-0.3 0-0.6 0-0.2-0.1-0.5-0.1c-0.4-0.1-0.9-0.1-1.3-0.1q-0.7 0-1.4-0.1c-0.5-0.1-0.9-0.1-1.4-0.2q-0.8 0-1.5-0.2l0.2 0.1q-0.5-0.1-0.9-0.1-0.5-0.1-0.9-0.1-0.4-0.1-0.9-0.1-0.4 0-0.9 0c-1.1 0-2.3 0-3.4-0.1-1.7-0.1-3.3-0.3-5-0.3q-1.2 0-2.5-0.1-1.2-0.1-2.5-0.1c-0.4-0.1-0.8-0.4-0.8-0.8q0-0.2 0.1-0.3zm11.2-79.1q0.1 0 0.3 0 0.1 0.1 0.2 0.2 0.2 0.1 0.2 0.2 0.1 0.1 0.1 0.1 0 0.1 0 0.2 0 0.1 0 0.1 0 0.1 0 0.2c0 0.4 0 0.9 0 1.3q0 0.3 0 0.7 0 0.3 0 0.7-0.1 0.3-0.1 0.7 0 0.3 0 0.7-0.1 0.7-0.1 1.3 0 0.3-0.1 0.4c-0.1 0.1-0.3 0.3-0.4 0.4q-0.2 0-0.3 0-0.2 0-0.3 0-0.2-0.1-0.3-0.2c-0.1-0.1-0.2-0.4-0.2-0.6q0.1-0.7 0.1-1.4 0-0.4 0.1-0.7 0-0.4 0-0.7 0-0.4 0-0.7 0-0.4 0-0.7v-0.7q0-0.5 0.1-0.9 0-0.1 0.1-0.2 0 0 0-0.1 0.1 0 0.1-0.1 0.1 0 0.2-0.1 0.1-0.1 0.3-0.1zm-5.5 58.7z"/>
				<path id="Layer" fill-rule="evenodd" class="s1" d="m67.7 7.8q0.4 0 0.8 0 0.2 0 0.3 0 0.2 0 0.4 0 0.2 0 0.4 0.1 0.1 0 0.3 0.1 0.1 0 0.3 0.1 0.1 0.1 0.2 0.1 0.1 0.1 0.2 0.1 0.1 0.1 0.3 0.2 0.2 0.2 0.4 0.4 0.3 0.2 0.5 0.5 0.3 0.5 0.4 1 0.2 0.5 0.2 1c0.1 0.4 0 0.7 0 1.1q-0.1 0.4-0.2 0.8-0.2 0.3-0.3 0.6-0.2 0.3-0.4 0.6-0.1 0.1-0.3 0.2-0.1 0.1-0.2 0.2-0.1 0.1-0.3 0.2-0.1 0.1-0.3 0.1-0.5 0.2-1.1 0.3-0.6 0-1.1-0.1-0.6-0.1-1.1-0.3-0.5-0.2-1-0.6-0.3-0.2-0.6-0.4l-0.2-0.3q-0.2-0.2-0.3-0.4-0.3-0.6-0.3-1.2c0-0.4 0-0.8 0.2-1.2 0.1-0.4 0.4-0.9 0.6-1.4 0-0.1 0.2-0.3 0.4-0.3q0.2-0.1 0.3 0 0.2 0 0.3 0.1 0.2 0 0.3 0.2 0.1 0.1 0.1 0.2 0.1 0.3-0.1 0.6l-0.4 0.8q-0.1 0.4-0.2 0.8 0 0.1 0 0.1 0 0.1 0 0.1 0 0.1 0 0.1 0 0.1 0 0.1 0.1 0 0.1 0 0 0.1 0 0.1l0.1 0.2q0 0.1 0.1 0.1 0.1 0.1 0.1 0.1 0.1 0.1 0.1 0.2 0.1 0 0.2 0.1 0.1 0 0.2 0.1 0.1 0.1 0.2 0.2 0.2 0 0.3 0.1 0.1 0.1 0.2 0.1 0.4 0.1 0.7 0.2 0.1 0 0.2 0 0.1 0 0.2 0 0.1 0 0.2 0 0.1 0 0.2 0 0.3-0.1 0.6-0.2l0.2-0.1 0.2-0.2q0.2-0.2 0.3-0.5 0.1-0.2 0.2-0.4 0-0.2 0-0.4 0.1-0.2 0.1-0.4 0-0.2 0-0.4-0.1-0.3-0.2-0.6-0.1-0.3-0.3-0.6l-0.3-0.2q-0.3-0.2-0.6-0.4-0.3-0.1-0.6-0.1-0.6-0.1-1.2 0c-0.2 0-0.4-0.1-0.6-0.2q-0.2-0.3-0.2-0.6 0-0.1 0-0.3 0.1-0.1 0.2-0.2 0-0.1 0.1-0.2 0.2 0 0.3-0.1z"/>
				<path id="Layer" fill-rule="evenodd" class="s1" d="m66.5 6.7q0.1 0 0.2 0 0 0 0.1 0 0.1 0 0.1 0.1 0.1 0 0.2 0.1 0 0 0.1 0.1 0 0 0.1 0.1 0 0.1 0 0.2 0.3 0.7 0.5 1.5l0.5 1.8q0.1 0.2 0.1 0.3-0.1 0.2-0.1 0.3-0.1 0.1-0.2 0.2-0.2 0.1-0.3 0.2-0.2 0-0.3 0-0.2 0-0.3-0.1-0.1-0.1-0.2-0.2-0.1-0.1-0.2-0.3l-0.5-1.8q-0.2-0.8-0.5-1.5c-0.1-0.4 0.1-0.9 0.5-1q0.1 0 0.2 0zm11.7 8.4l-0.4 2q-0.1 1.2-0.3 2.4c0 0.2 0.1 0.4 0.3 0.5q0.1 0.1 0.2 0.2 0.1 0 0.3 0 0.2 0 0.3 0 0.1-0.1 0.2-0.2 0.1-0.1 0.2-0.2 0.1-0.1 0.1-0.4l0.1-0.9q0.1-0.7 0.2-1.5l0.1-0.6q0.1-0.4 0.2-0.9 0 0 0-0.1 0-0.1 0-0.2 0 0 0-0.1-0.1-0.1-0.1-0.2 0 0-0.1-0.1-0.1-0.1-0.2-0.1-0.1-0.1-0.2-0.1-0.1 0-0.2 0c-0.3 0-0.7 0.2-0.7 0.5z"/>
				<path id="Layer" fill-rule="evenodd" class="s1" d="m79.7 9.9q0.3 0 0.5 0 0.2 0 0.5 0.1 0.2 0.1 0.4 0.2 0.2 0.1 0.4 0.2 0.2 0.1 0.3 0.3 0.2 0.2 0.3 0.4 0.2 0.3 0.3 0.5 0 0.2 0.1 0.5 0.1 0.8-0.1 1.7-0.1 0.2-0.2 0.3 0 0.2-0.1 0.3-0.2 0.2-0.3 0.3-0.1 0.2-0.3 0.3-0.4 0.3-0.9 0.4-0.3 0-0.5 0-0.3 0-0.5 0-0.3 0-0.5 0-0.3-0.1-0.5-0.1-0.3-0.1-0.5-0.2-0.2 0-0.2-0.1-0.1 0-0.2-0.1-0.1-0.1-0.2-0.2 0 0-0.1-0.1-0.1-0.1-0.1-0.3-0.1-0.1-0.1-0.2 0-0.1 0-0.3-0.1-0.1-0.1-0.2 0-0.2 0.1-0.3 0-0.1 0-0.2 0-0.1 0-0.2 0.1-0.2 0.1-0.3 0.2-0.6 0.3-1.2 0.1 0 0.1 0 0-0.1 0-0.2 0-0.1 0-0.2 0.1 0 0.1-0.1 0-0.1 0.1-0.1l0.3-0.3q0.2-0.2 0.5-0.3c0.3-0.2 0.7-0.3 1-0.3zm0.2 1.6q0.3 0 0.5 0.1l0.2 0.1 0.1 0.1q0.1 0.1 0.1 0.2 0.1 0.2 0.2 0.5v0.4q-0.1 0.3-0.2 0.5v0.2l-0.4 0.2q-0.1 0-0.1 0-0.6 0.1-1.2 0 0 0-0.1 0 0 0-0.1 0 0 0-0.1-0.1 0 0-0.1 0v-0.3c0.1-0.6 0.3-1 0.4-1.5q0.1-0.1 0.1-0.1 0-0.1 0-0.1l0.1-0.1 0.2-0.1zm4.3 4.7q-0.1 0-0.1 0.1-0.1 0.1-0.1 0.1 0 0.1 0 0.2 0 0.1-0.1 0.1 0 0.5 0 0.9 0 0.4 0.1 0.9 0 0.1 0 0.3 0.1 0.1 0.2 0.2 0.1 0.1 0.3 0.2 0.1 0.1 0.2 0.1c0.5 0 0.8-0.4 0.8-0.8 0-0.3 0-1.5 0-1.8q0-0.2-0.1-0.4-0.2-0.2-0.4-0.3-0.2-0.1-0.4 0-0.3 0-0.4 0.2zm-21.6 0.6q-0.1 0-0.1 0-0.1 0.1-0.2 0.1 0 0.1-0.1 0.1 0 0.1-0.1 0.1v0.2q-0.1 0.1-0.1 0.1 0 0.1 0 0.1 0 0.1 0 0.1 0 0.1 0.1 0.1 0.1 0.6 0.2 1.2 0.2 0.6 0.4 1.2 0.1 0.3 0.4 0.4 0.3 0.2 0.6 0.1c0.4-0.1 0.7-0.5 0.5-0.9q-0.2-0.6-0.4-1.2-0.1-0.5-0.2-1.2c-0.1-0.2-0.2-0.4-0.4-0.4q0-0.1-0.1-0.1-0.1 0-0.2 0 0 0-0.1 0-0.1 0-0.2 0zm9.8-0.9c-0.1 0.1-0.3 0.3-0.3 0.5l-0.3 1.5-0.2 1.7c0 0.2 0.1 0.4 0.3 0.5q0.1 0.1 0.2 0.2 0.2 0 0.3 0 0.2 0 0.3 0 0.1-0.1 0.3-0.2l0.1-0.1q0.1-0.2 0.1-0.4l0.1-1 0.1-0.8 0.2-1q0-0.1 0-0.2 0 0 0-0.1 0-0.1 0-0.2 0 0-0.1-0.1-0.1-0.1-0.2-0.2-0.1-0.1-0.3-0.2-0.1 0-0.3 0-0.1 0-0.3 0.1zm-22.4-5q-0.6 0.1-1.2 0.1-0.7 0.1-1.4 0.3-1.2 0.2-2.3 0.5-1.1 0.2-2.3 0.6-0.6 0.2-1.2 0.5c-0.4 0.2-0.7 0.5-1.1 0.7q-0.3 0.2-0.5 0.3-0.3 0.2-0.5 0.4-0.3 0.2-0.5 0.5-0.2 0.2-0.4 0.4-0.2 0.3-0.5 0.5-0.2 0.3-0.3 0.6-0.2 0.2-0.4 0.5-0.2 0.3-0.3 0.6-0.3 0.6-0.5 1.2-0.3 0.6-0.4 1.2-0.2 0.6-0.2 1.2 0 0.7 0 1.3 0 0.6 0.1 1.2c0 0.5 0.1 0.9 0.3 1.3q0.1 0.3 0.3 0.6 0.1 0.3 0.3 0.6 0.2 0.3 0.4 0.6 0.2 0.2 0.5 0.5 0.5 0.4 1.1 0.9 0.4 0.3 0.9 0.6 0.4 0.4 0.9 0.7 0.2 0.1 0.4 0.2 0.2 0.1 0.4 0.2 0.2 0.1 0.5 0.2 0.2 0.1 0.4 0.1 0.4 0.1 0.8 0.1 0.6 0.1 1.1 0.1l1.2-0.1q0.2 0 0.3-0.1 0.2 0 0.4 0 0.1 0 0.3 0 0.2 0 0.3 0 0.2 0 0.3-0.1 0.2 0 0.3-0.1 0.1-0.1 0.1-0.3 0.1-0.1 0.1-0.3c0-0.4-0.3-0.8-0.8-0.8q-0.5 0-1 0.1l-0.9 0.1c-0.1 0-1.2 0-1.4 0q-0.2 0-0.4 0-0.3-0.1-0.5-0.2-0.3 0-0.5-0.1-0.1-0.1-0.3-0.2-0.2-0.1-0.3-0.2-0.2-0.1-0.3-0.2-0.2-0.1-0.3-0.2-0.6-0.5-1.2-0.9-0.2-0.1-0.3-0.2-0.2-0.2-0.4-0.3-0.1-0.2-0.3-0.4-0.2-0.1-0.3-0.3-0.1-0.1-0.2-0.2 0-0.2-0.1-0.3-0.1-0.1-0.2-0.3 0-0.1-0.1-0.2 0-0.1-0.1-0.3 0-0.1-0.1-0.2 0-0.1 0-0.2 0-0.1 0-0.3c-0.1-0.8-0.2-1.8-0.1-2.6q0.1-0.6 0.3-1.1 0.1-0.6 0.4-1.1 0.2-0.5 0.5-1 0.3-0.5 0.7-1 0.1-0.2 0.2-0.3 0.2-0.2 0.3-0.4 0.2-0.1 0.4-0.3 0.1-0.1 0.3-0.2 1-0.8 2.1-1.3c0.9-0.4 1.9-0.6 2.8-0.8q0.8-0.2 1.5-0.4 0.8-0.1 1.6-0.3c0.7-0.1 1.4-0.1 2.2 0q0.6 0 1.2 0.3 0.4 0.1 0.7 0.3 0.1 0.2 0.3 0.4 0.2 0.2 0.4 0.5 0 0.2 0.1 0.4 0 0.2 0.1 0.4 0 0.2 0.1 0.4 0 0.2 0.1 0.4 0 0.2 0 0.4 0.1 0.6 0.1 1.3 0 0.6 0 1.2l-0.1 0.6q-0.1 0.4-0.2 0.8-0.1 0.7-0.3 1.4-0.4 0.7-0.6 1.4-0.2 0.6-0.4 1.3-0.1 0.2 0 0.5 0.1 0.2 0.2 0.3 0.2 0.2 0.5 0.2 0.2 0 0.4-0.1 0.1-0.1 0.1-0.1 0.1-0.1 0.1-0.1 0.1-0.1 0.1-0.1 0.1-0.1 0.1-0.2 0.3-0.9 0.6-1.8c0.2-0.4 0.3-0.8 0.5-1.1q0.2-0.6 0.3-1.2l0.2-1.2q0-0.3 0.1-0.7 0-0.3 0-0.6 0-0.3 0-0.6 0-0.3-0.1-0.6 0-0.4 0-0.8-0.1-0.3-0.2-0.7 0-0.4-0.1-0.8-0.1-0.3-0.2-0.7 0 0-0.1-0.1 0-0.1 0-0.1 0-0.1-0.1-0.1 0-0.1 0-0.1-0.1-0.1-0.2-0.2 0-0.2-0.1-0.3-0.1-0.1-0.2-0.2-0.1-0.1-0.1-0.2-0.2-0.2-0.4-0.3-0.2-0.2-0.4-0.3-0.2-0.2-0.5-0.3-0.2-0.1-0.4-0.2-0.3-0.1-0.6-0.1-0.3-0.1-0.6-0.2-0.3 0-0.6 0-0.3-0.1-0.7-0.1zm28.7 2.8q0 0 0.1 0.1zm0 0v0.1q0-0.1 0-0.1z"/>
				<path id="Layer" fill-rule="evenodd" class="s1" d="m51.8 24.6q0.1-0.1 0.2-0.2 0.2 0 0.3 0 0.2 0 0.3 0 0.1 0.1 0.3 0.2 0 0 0.1 0.1 0 0.1 0 0.1 0.1 0.1 0.1 0.2 0 0.1 0 0.1v0.1l0.1 0.5 0.2 1.2 0.2 0.5c0.1 0.4 0.1 0.8 0.2 1.2l0.4 1 0.3 1.1q0.2 0.5 0.3 1c0.1 0.5 0.2 1 0 1.4q-0.1 0.1-0.2 0.2 0 0.1-0.1 0.1-0.1 0.1-0.2 0.1 0 0.1-0.1 0.1c-0.2 0-0.4 0-0.5 0l-0.3-0.1c-0.3-0.2-0.5-0.4-0.8-0.6-0.6-0.4-1.3-0.7-2-1q-0.5-0.2-0.9-0.5-0.4-0.1-0.8-0.3-0.1-0.1-0.2-0.1l0.1 0.1q-0.1-0.1-0.3-0.2-0.3-0.1-0.5-0.2-0.2-0.1-0.4-0.1-0.3-0.1-0.5-0.2-0.2 0-0.3-0.1-0.1-0.1-0.2-0.3 0-0.1-0.1-0.2 0-0.2 0.1-0.3 0-0.2 0.1-0.3 0.1-0.1 0.2-0.2 0.2-0.1 0.3-0.1 0.2 0 0.3 0 0.9 0.3 1.8 0.6h-0.1q0.4 0.2 0.8 0.4l0.6 0.2q0.6 0.3 1.2 0.6 0.7 0.3 1.3 0.7l-0.2-0.7q-0.2-0.5-0.3-0.9l-0.3-0.8q0-0.2-0.1-0.5-0.1-0.2-0.1-0.4-0.1-0.5-0.2-0.9l-0.2-1c-0.1-0.3-0.1-0.7-0.2-1.1q0 0 0-0.1 0-0.1 0.1-0.2 0 0 0.1-0.1 0-0.1 0.1-0.1zm-10-5.6q0.1-0.1 0.2-0.2 0.1-0.1 0.2-0.2 0.2-0.1 0.3-0.1 0.2 0 0.3 0.1 0.2 0.1 0.3 0.2 0.1 0.1 0.1 0.2 0.1 0.2 0.1 0.3 0 0.2-0.1 0.3 0 0.2-0.1 0.3-0.1 0.1-0.3 0.1-0.1 0.1-0.3 0.1c-0.4 0-0.8-0.4-0.8-0.8q0-0.1 0.1-0.3zm2.8-1.7q0.1-0.1 0.2-0.2 0.1-0.1 0.2-0.2 0.2 0 0.3-0.1 0.2 0.1 0.3 0.1 0.2 0.1 0.3 0.2 0.1 0.1 0.1 0.2 0.1 0.2 0.1 0.3 0 0.2-0.1 0.3 0 0.2-0.1 0.3-0.1 0.1-0.3 0.2-0.1 0-0.3 0c-0.4 0-0.8-0.3-0.8-0.8q0-0.1 0.1-0.3zm3 3.9q0.2 0 0.3 0.1 0.1 0 0.3 0.2 0.1 0.1 0.1 0.2 0.1 0.2 0.1 0.3 0 0.1 0 0.2 0 0-0.1 0.1 0 0.1 0 0.2-0.1 0-0.1 0.1c-0.2 0.2-0.4 0.5-0.6 0.7q-0.2 0.2-0.4 0.3-0.2 0.2-0.4 0.3-0.3 0.1-0.5 0.2-0.3 0-0.5 0-0.2 0-0.3 0-0.2 0-0.4-0.1-0.1 0-0.3-0.1-0.2 0-0.3-0.1c-0.4-0.2-0.7-0.5-1.1-0.7-0.1-0.2-0.2-0.4-0.2-0.6q0-0.2 0.1-0.4 0.1-0.2 0.3-0.3 0.2-0.1 0.4-0.1 0.2 0 0.4 0.1l0.1 0.2h0.1q0.3 0.3 0.7 0.5 0 0 0.1 0 0 0 0.1 0 0 0 0.1 0 0 0 0 0.1h0.2q0.1 0 0.1-0.1 0 0 0.1 0 0 0 0.1 0c0.3-0.3 0.7-0.7 1-1 0.1-0.2 0.3-0.3 0.5-0.3zm1.2 9.9q0.1 0 0.1 0z"/>
				<g id="Clip-Path: Clip-Path" clip-path="url(#cp2)">
					<g id="Clip-Path">
						<g id="Layer">
							<path id="Layer" fill-rule="evenodd" class="s1" d="m101.5 5q0.5 0.1 0.9 0.1 0.5 0.1 0.9 0.2 0.5 0.1 0.9 0.3 0.3 0.1 0.6 0.2 0.3 0.1 0.5 0.2 0.3 0.2 0.6 0.3 0.2 0.2 0.5 0.4c0.3 0.2 0.6 0.5 1 0.7q0.5 0.4 1 0.8 0.5 0.4 0.9 0.8 0.3 0.3 0.6 0.7 0.4 0.3 0.6 0.7 0.3 0.3 0.6 0.7 0.3 0.4 0.5 0.8 0.2 0.2 0.3 0.5 0.1 0.3 0.2 0.5 0.1 0.2 0.2 0.4 0.1 0.3 0.1 0.5 0.1 0.2 0.1 0.5 0.1 0.3 0.1 0.6 0.1 0.3 0.1 0.6 0 0.3 0.1 0.6 0 0.3 0 0.6c0.1 0.8 0.1 1.7 0 2.5q0 0.2-0.1 0.4 0 0.3 0 0.5-0.1 0.2-0.2 0.5 0 0.2-0.1 0.5-0.1 0.3-0.3 0.6-0.3 0.5-0.7 1-0.4 0.4-0.9 0.7-0.4 0.4-0.8 0.8l-0.5 0.4q-0.3 0.2-0.5 0.4-0.2 0.1-0.3 0.2-0.2 0.1-0.3 0.2-0.2 0-0.3 0.1-0.2 0.1-0.3 0.1c-0.4 0.2-0.9 0.3-1.3 0.3q-1.3 0.2-2.5 0.2-0.5 0-1 0-0.4 0-0.9-0.1-0.5 0-1-0.1-0.4-0.1-0.9-0.2l-0.5-0.1q-0.2-0.1-0.4-0.2-0.1 0.2-0.3 0.4l-0.5 0.7c-0.6 0.7-1.1 1.4-1.7 2.1q-0.4 0.5-0.9 0.9-0.2 0.3-0.4 0.5l-0.3 0.4q-0.3 0.4-0.5 0.7-0.1 0.3-0.3 0.6c-0.2 0.2-0.4 0.6-0.8 0.7-0.3 0.1-0.7-0.1-0.9-0.4-0.2-0.2-0.2-0.5-0.2-0.7q0-0.4 0-0.8 0.1-0.4 0.1-0.7 0.1-0.4 0.2-0.8 0.1-0.3 0.2-0.7l0.6-2.4 0.3-1.1q0.1-0.6 0.3-1.1l0.1-1.1c0.1-0.4 0.1-0.8 0.2-1.2v-0.1q-0.1 0.1-0.2 0.1-0.2 0.1-0.3 0.1-0.2 0-0.4 0-0.1-0.1-0.2-0.2-0.3-0.3-0.6-0.6-0.3-0.2-0.5-0.5-0.3-0.3-0.5-0.7-0.1-0.3-0.2-0.6-0.1-0.3-0.2-0.6-0.1-0.3-0.2-0.6 0-0.3 0-0.6l-0.1-0.6q0-0.3 0-0.7 0-0.3 0-0.6 0-0.4 0.1-0.7 0-0.3 0.1-0.7c0.2-0.8 0.6-1.6 1-2.4q0.3-0.5 0.6-1.1l1.4-2 0.1-0.2q0.1-0.1 0.1-0.1 0-0.1 0.1-0.1 0 0 0-0.1c0.1-0.1 0.9-0.9 1-1q0.3-0.2 0.5-0.4 0.2-0.2 0.5-0.4 0.2-0.1 0.5-0.3 0.6-0.3 1.2-0.4 0.3-0.1 0.7-0.1 0.3-0.1 0.6-0.1 0.3-0.1 0.6-0.1 0.4 0 0.7 0 0.5 0 0.9 0zm-0.9 1.6q-0.8 0-1.5 0.1-0.2 0-0.4 0-0.1 0-0.3 0.1-0.1 0-0.3 0.1-0.1 0-0.2 0.1-0.3 0.1-0.5 0.2-0.3 0.2-0.5 0.3-0.2 0.2-0.4 0.4-0.3 0.2-0.4 0.4-0.3 0.2-0.5 0.4l-0.1 0.2q-0.2 0.3-0.4 0.6-0.2 0.2-0.4 0.5-0.2 0.2-0.3 0.5-0.2 0.3-0.4 0.6-0.3 0.5-0.6 1-0.3 0.5-0.5 1.1-0.3 0.7-0.5 1.5-0.1 0.6 0 1.1-0.1 0.3 0 0.7 0 0.3 0 0.7 0.1 0.3 0.2 0.7 0.1 0.3 0.2 0.6 0 0.1 0 0.2 0.1 0 0.1 0.1 0.1 0.1 0.1 0.1 0 0.1 0.1 0.2c0.3 0.4 0.7 0.7 1.1 1.1q0 0.1 0.1 0.1 0 0 0 0.1 0.1-0.1 0.2-0.3 0.1-0.1 0.3-0.2 0.1 0 0.3 0 0.1 0 0.3 0 0.1 0.1 0.2 0.2 0.1 0.1 0.1 0.1 0.1 0.1 0.1 0.2 0 0 0.1 0.1 0 0.1 0 0.2 0 0.2-0.1 0.4 0 0.2 0 0.5-0.1 0.2-0.1 0.4 0 0.3-0.1 0.5l-0.1 0.9q-0.1 0.5-0.2 0.9-0.1 0.4-0.2 0.8-0.2 0.9-0.4 1.7l-0.2 1-0.3 0.9-0.1 0.2q0.2-0.2 0.3-0.3c0.3-0.4 0.6-0.7 0.9-1q0.5-0.5 0.9-1l0.5-0.7 0.7-1q0.3-0.4 0.7-0.7 0.1-0.2 0.3-0.3 0.1-0.1 0.1-0.1 0 0 0.1 0 0.1 0 0.1 0 0.1-0.1 0.1-0.1 0.1 0 0.1 0 0.1 0 0.1 0 0.1 0 0.1 0.1c0.2 0 0.4 0.1 0.6 0.2q0.2 0.1 0.4 0.1 0.2 0.1 0.4 0.2 0.3 0 0.5 0.1 0.2 0 0.4 0 1.2 0.2 2.4 0.1 1.1 0 2.3-0.1 0.1 0 0.2-0.1 0.2 0 0.3 0 0.1-0.1 0.3-0.1 0.1-0.1 0.2-0.1 0.5-0.2 0.9-0.5c0.4-0.4 0.8-0.8 1.3-1.2q0.3-0.2 0.7-0.5 0.3-0.3 0.5-0.6 0.2-0.3 0.4-0.6 0-0.2 0.1-0.4 0-0.1 0.1-0.3 0-0.2 0.1-0.3 0-0.2 0-0.4 0.1-0.4 0.1-0.9 0-0.4 0-0.9 0-0.4 0-0.9-0.1-0.5-0.1-0.9-0.1-0.3-0.1-0.5-0.1-0.2-0.1-0.5-0.1-0.2-0.1-0.5-0.1-0.2-0.1-0.5l-0.2-0.5c-0.3-0.5-0.6-1.1-1-1.6q-0.6-0.7-1.3-1.4-0.8-0.7-1.6-1.4-0.6-0.4-1.2-0.8-0.7-0.5-1.4-0.8-0.5-0.2-1-0.3-0.3-0.1-0.6-0.2-0.3 0-0.7-0.1-0.3 0-0.6 0-0.3 0-0.6 0zm-2.3 19.8l-0.1 0.1z"/>
						</g>
					</g>
				</g>
				<path id="Layer" fill-rule="evenodd" class="s1" d="m103.1 12.2q0.1-0.2 0.2-0.3 0.1-0.1 0.3-0.2 0.1 0 0.3 0 0.1 0 0.2 0 0.2 0.1 0.3 0.2 0.1 0.1 0.2 0.3 0 0.1 0 0.3 0 0.1 0 0.2-0.1 0.2-0.2 0.3-0.1 0.1-0.3 0.2-0.1 0-0.2 0c-0.5 0-0.8-0.3-0.8-0.8q0-0.1 0-0.2zm1.9 1.7c0 0.4 0.4 0.7 0.8 0.7q0.1 0 0.3 0 0.1-0.1 0.2-0.2 0.1-0.1 0.2-0.2 0.1-0.2 0.1-0.3 0-0.2-0.1-0.3-0.1-0.2-0.2-0.3-0.1-0.1-0.2-0.2-0.2 0-0.3 0-0.2 0-0.3 0-0.2 0.1-0.3 0.2-0.1 0.1-0.1 0.3-0.1 0.1-0.1 0.3zm-4.2 2.8c-0.4 0.1-0.7 0.5-0.5 0.9q0.2 0.7 0.5 1.4 0.1 0.3 0.3 0.6 0.3 0.3 0.7 0.5c0.4 0.2 0.8 0.2 1.2 0.2q0.2 0 0.3-0.1 0.2 0 0.3-0.1 0.1-0.1 0.1-0.3 0.1-0.1 0.1-0.3c0-0.4-0.4-0.8-0.8-0.8-0.1 0-0.6 0-0.6 0q0-0.1 0-0.1 0 0-0.1 0l-0.1-0.3-0.4-1.1q0-0.1-0.1-0.2-0.1-0.1-0.2-0.2-0.1-0.1-0.2-0.1-0.1-0.1-0.3-0.1-0.1 0-0.2 0.1zm-51.8 39.9q-0.2 0.1-0.3 0.1-0.1 0.1-0.2 0.2-0.2 0-0.2 0.1c-0.3 0.3-0.4 0.6-0.5 0.9q-0.1 0.3-0.1 0.7l-0.1 1.1c0 0.3 0 2.2 0 2.6q-0.1 0.5-0.1 1-0.1 0.6-0.1 1.1-0.1 0.5-0.2 1.1 0 0.6-0.1 1.3-0.1 0.6-0.1 1.2c-0.1 0.8-0.1 1.6-0.1 2.4q-0.1 1.2-0.2 2.4-0.1 0.4-0.1 0.8 0 0.4-0.1 0.8 0 0.3 0 0.7-0.1 0.4-0.1 0.8-0.3 1.6-0.5 3.3-0.3 1.7-0.5 3.5v-0.1l-0.2 1.6q-0.2 1.5-0.4 3-0.1 0.3-0.1 0.6 0 0.3-0.1 0.6 0 0.3 0 0.6-0.1 0.3-0.1 0.6l-0.1 1.3-0.2 1.2-0.1 1.3-0.1 1.1-0.1 1.3-0.1 1.1q-0.2 1.2-0.2 2.4c0 0.8 0 1.6-0.1 2.4-0.1 0.2 0.1 0.4 0.2 0.5q0.1 0.1 0.3 0.2 0.1 0 0.3 0 0.1 0 0.3 0 0.1-0.1 0.2-0.2l0.1-0.1q0.1-0.2 0.1-0.4 0.1-0.2 0.1-0.4 0-0.1 0-0.3 0-0.1 0-0.3 0-0.2 0-0.3l0.1-1.3q0-1.2 0.2-2.5l0.1-1.1q0.1-0.6 0.1-1.3 0.1-0.5 0.1-1.1l0.1-1.3 0.3-2 0.2-1.9q0.2-1.6 0.4-3.1l0.2-1.7-0.1 0.2 0.2-1.5q0.2-1.3 0.4-2.5l0.4-2.5q0.2-1.2 0.3-2.5l0.2-2.5q0.2-1.4 0.2-2.8 0-1.3 0.2-2.7 0.1-0.5 0.1-1 0.1-0.5 0.2-1 0-0.5 0.1-1 0-0.5 0-1l0.1-1.1q0-0.5 0-1.1 0-0.8 0.1-1.7v-0.2c0.1 0 0.8 0 0.9 0q0.2 0 0.4 0 0.2 0 0.4 0.1 0.2 0 0.4 0c0.9 0.1 1.9 0.4 2.8 0.6q0.8 0.2 1.6 0.3c0.5 0.1 1.1 0 1.6 0q0.2 0 0.3-0.1 0.1 0 0.3-0.1 0.1-0.1 0.1-0.3 0.1-0.1 0.1-0.3c0-0.4-0.4-0.8-0.8-0.8l-1 0.1q-0.3 0-0.7-0.1c-0.7-0.1-1.5-0.3-2.2-0.5q-0.6-0.1-1.3-0.2-0.3-0.1-0.6-0.1-0.3-0.1-0.6-0.1-0.3 0-0.6-0.1-0.3 0-0.6 0c-0.1 0-0.7 0-0.8 0zm-3.8 27.6q0 0.1 0 0.2zm1.5 0.5z"/>
				<path id="Layer" fill-rule="evenodd" class="s1" d="m52.9 58.6q0-0.1 0.2-0.2 0.1 0 0.2-0.1 0.1 0 0.2 0 0.2 0 0.4 0.1 0.1 0.1 0.2 0.2 0.1 0.1 0.2 0.3 0 0.2 0 0.4l-0.1 0.4q-0.1 1-0.2 2c0 0.7 0 1.4-0.1 2.1q0 0.6-0.1 1.1l-0.1 1-0.2 2.1q-0.1 1.3-0.2 2.5c0 0.8-0.1 1.6-0.1 2.4-0.1 1.6-0.3 3.2-0.4 4.9q-0.1 1.2-0.2 2.5l-0.2 2.4-0.3 2.5-0.2 2.5q-0.1 1.3-0.2 2.6-0.1 1.3-0.2 2.5l-0.1 1.3-0.2 1.5-0.4 2.2q-0.1 1.2-0.2 2.4l-0.1 1.2q-0.1 0.8-0.2 1.5c-0.1 0.2-0.2 0.4-0.4 0.5q-0.1 0-0.3 0.1-0.1 0-0.3-0.1-0.1 0-0.3-0.1-0.1-0.1-0.2-0.2-0.2-0.3 0-0.6l0.1-1c0.1-1.2 0.2-2.3 0.3-3.5q0.2-0.9 0.3-1.9l0.2-1.6c0.2-1 0.2-1.9 0.3-2.9q0.1-1.4 0.2-2.8 0.1-1.2 0.3-2.5l0.2-2.6 0.2-2.4 0.1-1.3 0.1-1.1 0.5-5.1q0-1.2 0.1-2.3 0-1.2 0.1-2.4l0.3-2.6c0.1-0.8 0.2-1.6 0.2-2.4 0.1-0.8 0.1-1.7 0.1-2.5l0.1-1.3q0.1-0.7 0.3-1.4 0-0.2 0.1-0.3z"/>
				<path id="Layer" fill-rule="evenodd" class="s1" d="m54.7 68.7q0.3 0 0.7 0.1 0.3 0 0.6 0.1 0.3 0 0.6 0.1 0.1 0 0.2 0 0.1 0.1 0.1 0.1 0.1 0.1 0.1 0.1 0.1 0.1 0.1 0.1 0.1 0.2 0.1 0.3 0 0.2 0 0.3-0.1 0.2-0.1 0.3-0.1 0.1-0.3 0.2-0.2 0.2-0.6 0.1l-0.9-0.2q-0.7 0-1.3 0-0.6 0-1.2 0-0.7 0-1.3 0-0.6 0.1-1.3 0.1-0.8 0.1-1.7 0.1c-0.4 0-0.8-0.4-0.8-0.8q0-0.2 0.1-0.3 0.1-0.2 0.2-0.3 0.1-0.1 0.2-0.1 0.2-0.1 0.3-0.1 0.6 0 1.1 0 0.5 0 1-0.1 1-0.1 1.9-0.1c0.2 0 2 0 2.2 0zm-8.4 12.5q-0.1 0.1 0 0.3 0 0.1 0.1 0.3 0 0.1 0.2 0.2 0.1 0.1 0.2 0.1 0.8 0.2 1.5 0.3 0.8 0.1 1.5 0.1h1.3q0.7 0.1 1.3 0.1 1.3 0.3 2.6 0.4l2 0.3c0.2 0 0.4-0.1 0.6-0.2q0.1-0.1 0.2-0.3 0-0.1 0-0.3 0-0.1 0-0.3-0.1-0.1-0.2-0.2l-0.2-0.1q0-0.1-0.1-0.1 0 0-0.1 0 0 0-0.1 0 0 0-0.1 0l-0.5-0.1h0.2l-1.6-0.2c-1.2-0.2-2.3-0.4-3.5-0.5-1.1-0.1-2.2-0.1-3.2-0.2q-0.2 0-0.4 0-0.1-0.1-0.3-0.1-0.2 0-0.3 0-0.2-0.1-0.4-0.1 0 0-0.1 0 0 0-0.1 0 0 0-0.1 0.1-0.3 0.2-0.4 0.5zm42.5-35.1c-0.7 0.1-1.3 0.2-1.9 0.3q-0.3 0.1-0.4 0.3-0.2 0.2-0.2 0.4 0 0.2 0.1 0.4 0.1 0.3 0.3 0.4 0.3 0.1 0.6 0.1l1.3-0.3q0.5 0 1 0h1l2.3 0.2c1.4 0.1 2.8 0 4.3 0.2q0.6 0.1 1.2 0.2c0 0.7 0 1.5 0 2.2-0.1 0.9-0.2 1.7-0.2 2.5l-0.2 2.4q0 1.3-0.1 2.6l-0.2 2.4c0 0.9 0 1.7 0 2.5q-0.1 1.2-0.2 2.5 0 1.2-0.1 2.5 0 0.3 0 0.6 0 0.3 0 0.6-0.1 0.3-0.1 0.6 0 0.3 0 0.5 0 1.3 0 2.5l-0.1 2.5q0 0.9 0 1.9-0.1 0.9-0.1 1.8 0 0.9 0 1.8 0 1 0 1.9c0 0.8 0 4.1 0 4.9q-0.1 1.2-0.2 2.5 0 0.6-0.1 1.2 0 0.6 0 1.2 0 0.6 0 1.2 0 0.6 0 1.2c0 0.8 0 1.6-0.1 2.4q-0.1 0.9-0.1 1.7 0 1 0 1.9c0 0.4 0.3 0.8 0.7 0.8q0.2 0 0.4-0.1 0.1 0 0.2-0.1 0.1-0.1 0.2-0.3 0-0.1 0-0.3 0-1.3 0.1-2.5l0.1-1.2q0-0.6 0-1.2c0-1.6 0-3.2 0.1-4.8q0.1-1.2 0.2-2.5 0.1-1.2 0.1-2.4c0-1.6 0-8.2 0-9.9q0-1.2 0.1-2.4l0.1-1.2q0-0.7 0-1.3 0-2.4 0.2-4.8 0-1.3 0.1-2.5c0-0.8 0.1-1.7 0.1-2.5q0-1.2 0.1-2.5l0.1-2.4 0.1-1.3 0.1-1.2q0-1.3 0.1-2.5c0.1-0.8 0.2-1.7 0.2-2.5q0-0.7-0.1-1.3-0.1-0.3-0.2-0.5-0.1-0.1-0.1-0.1 0-0.1-0.1-0.1 0-0.1-0.1-0.1 0-0.1-0.1-0.1-0.1-0.1-0.3-0.1-0.3-0.1-0.6-0.2-0.6-0.1-1.3-0.2-0.6-0.1-1.2-0.1-0.6 0-1.2 0-0.3 0-0.7 0-0.4-0.1-0.7-0.1-0.4 0-0.7 0-0.4 0-0.8 0-0.7-0.1-1.5-0.1l-0.8-0.1zm9.7 2.2l0.1 0.1z"/>
				<path id="Layer" fill-rule="evenodd" class="s1" d="m87.3 60.2q1 0.1 2.1 0.1l1.9 0.2q1 0.1 2 0.3 1.2 0.1 2.5 0.3c0.4 0.1 0.6 0.6 0.5 1q0 0.2-0.1 0.3-0.1 0.1-0.2 0.2-0.2 0.1-0.3 0.1-0.2 0-0.3 0-0.8-0.2-1.6-0.3l-1-0.1q-0.7-0.1-1.4-0.2-0.7-0.1-1.4-0.2-0.7 0-1.4-0.1-0.7 0-1.4 0-0.5 0-1 0l-1 0.1c-0.2 0.1-0.4-0.1-0.6-0.2q-0.1-0.1-0.2-0.4 0-0.2 0-0.4 0.1-0.2 0.2-0.3 0.2-0.2 0.4-0.2h0.2q0.6-0.1 1.1-0.2c0.1 0 0.8 0 1 0zm6.1 23.1l-2.5 0.1q-1.2 0-2.5 0c-0.8 0-1.6 0.1-2.5 0.2q-0.4 0-0.9 0-0.1 0-0.2 0-0.2 0.1-0.3 0.2-0.1 0.1-0.2 0.3 0 0.1 0 0.3c0 0.4 0.3 0.8 0.8 0.7q0.6 0.1 1.2 0l1.2-0.1q0.3 0 0.7 0 0.3 0 0.6 0 0.3 0 0.6-0.1 0.3 0 0.6 0 0.5 0 1 0 0.5 0 0.9 0 0.5 0 1 0 0.5 0 0.9 0 0.6 0 1.2 0 0.1 0 0.2 0.1 0.1 0 0.2 0 0.1 0 0.1 0 0.1 0 0.2 0c0.2 0 0.4 0 0.6-0.1q0.1 0 0.2-0.2 0.1-0.1 0.2-0.2 0-0.2 0-0.4 0-0.1-0.1-0.2c-0.1-0.2-0.3-0.4-0.5-0.4q-0.2 0-0.5-0.1-0.2 0-0.4 0-0.3 0-0.5 0-0.3-0.1-0.5-0.1z"/>
				<path id="Layer" fill-rule="evenodd" class="s1" d="m91.6 49.5q0-0.1 0.1-0.2 0.1-0.2 0.3-0.2 0.1-0.1 0.3-0.1c0.4 0 0.8 0.4 0.8 0.8q-0.1 0.6 0 1.3v1.1c0 0.8 0.1 1.6 0.1 2.3q0 1.2-0.1 2.3 0 0.6 0 1.2 0 0.6 0 1.1c0 0.8 0.1 1.6 0.1 2.5q0 1.2 0 2.4v5q0 2.4-0.1 4.8l-0.1 1.3q0 0.6 0 1.2v2.6c0 3.3 0.1 6.6 0 9.9q0 1.3 0 2.5-0.1 0.7-0.1 1.3 0 0.7 0 1.3c0 1.7 0 3.4 0.2 5.1v0.5q0.1 0.1 0.1 0.1 0 0.1 0 0.1 0 0.1 0 0.1 0 0.1-0.1 0.1v0.2q-0.1 0.2-0.2 0.3-0.2 0-0.3 0.1-0.2 0-0.3 0-0.2 0-0.3-0.1c-0.2-0.1-0.4-0.3-0.4-0.5q0-0.2 0-0.4-0.1-0.2-0.1-0.4 0-0.2 0-0.5-0.1-0.2-0.1-0.4 0-0.6 0-1.3-0.1-0.6-0.1-1.2 0-0.6 0-1.3 0-0.6 0-1.2l0.1-1.3q0-1.3 0-2.6c0.1-3.3 0.1-6.7 0.1-10 0-1.7-0.1-3.4 0-5q0.1-2.5 0.1-4.9v-7.4c0-0.8 0-1.6-0.1-2.4 0-0.4 0-2.1 0-2.5l0.1-2.3c0-0.9 0-1.7-0.1-2.5 0-0.5 0-2.1 0-2.5q0-0.2 0.1-0.3zm-3.6-0.5q0.1 0 0.3 0.1 0.1 0.1 0.2 0.2 0.1 0.1 0.2 0.2 0.1 0.2 0.1 0.3 0 1.2 0.1 2.4 0 1.2 0 2.3v4.8c0 1.7 0 3.3-0.1 5 0 0.8-0.1 1.6-0.1 2.4v2.5c0 1.7 0 3.4-0.1 5 0 0.9 0 1.7-0.1 2.5 0 0.8 0 1.7 0 2.5q-0.1 1.3-0.2 2.5-0.2 1.2-0.4 2.4l-0.2 1.6-0.1 1.7q-0.1 1.3-0.1 2.5l-0.2 2.4v1.3q-0.1 0.6-0.1 1.2v2.7q0 0.2-0.1 0.3 0 0.2-0.1 0.3-0.1 0.1-0.3 0.1-0.1 0.1-0.3 0.1c-0.4 0-0.8-0.4-0.8-0.8q0.1-1.5 0.1-3.1 0-0.7 0-1.5 0.1-0.7 0.1-1.4l0.1-2.5 0.2-2.4q0.1-1.2 0.2-2.5 0.2-1.2 0.4-2.4 0.1-1.2 0.2-2.4 0.1-1.2 0.1-2.5c0-0.8 0-1.6 0.1-2.5q0.1-2.5 0.1-5v-2.4c0-0.9 0-1.7 0.1-2.5 0-1.6 0.1-3.3 0.1-4.9v-4.8c0-0.8 0-1.7-0.1-2.4q-0.1-1.3-0.1-2.5c0-0.4 0.4-0.8 0.8-0.8z"/>
			</g>
		</g>
	</g>
</svg>