<svg version="1.2" xmlns="http://www.w3.org/2000/svg" viewBox="0 0 150 110" width="150" height="110">
	<title>starter-svg</title>
	<defs>
		<clipPath clipPathUnits="userSpaceOnUse" id="cp1">
			<path d="m0 0h150v110h-150z"/>
		</clipPath>
		<clipPath clipPathUnits="userSpaceOnUse" id="cp2">
			<path d="m16.35 85.8l11.55 1.83-1.54 9.74-11.55-1.83z"/>
		</clipPath>
	</defs>
	<style>
		.s0 { fill: #703bff } 
		.s1 { fill: #1b1b20 } 
	</style>
	<g id="Clip-Path: Clip-Path" clip-path="url(#cp1)">
		<g id="Clip-Path">
			<g id="Layer">
				<path id="Layer" fill-rule="evenodd" class="s0" d="m77.5 18.1q0.6 0.1 1.2 0.2 0.6 0.1 1.2 0.2 0.6 0.1 1.2 0.3c0.6 0.1 1.2 0.3 1.8 0.4l0.9 0.3q0.3 0.1 0.7 0.2 0.3 0.1 0.7 0.2 0.3 0.1 0.7 0.2 0.3 0.1 0.7 0.2l1.5 0.4 0.9 0.2 0.9 0.3q1 0.2 1.8 0.6c0.5 0.2 1 0.4 1.5 0.7l0.3 0.1q0.7 0.4 1.4 0.8c0.6 0.3 1.2 0.7 1.7 1.1 0.6 0.4 1.1 1 1.5 1.4 0.8 0.9 1.6 1.8 2.3 2.7q0.6 0.7 1.2 1.4 0.5 0.8 0.9 1.6 0.5 0.8 0.9 1.7 0.3 0.8 0.6 1.7 0.2 0.5 0.3 0.9 0.1 0.5 0.3 1 0.1 0.4 0.2 0.9 0.1 0.4 0.2 0.9c0.4 2.2 0.8 4.6 1.1 7.3q0 0.4 0 0.9 0.1 0.4 0.1 0.9 0 0.4 0.1 0.9 0 0.4 0 0.9 0 0.5 0 1 0 0.5 0 1-0.1 0.5-0.1 1 0 0.5-0.1 1-0.1 0.8-0.2 1.6-0.2 0.8-0.3 1.6-0.2 0.8-0.4 1.6-0.1 0.8-0.3 1.6l-0.1 0.3-0.3 0.8q-0.3 1-0.8 1.7c-0.3 0.5-0.7 1.1-1.1 1.7q-0.2 0.3-0.4 0.7-0.3 0.3-0.6 0.6-0.2 0.3-0.5 0.6-0.3 0.3-0.7 0.5l-0.1 0.2q-0.2 0.2-0.4 0.4-0.2 0.2-0.4 0.4-0.3 0.2-0.5 0.4-0.2 0.2-0.4 0.4-0.3 0.3-0.7 0.6-0.3 0.2-0.7 0.5-0.4 0.3-0.7 0.5-0.4 0.2-0.8 0.5-0.5 0.2-1.1 0.4-0.6 0.2-1.1 0.4l-1.1 0.3c-1.3 0.4-2.6 0.7-3.7 0.9l-1.7 0.3-0.4 0.1q-0.6 0.1-1.2 0.2h-1l-0.7 0.1-0.6 0.1-1 0.1h-0.4-0.3q-0.2 0.1-0.4 0.1-0.2 0-0.4 0-0.2 0-0.4 0-0.1 0-0.3 0l-0.3-0.1-0.1 0.1-0.1 0.3-0.1 0.1q-0.2 0.4-0.4 0.8l-0.2 0.2v0.1q-0.1 0.2-0.3 0.4-0.1 0.3-0.3 0.5-0.1 0.2-0.3 0.4-0.1 0.3-0.3 0.5l0.1-0.1-0.4 0.6c-0.2 0.4-0.4 0.9-0.6 1.3l-0.2 0.5q-0.3 0.7-0.6 1.4l-0.2 0.4-0.3 0.6-0.5 1.3q-0.3 0.6-0.5 1.3-0.2 0.5-0.4 1-0.2 0.5-0.3 1-0.2 0.5-0.4 1-0.1 0.5-0.3 1l-0.1 0.3-0.4 1.3c-0.1 0.3-0.3 0.7-0.6 0.9-0.3 0.2-0.6 0.3-1 0.2q-0.3 0-0.5-0.2c-0.2-0.2-0.3-0.4-0.4-0.6q-0.1-0.1-0.1-0.1 0-0.1 0-0.2-0.1-0.1-0.1-0.2 0 0-0.1-0.1-0.1-0.5-0.3-1-0.2-0.3-0.3-0.6-0.3-0.8-0.7-1.6l-0.7-1.5-0.2-0.4-0.5-1q-0.4-0.7-0.9-1.4l-0.3-0.4c-0.3-0.5-0.7-1.1-1.1-1.9-0.4-0.7-0.8-1.4-1.2-2l-0.1-0.1q-1-0.1-1.9-0.3l-1-0.2q-0.1 0-0.2-0.1 0 0-0.1 0-0.1 0-0.2-0.1-0.1 0-0.2 0h-0.1v-0.1h-0.3v-0.1l-0.7-0.1q-0.6-0.2-1.2-0.4-0.2-0.1-0.4-0.1-0.1-0.1-0.3-0.1-0.2-0.1-0.3-0.2-0.2 0-0.4-0.1l-0.5-0.1q-0.7-0.2-1.4-0.4l-0.7-0.3q-0.5-0.1-1-0.3c-0.5-0.1-0.8-0.3-1.2-0.4l-0.4-0.2q-0.5-0.2-1-0.4l-0.2-0.1q-0.7-0.3-1.4-0.7-0.4-0.2-0.8-0.4-0.4-0.3-0.7-0.5-0.4-0.3-0.8-0.6-0.3-0.3-0.7-0.6c-0.4-0.4-0.8-0.9-1.3-1.6l-0.3-0.3q-0.4-0.5-0.9-1.1c-0.4-0.6-0.8-1.1-1.1-1.7-0.3-0.5-0.5-1.1-0.6-1.5l-0.1-0.3-0.5-1.4c-0.4-1.2-0.9-2.5-1.2-3.8q-0.1-0.6-0.2-1.3-0.2-0.7-0.2-1.4-0.1-0.7-0.1-1.4-0.1-0.7-0.1-1.4 0-1.1 0.1-2.2 0.1-0.4 0.1-0.9 0.1-0.5 0.2-0.9 0-0.5 0.1-0.9 0.1-0.5 0.1-0.9l0.1-0.2c0.2-1.2 0.4-2.4 0.7-3.6q0.1-0.5 0.2-1 0.2-0.5 0.3-1 0.2-0.5 0.4-1 0.2-0.5 0.4-1l0.3-0.8 0.3-1 0.1-0.1q0.2-0.7 0.5-1.3 0.4-1 0.8-1.7 0.4-0.6 0.8-1.1 0.3-0.6 0.7-1.2 0.4-0.6 0.9-1.2 0.4-0.5 0.8-1.1c0.4-0.3 0.8-0.7 1.3-1.2q0.5-0.5 1-1 0.6-0.5 1.1-1 0.6-0.4 1.1-0.9 0.6-0.4 1.2-0.8 1.1-0.7 2.1-1.3l1.2-0.7q0.2-0.1 0.4-0.2 0.2-0.2 0.4-0.3 0.2-0.1 0.4-0.2 0.2-0.1 0.4-0.2l0.2-0.2q0.4-0.2 0.8-0.4 0.5-0.2 1-0.5 0.6-0.2 1.1-0.4 0.5-0.2 1.1-0.4 0.5-0.2 1.1-0.3l1-0.4 0.7-0.2 1.3-0.4 0.5-0.2q0.9-0.3 1.7-0.5l0.3-0.1 1.5-0.4q0.5-0.1 1-0.2 0.5-0.2 1-0.3 0.5-0.1 1-0.1 0.5-0.1 1-0.1c1-0.1 2.1 0 2.9 0.2q0.6 0.1 1.2 0.2z"/>
				<path id="Layer" fill-rule="evenodd" class="s1" d="m87.5 21.3q0.4 0.1 0.9 0.2 0.5 0.1 0.9 0.1 0.5 0.1 1 0.2c1.2 0.2 2.4 0.5 3.6 0.8q1 0.2 2 0.4 0.5 0.1 1 0.3 0.4 0.1 0.9 0.3 0.5 0.1 1 0.2 0.5 0.2 1 0.3 0.9 0.4 1.7 0.8c1.1 0.5 2.1 1.1 3.2 1.8q0.8 0.4 1.5 1 0.8 0.5 1.4 1.1c1 0.9 2 1.8 2.9 2.8q1.2 1.3 2.4 2.6 0.6 0.7 1.1 1.4 0.3 0.4 0.5 0.8c0.2 0.3 0.3 0.6 0.5 0.9 0.5 1 1 2.1 1.3 3.2q0.3 1 0.4 2c0.1 0.7 0.1 1.4 0.1 2.1q0 1.1-0.1 2.3-0.1 1.3-0.3 2.5-0.3 1.3-0.8 2.5-0.4 1.2-1 2.4-0.7 1.1-1.4 2.1l-1.2 1.5c-0.3 0.5-0.7 1-1.1 1.4q-1.3 1.4-2.9 2.6c-0.3 0.2-0.5 0.4-0.8 0.6q-0.4 0.2-0.7 0.4-0.3 0.2-0.6 0.3-0.4 0.2-0.7 0.4-0.3 0.2-0.7 0.3-0.8 0.4-1.7 0.8c-0.6 0.2-1.1 0.5-1.6 0.7l-3.5 1.4c-1.1 0.5-2.3 1-3.4 1.4q-1 0.3-2.1 0.5-0.7 0.1-1.5 0.3-0.3 0-0.6 0.1-0.1 0.1-0.3 0.2 0 0-0.1 0c-0.5 1-1.1 1.8-1.7 2.7-0.6 0.8-1.1 1.6-1.7 2.4-0.7 0.8-1.4 1.6-2 2.4-0.6 0.8-1.3 1.6-1.8 2.4q-0.4 0.6-0.8 1.3-0.4 0.8-0.7 1.6-0.4 0.8-0.9 1.6-0.2 0.3-0.3 0.6-0.2 0.3-0.4 0.6-0.2 0.3-0.3 0.6-0.2 0.3-0.4 0.6l-0.2 0.2-0.4 0.8q-0.7 1.1-1.4 2.3l-0.6 1.2q-0.2 0.5-0.4 0.8c-0.2 0.4-0.4 0.8-0.7 1-0.3 0.3-0.5 0.4-0.8 0.5q-0.3 0-0.5-0.1-0.2 0-0.4-0.2-0.2-0.1-0.3-0.3-0.1-0.3-0.1-0.5c-0.1-0.3 0-0.7 0.2-0.9q-0.2-0.1-0.4-0.2c-0.2-0.2-0.4-0.5-0.4-0.8v-1c0-0.7-0.1-1.3-0.2-1.9q-0.1-0.9-0.3-1.8-0.3-1.7-0.6-3.5c-0.2-1.3-0.3-2.6-0.4-3.9l-0.1-1.8-0.1-1v-0.6q-0.3-0.1-0.5-0.2-0.3 0-0.5-0.1-0.3-0.1-0.5-0.2-0.2-0.1-0.5-0.1l-1.5-0.5c-2-0.6-4.1-1-6.2-1.3q-1.6-0.3-3.2-0.7-0.6-0.2-1.3-0.4-0.6-0.1-1.2-0.4-0.6-0.2-1.2-0.5-0.6-0.2-1.2-0.5-0.4-0.2-0.8-0.5-0.4-0.2-0.8-0.5-0.4-0.2-0.8-0.5-0.4-0.3-0.8-0.6-0.5-0.4-1.1-0.9-0.5-0.5-1-1.1-0.5-0.5-0.9-1.1-0.5-0.5-0.9-1.1c-0.7-1.1-1.3-2.1-1.9-3.3-0.5-1.2-0.7-2.5-0.7-3.8q0.1-1.1 0.1-2.1c0.1-0.6 0.1-1.3 0.3-1.9q0.1-0.9 0.4-1.8c0.1-0.7 0.3-1.4 0.6-2q0.2-0.5 0.4-0.9 0.2-0.5 0.4-0.9 0.2-0.5 0.4-0.9 0.2-0.5 0.5-0.9 0.8-1.7 1.7-3.3 0.2-0.5 0.5-0.9 0.2-0.5 0.5-0.9 0.2-0.5 0.5-0.9 0.3-0.4 0.5-0.9c0.7-1 1.5-2 2.3-3q0.6-0.8 1.2-1.5 0.7-0.8 1.4-1.5 0.6-0.7 1.3-1.4 0.7-0.7 1.5-1.3 0.7-0.6 1.4-1.1 0.8-0.6 1.6-1.1 0.4-0.3 0.8-0.6 0.4-0.2 0.8-0.5 0.5-0.2 0.9-0.4 0.4-0.3 0.8-0.5 0.9-0.5 1.9-1 0.5-0.2 0.9-0.4 0.6-0.2 1.1-0.4 0.6-0.3 1.1-0.4 0.6-0.2 1.2-0.4 0.5-0.2 1.1-0.4c1.3-0.3 2.6-0.7 3.9-0.8 0.6-0.1 1.2-0.1 1.8-0.1l1.8-0.1q2 0 3.9 0 1 0 2 0.1c0.7 0 1.3 0.1 1.9 0.2q0.5 0.1 1 0.1zm-5.1 2q-1.1 0-2.3 0-1.2 0-2.4 0.1-1.2 0-2.4 0.1c-0.7 0.1-1.5 0.2-2.2 0.4q-2 0.5-3.9 1.2l-1 0.4q-0.5 0.1-0.9 0.3-0.9 0.5-1.7 0.9l-1.8 1q-0.5 0.3-1 0.6-0.6 0.4-1.1 0.7-0.5 0.3-0.9 0.7-0.5 0.3-1 0.7-0.8 0.5-1.4 1.2-0.5 0.4-1 0.9-0.4 0.5-0.9 0.9-0.4 0.5-0.9 1-0.4 0.5-0.8 1-0.9 1.1-1.7 2.2l-0.9 1.2q-0.3 0.5-0.6 0.9-0.8 1.3-1.5 2.7l-1.4 2.6q-0.3 0.7-0.7 1.3-0.3 0.7-0.6 1.4-0.3 0.7-0.6 1.4-0.3 0.7-0.5 1.4-0.1 0.4-0.2 0.7-0.1 0.3-0.1 0.6-0.1 0.3-0.2 0.7 0 0.3-0.1 0.6-0.1 1.4-0.2 2.7 0 0.6 0.1 1.2 0 0.6 0.2 1.2 0 0.2 0.1 0.4 0.1 0.2 0.2 0.4 0 0.2 0.1 0.4 0.1 0.1 0.2 0.3 0.7 1.1 1.4 2.2 0.4 0.6 0.9 1.2l0.7 0.9q0.8 0.7 1.6 1.4c0.5 0.5 1 0.8 1.6 1.2q0.5 0.3 1 0.5 0.5 0.3 1 0.6 0.5 0.2 1.1 0.4 0.5 0.2 1.1 0.4 0.4 0.1 0.8 0.3 0.4 0.1 0.8 0.2 0.4 0.1 0.8 0.1 0.4 0.1 0.8 0.2 1.8 0.4 3.7 0.7 0.4 0.1 0.9 0.2 0.4 0 0.8 0.1 0.5 0.1 0.9 0.2 0.4 0.2 0.9 0.3 1 0.3 2 0.6 0.7 0.3 1.4 0.5 0.4 0.1 0.8 0.2 0.8 0.3 1.2 0.9c0.3 0.5 0.3 1.2 0.4 1.8q0 0.9 0.1 1.8 0.1 1 0.2 1.9l0.2 1.9q0.1 0.9 0.2 1.9c0.2 1.2 0.4 2.3 0.7 3.5 0.1 0.6 0.2 1.2 0.2 1.9l0.1 0.5 0.1-0.2 0.7-1.3q0.4-0.8 0.9-1.5l-0.1 0.2 0.1-0.1 0.2-0.4 0.1-0.1v-0.1l0.7-1.1q0.4-0.6 0.8-1.4 0.5-0.9 0.9-1.8c0.5-1.1 1.1-2.2 1.8-3.2q1.1-1.4 2.3-2.9 0.6-0.6 1.1-1.4 0.6-0.6 1.1-1.3 0.5-0.8 0.9-1.5 0.5-0.7 1-1.4l0.3-0.5q0-0.1 0.1-0.2 0.1-0.1 0.2-0.2 0.1-0.2 0.2-0.3 0.1-0.1 0.2-0.2 0.3-0.2 0.7-0.3 0.3-0.1 0.5-0.2 0.3-0.1 0.6-0.2 0.3 0 0.6-0.1 0.3-0.1 0.6-0.1 0.7-0.1 1.4-0.2c1.1-0.3 2.2-0.8 3.2-1.2l3.3-1.4q0.8-0.3 1.6-0.7 0.7-0.4 1.5-0.7 0.4-0.1 0.8-0.3 0.3-0.2 0.7-0.3 0.4-0.2 0.7-0.4 0.4-0.2 0.7-0.3 1.8-1.1 3.2-2.5 0.6-0.5 1-1 0.5-0.6 1-1.3c0.5-0.7 1.1-1.5 1.6-2.3q1.1-1.7 1.7-3.6 0.1-0.5 0.2-1.1 0.2-0.6 0.2-1.1 0.1-0.6 0.2-1.2 0-0.6 0.1-1.2 0-0.7 0-1.5 0-0.3 0-0.6 0-0.4-0.1-0.7 0-0.3-0.1-0.6 0-0.3-0.1-0.6c-0.4-1.3-0.9-2.6-1.6-3.8q-0.7-1.2-1.8-2.4-0.5-0.6-1-1.2-0.6-0.7-1.2-1.3-0.6-0.6-1.2-1.1-0.6-0.6-1.2-1.1c-0.5-0.4-0.9-0.8-1.4-1.1q-0.6-0.5-1.2-0.9c-0.8-0.5-1.7-1-2.5-1.4q-0.8-0.4-1.6-0.7-0.7-0.3-1.4-0.5-0.6-0.2-1.1-0.3-0.6-0.2-1.1-0.3-0.6-0.2-1.1-0.3-0.6-0.2-1.2-0.3-1.8-0.4-3.7-0.8-1.9-0.3-3.8-0.5-0.9-0.1-1.8-0.2-0.9-0.1-1.8-0.1zm-11.7 51.1q0 0 0 0.1 0.1 0 0.1 0zm-14.1-5.9h-0.1q0.1 0 0.1 0zm21.9 18l-0.1 0.2zm-2.1-1.3v0.1z"/>
				<path id="Layer" fill-rule="evenodd" class="s1" d="m68.5 38.5c0.7 0.1 1.1 0.7 1 1.4-0.1 0.6-0.7 1.1-1.3 1-0.7-0.1-1.1-0.8-1-1.4 0.1-0.6 0.7-1.1 1.3-1zm13.8-2.5c0.7 0.1 1.1 0.7 1 1.4-0.1 0.6-0.7 1.1-1.4 1-0.6-0.1-1.1-0.8-1-1.4 0.1-0.7 0.7-1.1 1.4-1zm-0.1 12.3c0.3-0.4 0.7-0.5 1.1-0.5q0.1 0 0.2 0.1 0.1 0 0.1 0 0.1 0 0.2 0.1 0 0 0.1 0.1c0.3 0.2 0.4 0.5 0.5 0.8q0 0.5-0.3 0.9-0.2 0.3-0.4 0.5-0.2 0.3-0.4 0.5-0.3 0.3-0.5 0.5-0.3 0.2-0.5 0.4l-1 0.6q-0.6 0.3-1.2 0.6-0.3 0.1-0.7 0.2-0.3 0-0.6 0.1-0.3 0-0.6 0-0.4 0-0.7-0.1-0.4 0-0.9-0.2l-1-0.3c-0.5-0.1-1-0.2-1.4-0.4q-0.5-0.2-0.9-0.5-0.3-0.2-0.6-0.4-0.5-0.4-1-0.8c-0.4-0.4-0.8-0.9-1.2-1.4q-0.2-0.3-0.2-0.7 0-0.3 0.2-0.7 0.2-0.3 0.5-0.4 0.3-0.2 0.7-0.1 0.5 0.1 0.8 0.5 0.4 0.5 0.9 1 0.6 0.6 1.3 1 0.3 0.2 0.7 0.4 0.4 0.1 0.7 0.2l1 0.3q0.1 0 0.3 0 0.1 0.1 0.3 0.1 0.1 0 0.3 0.1 0.1 0 0.3 0 0.3 0 0.7-0.1 0.3-0.1 0.6-0.2 0.3-0.2 0.6-0.3 0.3-0.2 0.5-0.4 0.3-0.1 0.6-0.3 0.5-0.6 0.9-1.3zm-60.2 6.9c0.2-0.1 0.5-0.1 0.7-0.1q0.2 0 0.3 0.1 0.1 0 0.2 0.1 0.2 0.1 0.3 0.2 0.1 0.1 0.1 0.2c0.2 0.2 0.4 0.5 0.5 0.7q0.4 0.7 0.9 1.3 0.2 0.3 0.4 0.6 0.2 0.3 0.4 0.6 0.3 0.3 0.5 0.5 0.2 0.3 0.5 0.6c0.6 0.7 1.2 1.5 1.7 2.3 0.5 0.8 1 1.7 1.6 2.5 1.4 2.1 2.7 4.2 4.2 6.2 0.8 1 1.6 2 2.3 3q1.2 1.5 2.3 3.1c0.8 1 1.5 2 2.3 3q1.2 1.5 2.4 2.9 1.2 1.5 2.2 3.1c0.4 0.5 0.7 1 1 1.5q0.7 0.8 1.3 1.5c0.2 0.3 0.3 0.6 0.2 0.9q0 0.3-0.1 0.5-0.1 0.2-0.3 0.3-0.2 0.2-0.5 0.2-0.2 0.1-0.4 0c-0.4 0-0.6-0.2-0.8-0.4q-0.5-0.6-1.1-1.3-0.4-0.5-0.8-1.2-0.2-0.3-0.4-0.6-0.2-0.3-0.4-0.6-0.2-0.3-0.4-0.6-0.2-0.3-0.4-0.6c-0.6-0.7-1.2-1.5-1.8-2.2q-0.2-0.3-0.5-0.6-0.2-0.2-0.4-0.5-0.2-0.3-0.5-0.6-0.2-0.2-0.4-0.5c-1.6-2.1-3.1-4.2-4.7-6.3-0.7-0.9-1.5-1.8-2.2-2.8q-0.5-0.6-0.9-1.2-0.4-0.5-0.8-1.1-0.4-0.6-0.7-1.2-0.4-0.6-0.8-1.1-0.5-0.8-1.1-1.6c-0.6-1-1.2-2.1-1.8-3q-0.6-0.8-1.1-1.5c-0.4-0.4-0.8-0.8-1.2-1.3q-0.2-0.3-0.4-0.5-0.2-0.3-0.4-0.6-0.2-0.3-0.4-0.6-0.2-0.2-0.4-0.5l-0.2-0.4q-0.2 0-0.5-0.2c-0.5-0.4-0.6-1.2-0.2-1.7 0.2-0.2 0.4-0.4 0.7-0.5zm-2 16.1q0.1 0.1 0.2 0.1 0 0 0.1 0 0.1 0.1 0.1 0.1 0.1 0 0.2 0.1c0.8 0.7 1.5 1.6 2.2 2.5q0.8 1.1 1.7 2.2 0.8 1 1.7 2.1c0.6 0.6 1.1 1.3 1.7 1.9q0.5 0.5 1 1l1.1 1.1c0.8 0.7 1.5 1.5 2.2 2.3l1.8 1.8q1 1.1 2.1 2.3c0.2 0.2 0.3 0.6 0.2 0.9q0 0.3-0.2 0.5-0.2 0.3-0.5 0.4-0.4 0.1-0.7 0-0.3 0-0.5-0.2l-0.3-0.2-1.5-1.6-1.6-1.7q-0.9-1-1.8-2l-0.4-0.3q-0.6-0.7-1.3-1.3-0.6-0.6-1.2-1.2-0.7-0.8-1.4-1.6-0.5-0.6-1.1-1.2-0.2-0.4-0.5-0.7-0.3-0.4-0.6-0.7-0.3-0.4-0.6-0.7-0.2-0.4-0.5-0.7-1.1-1.4-2.2-2.7-0.2-0.2-0.4-0.3c-0.5-0.5-0.6-1.2-0.1-1.7 0.2-0.4 0.7-0.5 1.1-0.5zm104.1-9.2q0.3 0 0.5 0 0.2 0 0.4 0.2 0.2 0.1 0.4 0.3c0.4 0.5 0.3 1.3-0.3 1.7l-0.5 0.4c-0.8 0.8-1.7 1.7-2.6 2.5l-2.5 2.3q-1.4 1.4-2.9 2.7c-0.8 0.8-1.7 1.6-2.6 2.4-1.8 1.7-3.6 3.5-5.4 5.3-1 0.9-1.9 1.9-2.8 2.9-0.9 0.9-1.8 1.7-2.6 2.6q-0.7 0.7-1.4 1.4-0.8 0.8-1.6 1.5-0.8 0.7-1.6 1.3-0.6 0.5-1.3 1.1-0.6 0.6-1.2 1.3c-0.2 0.2-0.5 0.4-0.8 0.4-0.3 0.1-0.7 0-0.9-0.2-0.5-0.4-0.6-1.2-0.2-1.7q0.7-0.8 1.3-1.4c0.5-0.5 1-0.9 1.5-1.3 0.9-0.7 1.7-1.4 2.6-2.2 0.8-0.8 1.7-1.7 2.5-2.5q1.3-1.3 2.6-2.7 1.4-1.5 2.9-2.9l2.7-2.7c1-0.9 1.9-1.9 3-2.8l1.3-1.2 1.3-1.1c0.8-0.8 1.6-1.7 2.5-2.5 0.8-0.8 1.7-1.5 2.5-2.3q0.6-0.5 1.2-1.1c0.5-0.5 1-1.1 1.6-1.5q0.2-0.1 0.4-0.2zm4.5 10.9c0.4 0.1 0.7 0.3 0.9 0.5q0 0.1 0.1 0.2 0 0.1 0.1 0.2 0 0.2 0 0.3 0 0.1 0 0.2-0.1 0.5-0.5 0.8-0.3 0.2-0.5 0.5-0.3 0.2-0.5 0.5-0.3 0.3-0.5 0.5-0.3 0.3-0.5 0.5l-1.1 1.1c-0.3 0.4-0.7 0.7-1 1q-1 0.9-2.1 1.8c-0.7 0.6-1.4 1.1-2.1 1.7-0.9 0.8-1.9 1.6-2.9 2.5-0.9 0.7-1.9 1.5-2.8 2.3q-0.7 0.6-1.5 1.2l-1.5 1.1c-0.5 0.3-1 0.7-1.5 1.1q-0.8 0.6-1.8 1.1c-0.2 0.1-0.5 0.2-0.9 0.2q-0.2 0-0.4-0.2-0.2-0.1-0.3-0.3-0.2-0.2-0.2-0.4-0.1-0.2-0.1-0.5c0.1-0.3 0.3-0.6 0.5-0.8q1.3-0.7 2.4-1.5 1-0.8 2.1-1.6c1-0.7 1.9-1.5 2.9-2.3 1-0.8 2-1.6 3-2.5q1.4-1.2 2.8-2.4 1.3-1 2.6-2.1 0.1 0 0.1-0.1 0.5-0.4 1-0.9l2-2.2c0.5-0.4 0.9-0.9 1.4-1.2 0.2-0.3 0.5-0.3 0.8-0.3zm-5.2 4.6q-0.1 0.1-0.1 0.1l0.1-0.1q0 0 0 0zm6.6 8.6q0.5 0.1 0.8 0.5c0.4 0.5 0.3 1.3-0.2 1.7-2 1.3-3.8 2.9-5.6 4.4-0.9 0.7-1.8 1.3-2.6 1.9-0.5 0.3-0.9 0.6-1.3 1q-0.7 0.6-1.4 1.2-0.3 0.2-0.6 0.2-0.4 0-0.7-0.2-0.3-0.2-0.5-0.5-0.1-0.3-0.1-0.7c0.1-0.3 0.3-0.6 0.5-0.8q0.7-0.6 1.4-1.2 0.6-0.5 1.2-0.9c0.9-0.7 1.8-1.2 2.7-1.9 1.8-1.5 3.6-3.1 5.5-4.5 0.3-0.1 0.6-0.2 0.9-0.2z"/>
				<g id="Clip-Path: Clip-Path" clip-path="url(#cp2)">
					<g id="Clip-Path">
						<g id="Layer">
							<path id="Layer" fill-rule="evenodd" class="s1" d="m17.5 86c0.4 0.1 0.8 0.3 1 0.7q0 0.3 0.1 0.5 0.1 0.2 0.2 0.4 0.1 0.2 0.3 0.4 0.1 0.2 0.3 0.3l0.1 0.1c0.5 0.6 1.1 1.1 1.7 1.6q0.7 0.6 1.4 1.2 0.6 0.7 1.3 1.3 0.6 0.7 1.2 1.4 0.6 0.7 1.2 1.4c0.2 0.2 0.3 0.6 0.2 0.9q0 0.3-0.3 0.6-0.2 0.3-0.6 0.4-0.3 0-0.7-0.1-0.3-0.1-0.5-0.4-1-1.1-1.9-2.2c-1-1-1.9-1.8-2.9-2.7-0.5-0.4-1-0.8-1.4-1.3l-0.6-0.6c-0.2-0.2-0.4-0.4-0.6-0.7q-0.4-0.8-0.8-1.6c-0.2-0.6 0.1-1.3 0.7-1.6q0.3-0.1 0.6 0z"/>
						</g>
					</g>
				</g>
				<path id="Layer" fill-rule="evenodd" class="s1" d="m12.2 48.1c0.2 0 0.4 0.1 0.6 0.1q0 0.1 0.1 0.1 0 0 0.1 0 0 0.1 0 0.1 0.1 0 0.1 0.1 0.2 0 0.3 0.2 0.2 0.1 0.3 0.2 0.1 0.2 0.2 0.3 0.1 0.2 0.2 0.3 0.2 0.4 0.2 0.8c0 0.3 0 0.5-0.1 0.8q0 0.3-0.1 0.6-0.1 0.2-0.2 0.5 0 0.3-0.1 0.5-0.1 0.3-0.2 0.6c-0.4 0.5-0.8 1-1.5 1.2q-0.2 0.1-0.5 0.1-0.2 0-0.4 0-0.3 0-0.5 0-0.2-0.1-0.4-0.2-0.8-0.2-1.4-0.8-0.2-0.1-0.3-0.3-0.1-0.1-0.2-0.3-0.1-0.2-0.1-0.3-0.1-0.2-0.2-0.4v-0.4c0-0.3 0-0.7 0.1-1q0-0.3 0.1-0.6 0.3-0.6 0.5-1.2c0.3-0.6 1-0.9 1.6-0.6q0.2-0.1 0.4-0.2 0.3-0.1 0.7-0.2 0.1 0 0.3 0zm-0.5 2.4q-0.1 0.1-0.2 0.1-0.1 0-0.2 0-0.2 0-0.3 0-0.1 0-0.2-0.1-0.1 0.4-0.2 0.7-0.1 0.2-0.1 0.5v0.1c0.1 0.1 0.3 0.3 0.3 0.3q0.1 0 0.1 0 0 0 0.1 0 0 0.1 0.1 0.1 0 0 0.1 0 0.1 0 0.1 0h0.1q0.1-0.2 0.2-0.4 0-0.2 0.1-0.4 0-0.2 0.1-0.5 0-0.2 0.1-0.4zm126.4 7q0.2 0 0.3 0 0.1 0 0.2 0 0.1 0 0.2 0.1 0.1 0 0.2 0 0.1 0.1 0.2 0.1 0 0 0.1 0.1 0.1 0 0.1 0 0.1 0.1 0.1 0.1 0.2 0.2 0.3 0.3 0.1 0.1 0.2 0.3 0.2 0.2 0.2 0.3 0.1 0.2 0.2 0.3c0.2 0.4 0.3 0.9 0.2 1.2-0.1 0.3-0.1 0.6-0.3 0.9-0.2 0.3-0.4 0.6-0.7 0.9q-0.2 0.1-0.3 0.2-0.2 0.1-0.3 0.2-0.2 0-0.3 0.1-0.2 0.1-0.4 0.1c-0.2 0.1-0.5 0.2-0.8 0.2-0.4 0-0.9 0-1.2-0.2-0.5-0.2-0.8-0.5-1.1-0.9q-0.1-0.2-0.1-0.3-0.1-0.2-0.1-0.4-0.1-0.1-0.1-0.3 0-0.2 0-0.4 0.1-0.5 0.4-1l0.2-0.4c0.2-0.2 0.3-0.4 0.6-0.6 0.1-0.2 0.3-0.4 0.6-0.5 0.5-0.1 0.9-0.4 1.4-0.4zm-0.5 2.6l-0.1 0.3h0.1q0.2 0 0.4-0.1v-0.1l0.2-0.2h-0.1zm-127.6 14.6c0.7 0.1 1.1 0.8 1 1.4-0.1 0.7-0.7 1.1-1.3 1-0.7-0.1-1.1-0.7-1-1.4 0.1-0.6 0.7-1.1 1.3-1zm127.7 3.2c0.6 0.1 1.1 0.8 1 1.4-0.1 0.7-0.7 1.1-1.4 1-0.6-0.1-1.1-0.7-1-1.4 0.1-0.6 0.7-1.1 1.4-1zm-10.7-38.6c0.3-0.2 0.6-0.3 0.9-0.2q0.2 0 0.3 0 0.1 0.1 0.2 0.1 0.1 0.1 0.2 0.2 0.1 0.1 0.1 0.1 0.4 0.5 0.8 0.9 0.4 0.5 0.7 0.9 0.4 0.5 0.7 0.9 0.4 0.5 0.7 1c0.3 0.4 0.5 0.8 0.8 1.1q0.3 0.5 0.3 0.9-0.1 0.5-0.5 0.8-0.2 0.1-0.4 0.2-0.2 0.1-0.4 0.1-0.2-0.1-0.4-0.1-0.1-0.1-0.3-0.2l-0.2-0.3c-0.3-0.3-0.6-0.8-0.9-1.2q-0.3-0.5-0.7-0.9-0.3-0.5-0.6-0.9-0.4-0.4-0.8-0.9-0.3-0.4-0.7-0.8c-0.2-0.3-0.3-0.6-0.2-0.9q0-0.1 0-0.3 0.1-0.1 0.1-0.2 0.1-0.1 0.2-0.2 0.1 0 0.2-0.1zm10.2 21.1zm-125.5-10h-0.1zm125.4 10v0.1z"/>
				<path id="Layer" fill-rule="evenodd" class="s1" d="m132.2 39.4q0.4 0.1 0.7 0.5c0.4 0.5 0.3 1.3-0.2 1.7q-0.8 0.5-1.5 1.1-0.4 0.4-0.8 0.9-0.5 0.6-1 1.1c-0.3 0.3-0.5 0.4-0.9 0.5-0.3 0-0.6-0.1-0.8-0.3-0.3-0.2-0.5-0.5-0.5-0.8 0-0.3 0.1-0.7 0.3-0.9q0.5-0.5 0.9-1c0.3-0.3 0.5-0.6 0.7-0.8 0.4-0.4 0.7-0.7 1.1-1q0.5-0.4 1-0.8c0.3-0.1 0.6-0.2 1-0.2zm-105.5-1.7c-0.1 0.7 0.3 1.3 1 1.4 0.6 0.1 1.2-0.4 1.3-1 0.1-0.7-0.3-1.3-1-1.4-0.6-0.1-1.2 0.4-1.3 1zm82.8-25.5c-0.1 0.7 0.4 1.3 1 1.4 0.7 0.1 1.3-0.4 1.4-1 0.1-0.7-0.4-1.3-1-1.4-0.7-0.1-1.3 0.4-1.4 1zm-31-3.1c-0.1 0.7 0.4 1.3 1 1.4 0.7 0.1 1.3-0.4 1.4-1 0.1-0.7-0.4-1.3-1-1.4-0.7-0.1-1.3 0.4-1.4 1zm18.2-0.9c-0.5 0.7-0.9 1.4-1.4 2-0.6 0.7-1.2 1.4-1.8 2-0.2 0.2-0.3 0.6-0.2 0.9q0 0.3 0.1 0.5 0.1 0.2 0.3 0.3 0.2 0.2 0.4 0.2 0.2 0.1 0.5 0.1c0.3-0.1 0.5-0.2 0.8-0.5q0.9-0.9 1.7-1.9c0.5-0.7 1-1.4 1.5-2 0.4-0.6 0.3-1.3-0.2-1.7q-0.1-0.1-0.1-0.1-0.1-0.1-0.2-0.1 0 0-0.1-0.1-0.1 0-0.2 0c-0.4-0.1-0.8 0.1-1.1 0.4zm-51.7 9.4q-0.1 0.1-0.1 0.2-0.1 0.1-0.2 0.2 0 0.1-0.1 0.2 0 0.1 0 0.2c-0.1 0.4 0 0.6 0.2 0.9q0.2 0.4 0.5 0.9c0.2 0.2 0.4 0.4 0.5 0.6q0.6 0.8 1.2 1.5c0.3 0.3 0.5 0.5 0.8 0.5 0.3 0.1 0.7 0 0.9-0.2 0.5-0.4 0.7-1.2 0.3-1.7l-1.2-1.5-0.5-0.6q-0.3-0.4-0.6-0.9c-0.1-0.3-0.5-0.4-0.8-0.5-0.3 0-0.6 0-0.9 0.2zm-15.4 2.5q-0.3 0.1-0.5 0.2-0.2 0.1-0.3 0.3-0.2 0.2-0.3 0.4 0 0.2 0 0.5c0 0.2 0.2 0.6 0.4 0.8q0.5 0.3 1 0.7 0.5 0.3 0.9 0.7 0.4 0.3 0.7 0.6 0.4 0.3 0.7 0.7 0.4 0.3 0.7 0.7 0.3 0.3 0.6 0.7c0.2 0.3 0.5 0.5 0.8 0.5q0.2 0 0.5 0 0.2-0.1 0.4-0.2 0.2-0.2 0.3-0.4 0.2-0.2 0.2-0.4c0-0.3 0-0.7-0.2-0.9l-1.1-1.2q-0.7-0.7-1.3-1.3c-0.4-0.4-0.8-0.8-1.2-1.1q-0.7-0.5-1.4-1-0.1-0.1-0.2-0.1 0 0-0.1-0.1-0.1 0-0.2 0 0-0.1-0.1-0.1-0.2 0-0.3 0z"/>
				<path id="Layer" fill-rule="evenodd" class="s1" d="m34.8 19.2q0.2 0 0.4 0.2 0.2 0.1 0.3 0.3 0.1 0.2 0.2 0.5 0 0.5-0.3 0.9-0.4 0.5-0.8 1.1-0.4 0.5-0.8 1-0.4 0.5-0.8 1.1-0.4 0.5-0.9 1c-0.4 0.5-1.2 0.6-1.7 0.2-0.5-0.5-0.6-1.2-0.2-1.7q0.5-0.6 0.9-1.1 0.4-0.5 0.8-1 0.5-0.5 0.9-1.1 0.4-0.5 0.7-1c0.2-0.3 0.6-0.4 0.8-0.5q0.3 0 0.5 0.1zm84.2-0.3q0.2 0 0.3 0.1 0.2 0 0.3 0.1 0.2 0.1 0.3 0.1 0.2 0.1 0.3 0.2c0.6 0.6 0.7 1.4 0.6 2.2q0 0.4-0.2 0.8-0.1 0.4-0.4 0.8-0.3 0.3-0.7 0.5-0.3 0.3-0.8 0.4-0.3 0.1-0.7 0.1h-0.6c-0.3-0.1-0.5-0.1-0.7-0.2-0.2-0.1-0.4-0.2-0.5-0.3-0.2-0.2-0.4-0.4-0.5-0.7-0.1-0.1-0.1-0.3-0.1-0.5q-0.1-0.4 0-0.9c0.2-0.9 0.8-1.6 1.4-2.3q0.1-0.1 0.2-0.2 0.2-0.1 0.3-0.2 0.2 0 0.4 0 0.2 0 0.3 0 0.2 0 0.3 0c0.2 0 0.3 0 0.5 0zm-0.8 2.8q0.1 0 0.1 0 0 0 0-0.1l0.1-0.2zm-0.5 0q0 0.1 0 0.1zm1.3-0.5h-0.1z"/>
			</g>
		</g>
	</g>
</svg>