<svg version="1.2" xmlns="http://www.w3.org/2000/svg" viewBox="0 0 150 110" width="150" height="110">
	<title>team-svg</title>
	<defs>
		<clipPath clipPathUnits="userSpaceOnUse" id="cp1">
			<path d="m116.7 10.5h10.25v47.67h-10.26v-47.67z"/>
		</clipPath>
		<clipPath clipPathUnits="userSpaceOnUse" id="cp2">
			<path d="m90.48 5h3.91v4.14h-3.91z"/>
		</clipPath>
	</defs>
	<style>
		.s0 { fill: #1b1b20 } 
		.s1 { fill: #fffcef } 
	</style>
	<path id="Layer" fill-rule="evenodd" class="s0" d="m114.3 79.3l0.1-1.3v1.3h-0.1z"/>
	<path id="Layer" fill-rule="evenodd" class="s1" d="m91.2 11.2q0.2 0 0.4 0.1 0.2 0 0.4 0 0.2 0 0.4 0.1 0.2 0 0.4 0 0.3 0 0.6 0.1 0.2 0 0.5 0.1 0.3 0 0.6 0.1 0.3 0 0.5 0l1.9 0.3q0.4 0.1 0.7 0.1 0.4 0.1 0.7 0.1 0.4 0.1 0.7 0.1 0.4 0.1 0.7 0.2 0.2 0 0.4 0 0.1 0.1 0.3 0.1 0.1 0.1 0.3 0.1 0.1 0.1 0.3 0.1 0.7 0.2 1.3 0.5l0.1 0.1q0.8 0.3 1.6 0.6 0.7 0.2 1.4 0.4l0.5 0.1q0.3 0.1 0.7 0.2 0.3 0.1 0.6 0.3 0.4 0.1 0.7 0.3 0.3 0.1 0.6 0.3 0.2 0.2 0.5 0.3 0.2 0.2 0.4 0.3 0.3 0.2 0.5 0.4 0.2 0.2 0.4 0.3l0.1 0.1q0.2 0.1 0.4 0.3c0.7 0.8 1.3 1.6 1.8 2.3q0.4 0.7 0.8 1.2v0.2q0.1 0.1 0.2 0.3 0.1 0.1 0.2 0.3 0 0.1 0.1 0.3 0.1 0.2 0.1 0.3 0.3 0.6 0.5 1.2v0.1 0.1l0.4 1.3c0.3 0.9 0.6 1.8 0.7 2.7l0.2 1.3v0.1q0.1 0.6 0.2 1.1 0 0.5 0.1 1.1 0.1 0.5 0.1 1.1 0.1 0.5 0.1 1 0.1 0.4 0.1 0.7 0 0.4 0.1 0.8 0 0.3 0 0.7 0 0.3 0 0.7 0 0.7 0 1.4 0 0.8 0 1.5 0 0.7-0.1 1.4 0 0.8 0 1.5l-0.1 0.8-0.1 0.6q0 0.4 0 0.8-0.1 0.4-0.1 0.7-0.1 0.4-0.2 0.8-0.1 0.3-0.2 0.7-0.1 0.5-0.2 1-0.2 0.5-0.3 1-0.2 0.5-0.4 1-0.1 0.5-0.3 1-0.2 0.5-0.4 1-0.2 0.5-0.4 1-0.3 0.4-0.6 0.9-0.2 0.5-0.6 0.9c-0.3 0.4-0.6 0.8-0.9 1.2l-0.2 0.3-0.6 0.8c-0.2 0.3-0.5 0.7-0.8 1q-0.5 0.3-0.9 0.7-0.4 0.3-0.9 0.7-0.4 0.3-0.9 0.6-0.4 0.4-0.9 0.6-0.6 0.4-1.2 0.7-0.5 0.2-1 0.4-0.5 0.3-1 0.5-0.5 0.2-1 0.4-0.5 0.2-1 0.4-0.6 0.2-1.2 0.4h-0.1q-1.2 0.4-2.8 0.6-1.5 0.3-2.9 0.3h-0.2q-1.2 0.1-2.3 0.1h-0.2c-0.8 0-1.9 0-2.9 0-0.9-0.1-1.8-0.1-2.8-0.2l-0.5-0.1-0.7-0.1q-0.8 0-1.5-0.2h-0.1q-0.7-0.1-1.2-0.3-0.4-0.1-0.8-0.2-0.4-0.1-0.8-0.2-0.3 0-0.7-0.1-0.4-0.1-0.8-0.2-0.4-0.1-0.8-0.2-0.9-0.1-1.7-0.4l-0.9-0.2-2.6-0.6h-0.1c-0.7-0.2-1.7-0.4-2.6-0.5q-0.7-0.1-1.4-0.1c-0.5-0.1-1.1-0.1-1.6-0.2h-0.3l-1.3-0.1-0.1-0.1q-0.4 0-0.8-0.1-0.4-0.1-0.8-0.2c-0.5-0.1-0.9-0.2-1.3-0.4q-0.6-0.2-1.2-0.5l-0.2-0.1-0.8-0.3q-0.8-0.4-1.7-0.8c-0.8-0.4-1.6-1-2.3-1.5l-0.6-0.5-0.5-0.3q-0.5-0.4-1-0.7l-0.1-0.1c-1-0.6-1.7-1.1-2.4-1.7q-0.2-0.3-0.5-0.5-0.3-0.3-0.5-0.6-0.3-0.3-0.5-0.6-0.2-0.3-0.4-0.6-0.3-0.4-0.6-0.9-0.3-0.4-0.5-0.9-0.2-0.5-0.4-1-0.3-0.4-0.4-0.9-0.3-0.7-0.4-1.4-0.4-1.4-0.5-2.8c-0.1-0.8-0.1-1.7-0.1-2.5v-0.3q0.1-0.3 0.1-0.7 0-0.3 0-0.7 0-0.4 0-0.7 0-0.4 0-0.8c0.1-0.9 0.2-1.9 0.4-2.9q0-0.3 0.1-0.7 0.1-0.3 0.1-0.7 0.1-0.3 0.2-0.6 0.1-0.4 0.2-0.7 0.1-0.2 0.1-0.4 0.1-0.2 0.2-0.4 0.1-0.2 0.1-0.3 0.1-0.2 0.2-0.4l0.1-0.2q0.2-0.3 0.3-0.6 0.2-0.4 0.3-0.7 0.2-0.3 0.4-0.6 0.1-0.3 0.3-0.6 0.2-0.3 0.3-0.5 0.2-0.3 0.3-0.6 0.2-0.2 0.3-0.5 0.2-0.3 0.3-0.5 0.2-0.3 0.4-0.6 0.1-0.3 0.3-0.6 0.2-0.3 0.4-0.5 0.2-0.3 0.4-0.6l0.4-0.4 0.4-0.6 0.9-1.1q0.2-0.3 0.5-0.5 0.3-0.3 0.6-0.6 0.4-0.3 0.7-0.5l0.5-0.3 0.3-0.3q0.2-0.1 0.4-0.2 0.1-0.2 0.4-0.3 0.2-0.1 0.4-0.2 0.2-0.1 0.4-0.2 0.2 0 0.3 0 0.2-0.1 0.3-0.1 0.2 0 0.3 0 0.2 0 0.4 0l0.1-0.1q0.1-0.1 0.2-0.2 0.1 0 0.2-0.1 0.2 0 0.3-0.1 0.1-0.1 0.2-0.1 0.1-0.1 0.3-0.2 0.2-0.1 0.3-0.2 0.2-0.1 0.4-0.2 0.2-0.1 0.4-0.1l0.5-0.2h0.1q0.5-0.1 0.9-0.3h0.2q0.7-0.2 1.3-0.3l1.1-0.3 1.3-0.3 0.5-0.1c0.8-0.2 1.6-0.4 2.4-0.5q0.6 0 1.1-0.1 0.8-0.1 1.5-0.2c0.7-0.1 1.3-0.1 1.9-0.3q0.7-0.1 1.4-0.3l0.3-0.1 0.7-0.2 1-0.2 1-0.3 0.7-0.1 1.2-0.3 1.4-0.4q1.4-0.3 2.8-0.3h1q0.3 0 0.6 0 0.4 0 0.7 0 0.3 0 0.6 0 0.4 0 0.7 0h0.9q0.7 0 1.2 0z"/>
	<path id="Layer" fill-rule="evenodd" class="s0" d="m58.3 35.7h0.1q0.9 0 1.8 0.1 0.8 0 1.7 0.2 0.8 0.1 1.7 0.3 0.8 0.1 1.7 0.4 0.5 0.1 0.9 0.3 0.5 0.2 1 0.4 0.5 0.2 0.9 0.4 0.5 0.2 1 0.4 0.5 0.3 1.1 0.7 0.5 0.4 1 0.8 0.4 0.5 0.9 1 0.4 0.5 0.7 1l0.3 0.6 0.3 0.5q0.2 0.3 0.4 0.7 0.1 0.2 0.2 0.6 0-0.1 0 0h0.1q0.1 0.4 0.2 0.7 0.2 0.4 0.3 0.7 0.2 0.9 0.3 1.7 0 0.8 0.1 1.5c0 0.5 0 1-0.1 1.5q0 0.7-0.2 1.4l-0.5 1.2c-0.2 0.5-0.3 0.9-0.6 1.3q-0.4 0.6-0.9 1.1-0.1 0.2-0.3 0.4-0.1 0.1-0.3 0.3-0.1 0.1-0.3 0.3-0.2 0.1-0.4 0.3-0.2 0.1-0.4 0.3-0.1 0.1-0.3 0.2-0.2 0.1-0.4 0.1-0.2 0.1-0.3 0.2-0.2 0.1-0.4 0.2c-0.2 0-0.5 0-0.6 0q-0.3-0.1-0.5-0.3-0.5-0.4-0.8-0.8-0.3-0.3-0.3-0.6 0-0.1 0-0.2 0.1-0.1 0.1-0.2 0-0.1 0.1-0.1 0-0.1 0.1-0.2c0.3-0.3 0.9-0.4 1.3 0l0.4 0.5q0.5-0.3 1-0.6 0.5-0.4 0.9-0.9 0.3-0.4 0.7-0.9 0.3-0.3 0.4-0.8 0.2-0.5 0.4-1 0.1-0.1 0.1-0.3 0.1-0.1 0.1-0.2 0-0.2 0.1-0.3 0-0.1 0-0.3c0.1-0.5 0.1-1.1 0-1.7q0-0.8-0.1-1.6 0-0.2-0.1-0.5 0-0.3-0.1-0.6-0.1-0.3-0.2-0.6-0.1-0.2-0.2-0.5l0.1 0.2-0.1-0.3q-0.4-0.8-0.9-1.6-0.4-0.6-0.8-1.2-0.2-0.4-0.5-0.7-0.3-0.2-0.6-0.5-0.4-0.3-0.7-0.5-0.3-0.2-0.7-0.4-0.5-0.2-0.9-0.5-0.5-0.2-1-0.4-0.5-0.2-1-0.3-0.5-0.2-1-0.3-0.6-0.2-1.3-0.3-0.7-0.2-1.3-0.3-0.7 0-1.4-0.1-0.6-0.1-1.3-0.1c-0.9 0-1.8 0-2.7 0.1l-0.6 0.2q-0.4 0-0.8 0.1-0.7 0.2-1.3 0.5-0.9 0.4-1.6 0.8-0.5 0.2-1 0.5-0.4 0.3-0.7 0.5-0.3 0.3-0.6 0.5-0.3 0.3-0.5 0.5-0.3 0.3-0.5 0.6-0.3 0.3-0.5 0.6-0.3 0.3-0.5 0.7-0.2 0.3-0.5 0.7-0.2 0.4-0.4 0.8-0.2 0.4-0.4 0.8-0.1 0.1-0.1 0.3-0.1 0.1-0.1 0.2 0 0.2-0.1 0.4 0 0.1 0 0.3-0.2 1.2 0 2.4 0 0.4 0.1 0.9 0 0 0 0.1 0.1 0.1 0 0.2 0 0.1 0 0.2 0 0.1-0.1 0.2-0.1 0.1-0.2 0.2-0.1 0.1-0.3 0.2-0.2 0-0.4 0-0.2 0-0.3-0.1c-0.2-0.1-0.4-0.3-0.4-0.6q-0.1-0.5-0.2-1-0.1-0.5-0.1-0.9 0-0.4 0-0.9 0-0.4 0.1-0.8 0-0.5 0.1-0.9 0-0.3 0.1-0.5 0.1-0.3 0.2-0.6 0.1-0.2 0.3-0.5 0.1-0.2 0.2-0.5l0.5-0.9q0.3-0.4 0.5-0.8 0.4-0.6 0.9-1.1 0.4-0.6 1-1.1 0.5-0.5 1-0.9 0.6-0.5 1.2-0.9 0.6-0.3 1.2-0.6 0.6-0.3 1.1-0.6 0.8-0.3 1.5-0.5 0.4-0.1 0.7-0.2 0.4-0.1 0.7-0.1 0.4-0.1 0.7-0.1 0.4-0.1 0.7-0.1 0.7-0.1 1.4-0.1zm15.8 8.4q0 0 0 0v0.1-0.1q0 0 0 0zm-0.1 0q0 0 0 0 0 0 0.1 0zm0 0q0 0 0 0 0 0 0 0zm-0.1 0v-0.1z"/>
	<path id="Layer" fill-rule="evenodd" class="s0" d="m52.5 40.8q0.1 0 0.2 0 0.1 0 0.2 0 0.1 0 0.2 0 0.1 0 0.1 0.1 0.1 0 0.2 0.1 0 0.1 0.1 0.1 0.1 0.1 0.1 0.2 0 0 0.1 0.1l0.2 0.8 0.2 0.3q0 0 0 0 0 0.1 0.1 0.1 0 0 0 0 0 0.1 0.1 0.1 0 0 0.1 0 0 0.1 0.1 0.1 0 0 0.1 0.1 0 0 0.1 0 0 0 0 0 0 0.1 0.1 0.1 0 0 0 0 0 0 0.1 0h0.1q0.1-0.2 0.3-0.4c0.1-0.2 0.4-0.3 0.6-0.3q0.2 0 0.4 0.1 0.1 0.1 0.3 0.2 0.1 0.1 0.2 0.3 0 0.2 0 0.3 0 0.1 0 0.2 0 0.1 0 0.2-0.1 0.1-0.1 0.1-0.1 0.1-0.1 0.2l-0.2 0.2c-0.2 0.2-0.3 0.4-0.5 0.5q-0.1 0-0.3 0.1-0.1 0-0.2 0.1-0.2 0-0.3 0-0.1 0-0.3 0-0.3 0-0.6-0.1-0.2-0.1-0.4-0.2-0.2-0.1-0.4-0.2c-0.4-0.3-0.8-0.7-1-1.1q-0.3-0.7-0.5-1.3c-0.1-0.5 0.2-1 0.6-1.1zm8.2 1.3q0.1 0 0.2 0 0.1 0 0.2 0 0.1 0 0.2 0 0 0.1 0.1 0.1c0.2 0.1 0.4 0.3 0.4 0.5 0.1 0.4 0.1 0.7 0.3 1.1q0 0 0 0 0 0.1 0 0.1 0 0 0 0 0.1 0 0.1 0.1 0 0 0 0 0 0 0 0 0 0 0 0 0 0 0 0 0.1 0.1 0.1 0.1 0.1 0 0.1 0 0.1 0.1 0.1 0.1 0 0 0.1 0 0 0 0 0.1 0 0 0.1 0 0 0 0 0 0 0 0 0h0.2 0.1q0.1 0 0.1-0.1 0 0 0 0 0 0 0 0 0 0 0 0 0.2-0.1 0.3-0.2 0-0.1 0.1-0.2 0 0 0.1-0.1 0.1 0 0.1-0.1 0.1 0 0.2 0 0.2-0.1 0.4-0.1 0.1 0.1 0.3 0.1 0.1 0.1 0.3 0.3 0.1 0.1 0.1 0.3c0.1 0.2 0 0.5-0.1 0.7q-0.2 0.3-0.5 0.6-0.2 0.2-0.4 0.3c-0.2 0.1-0.4 0.2-0.7 0.3q-0.2 0-0.4 0-0.3 0-0.5 0-0.2-0.1-0.4-0.2-0.3 0-0.5-0.2-0.2-0.1-0.3-0.2-0.2-0.1-0.4-0.3-0.1-0.2-0.2-0.4-0.1-0.2-0.2-0.4c-0.2-0.4-0.2-0.8-0.3-1.2q0 0 0-0.1 0-0.1 0-0.2 0-0.1 0-0.2 0-0.1 0.1-0.2 0 0 0.1-0.1 0-0.1 0.1-0.1 0.1-0.1 0.2-0.1 0-0.1 0.1-0.1zm-3.8 5.1q0.1 0 0.1 0 0.1 0 0.2 0 0.1 0 0.1 0 0.1 0 0.2 0 0.1 0.1 0.2 0.1 0.2 0.1 0.3 0.2 0.1 0 0.2 0.1 0.1 0.1 0.2 0.2c0.3 0.3 0.5 0.5 0.7 0.8q0.1 0 0.1 0 0 0 0 0 0 0 0.1 0.1 0 0 0 0 0 0 0 0 0.1 0 0.1 0 0 0 0 0 0 0 0.1 0h0.2q0.3 0 0.6-0.1c0.4-0.1 0.8-0.2 1.2-0.1q0.3 0.1 0.5 0.2 0.2 0.1 0.3 0.3 0.2 0.1 0.3 0.3 0.1 0.3 0.2 0.5 0.1 0.4 0.1 0.8v0.3c0 0.2 0 0.4-0.1 0.6q-0.1 0.3-0.2 0.6-0.2 0.3-0.4 0.5-0.2 0.2-0.5 0.4-0.3 0.2-0.6 0.3-0.1 0-0.2 0 0 0-0.1 0.1-0.1 0-0.2 0-0.1 0-0.1 0-0.7 0.1-1.3 0.3-0.4 0.1-0.8 0.2-0.4 0.2-0.8 0.3-0.3 0.1-0.7 0.1h-0.3q-0.2 0-0.4-0.1-0.2 0-0.4-0.1-0.1 0-0.3-0.1-0.1-0.1-0.3-0.2-0.1-0.2-0.2-0.3-0.3-0.3-0.5-0.7c-0.3-0.5-0.5-1-0.5-1.6 0.1-0.5 0.4-0.9 0.9-0.9 0.5 0 1 0.4 0.9 0.9v0.2q0 0 0 0.1 0.1 0 0.1 0 0 0.1 0 0.1 0 0 0 0.1 0 0 0.1 0.1 0 0 0 0.1 0.1 0 0.1 0.1 0 0 0.1 0.1l0.2 0.3q0.1 0 0.1 0 0 0 0 0 0 0 0 0 0 0.1 0.1 0.1 0 0 0.1 0h0.1q0.5-0.1 0.9-0.3l1-0.3c0.5-0.1 1-0.2 1.6-0.3q0.1 0 0.3-0.1 0.1 0 0.2-0.1l0.2-0.1 0.1-0.2v-0.2-0.4-0.2h-0.1l-0.7 0.1c-0.5 0.2-1 0.2-1.5 0q-0.5-0.1-0.9-0.5l-0.3-0.3q-0.2-0.3-0.5-0.6h-0.1-0.2q-0.3 0-0.6 0.1-0.2 0.1-0.4 0.3l-0.6 0.5c-0.3 0.3-0.9 0.3-1.3 0-0.3-0.4-0.3-1 0-1.3 0.4-0.4 0.8-0.7 1.3-1q0.5-0.3 1.1-0.4 0.3 0 0.6 0zm4.1 3q0 0 0 0 0 0 0 0 0 0 0 0 0 0 0 0 0 0 0 0zm40.3-24.3q0 0.2 0.1 0.4 0.2 0.1 0.3 0.3 0.2 0.1 0.4 0.2 0.2 0 0.4 0.1 0 0 0.1 0 0 0 0 0 0.1 0 0.1 0.1 0.1 0 0.1 0c0.2 0 0.4 0 0.6 0h0.8q0.3 0 0.6 0.1 0.2 0 0.3 0 0.1 0.1 0.2 0.1 0.2 0 0.3 0 0.1 0 0.3 0 0.4 0 0.8-0.1 0 0.1 0.1 0.1 0.1 0.1 0.2 0.1 0.1 0.1 0.2 0.1 0.1 0.1 0.2 0.1c0.7 0.5 1.3 1.1 1.9 1.8 0.6 0.6 1 1.4 1.5 2.1 0.2 0.4 0.5 0.8 0.7 1.3 0.2 0.4 0.3 0.9 0.5 1.4q0.2 0.7 0.3 1.4 0.1 0.6 0.2 1.3 0.1 0.7 0.1 1.4 0 0.7-0.1 1.3 0 0.4-0.1 0.8-0.1 0.4-0.2 0.7-0.1 0.3-0.3 0.6-0.2 0.2-0.4 0.4-0.2 0.2-0.4 0.4-0.2 0.2-0.4 0.4-0.2 0.2-0.5 0.4-0.4 0.3-0.9 0.6l-0.4 0.3-0.5 0.2q-0.2 0.2-0.5 0.3-0.2 0.1-0.4 0.2c-0.5 0.2-0.9 0.4-1.4 0.6q-0.6 0.3-1.3 0.5-0.2 0.1-0.5 0.2-0.4 0.1-0.8 0.1-0.4 0.1-0.8 0v1.6 5.6 1.3 0.7c0 0.3-0.1 0.5-0.1 0.8-0.1 0.4-0.5 0.7-0.9 0.7-0.4 0-0.6-0.2-0.8-0.5-0.2-0.2-0.2-0.4-0.3-0.6q-0.3-0.5-0.5-1.1l-0.3-0.7-0.4-0.9c-0.4-0.7-0.7-1.3-1-2q-0.3-1-0.6-1.9l-0.3-0.9q-0.1 0-0.1-0.1-1 0.6-2.2 1l-1.3 0.5q-0.5 0.2-1 0.4-0.5 0.1-1 0.2-0.5 0.2-1 0.2-0.5 0.1-1 0.2c-0.9 0-1.9 0-2.8-0.3q-0.5-0.2-1-0.4-0.5-0.2-0.9-0.5-0.5-0.3-0.9-0.6-0.4-0.4-0.8-0.8-0.5-0.5-0.9-1.1-0.4-0.6-0.6-1.2c-0.2-0.5-0.4-0.9-0.6-1.4q-0.1-0.4-0.1-0.8-0.1-0.3-0.2-0.7 0-0.4 0-0.7 0-0.4 0-0.8 0.1-0.7 0.2-1.5 0-0.2 0.1-0.3 0-0.2 0.1-0.4 0-0.1 0.1-0.3 0-0.2 0.1-0.3 0.3-0.7 0.6-1.4 0.3-0.6 0.7-1.2 0.3-0.7 0.8-1.3 0.4-0.6 0.9-1.1c0.3-0.5 0.7-0.9 1.2-1.2q0.6-0.4 1.2-0.7 0.1-0.1 0.2-0.1 0 0 0.1 0 0.1 0 0.2 0 0.1 0 0.2 0c0.3-0.3 0.7-0.6 1.1-0.8 0.3-0.3 0.7-0.6 1-0.8 0.4-0.3 0.8-0.5 1.2-0.7q0.5-0.2 1-0.5 0.5-0.3 1-0.7 0.6-0.3 1.2-0.6l1.1-0.4c0.5-0.1 0.9-0.3 1.3-0.4q0.6-0.1 1.3-0.3 0.6-0.1 1.3-0.3l0.6-0.1h0.1q0.1 0 0.2 0 0.1 0 0.2 0 0.1 0 0.1 0 0.1-0.1 0.2-0.1 0.3 0 0.6 0zm-13.3 7.8q-0.2 0-0.5-0.2-0.4 0.2-0.8 0.5-0.4 0.4-0.8 0.9-0.3 0.4-0.7 0.9-0.3 0.5-0.6 1-0.3 0.5-0.6 1-0.3 0.5-0.5 1.1c-0.1 0.3-0.2 0.6-0.3 0.9l-0.2 1q0 0.2-0.1 0.5 0 0.3 0 0.6 0 0.2 0 0.5 0 0.3 0.1 0.6 0 0.2 0.1 0.5 0 0.2 0.1 0.4 0.1 0.3 0.1 0.5 0.1 0.2 0.2 0.4 0.1 0.2 0.1 0.3 0.1 0.1 0.1 0.2 0.1 0.2 0.2 0.3 0 0.1 0.1 0.2 0.2 0.3 0.4 0.5 0.2 0.3 0.4 0.5 0.2 0.2 0.4 0.4 0.2 0.3 0.4 0.5 0.7 0.4 1.5 0.8 0.1 0 0.3 0.1 0.2 0.1 0.3 0.1 0.2 0 0.4 0.1 0.2 0 0.3 0.1 1.1 0 2.1-0.1 1.2-0.2 2.4-0.6l1.3-0.5q0.5-0.2 1.1-0.4l0.7-0.4c0.3-0.1 0.6-0.3 0.8-0.4q0.3-0.2 0.6-0.3 0.1 0 0.2-0.1 0.2 0 0.3 0 0.1 0 0.2 0.1 0.2 0 0.3 0.1 0.1 0 0.2 0.1 0.1 0.1 0.1 0.2 0.1 0.1 0.2 0.3 0 0.1 0.1 0.2l0.1 0.4q0.1 0.4 0.3 0.9 0.1 0.4 0.3 0.8 0.1 0.5 0.3 0.9 0.2 0.4 0.3 0.9 0.1 0.1 0.2 0.3 0 0.1 0.1 0.2 0.1 0.2 0.1 0.3 0.1 0.2 0.2 0.3v-5.6q0-0.4 0-0.8l0.1-0.2c0-0.1 0-0.2 0.1-0.3 0.1-0.2 0.2-0.4 0.4-0.5 0.2-0.1 0.3-0.2 0.5-0.2q0.1 0 0.2 0 0.2 0 0.3-0.1 0.1 0 0.2 0 0.2 0 0.3 0 0.2 0 0.5 0c0.4-0.1 0.7-0.2 1.1-0.4q0.6-0.1 1.1-0.4c0.7-0.3 1.4-0.6 2-1q0.5-0.2 0.9-0.5 0.4-0.3 0.9-0.6 0.1-0.1 0.3-0.3 0.1-0.1 0.2-0.2 0.1-0.1 0.2-0.3 0.1-0.1 0.2-0.2 0.1-0.1 0.1-0.2 0.1-0.1 0.1-0.2 0-0.1 0.1-0.2 0-0.1 0-0.2c0.1-0.6 0.1-1.2 0.1-1.7q-0.1-0.9-0.2-1.7-0.1-0.8-0.3-1.5-0.2-0.7-0.4-1.3c-0.3-0.5-0.6-1-0.8-1.4q-0.4-0.6-0.8-1.2-0.4-0.5-0.8-0.9-0.4-0.4-0.8-0.7-0.8-0.6-1.7-1-0.4-0.1-0.7-0.3-0.3-0.1-0.5-0.1-0.2-0.1-0.5-0.1-0.2 0-0.5-0.1-0.2 0-0.5 0-0.2 0-0.4 0-0.2 0-0.4 0-0.3 0-0.5 0-0.2 0-0.4 0.1h-0.2q-0.3 0-0.7 0.1-0.4 0.1-0.8 0.2-0.4 0-0.8 0.1-0.3 0.1-0.7 0.2c-0.5 0.1-1 0.3-1.5 0.5q-0.6 0.2-1.1 0.4-0.3 0.1-0.5 0.2l-0.5 0.4q-0.5 0.3-1 0.6l-1 0.5c-0.3 0.2-0.7 0.3-1 0.6l-0.7 0.5q-0.5 0.4-1 0.7l-0.3 0.3v0.1c-0.2 0.3-0.5 0.5-0.8 0.5zm-1.9 1l-0.1 0.1zm2.8-1.7z"/>
	<path id="Layer" fill-rule="evenodd" class="s0" d="m94.9 33.9c0.5 0 0.9 0.4 0.9 0.9 0 0.5-0.4 0.9-0.9 0.9-0.5 0-0.9-0.4-0.9-0.9 0-0.5 0.4-0.9 0.9-0.9zm3.6-0.6c0 0.5 0.4 0.9 0.9 0.9 0.5 0 0.9-0.4 0.9-0.9 0-0.5-0.4-0.9-0.9-0.9-0.5 0-0.9 0.4-0.9 0.9zm-42.9-10.7c-0.9 0-1.8 0-2.7 0.1q-0.3 0-0.7 0.1-0.3 0-0.7 0.1-0.3 0.1-0.7 0.2-0.3 0.1-0.7 0.2-0.6 0.3-1.2 0.6l-1.1 0.7-0.6 1.1q-0.1 0.2-0.3 0.4c-0.2 0.2-0.4 0.3-0.6 0.4q-0.3 0.1-0.5 0l-0.1 0.2q-0.3 0.5-0.7 0.6-0.4 0.5-0.6 1-0.2 0.3-0.3 0.6-0.1 0.3-0.2 0.6-0.1 0.3-0.2 0.6-0.1 0.3-0.2 0.6-0.2 0.6-0.2 1.3 0 0.7 0.1 1.4 0 0.3 0 0.6 0.1 0.3 0.2 0.5 0 0.3 0.1 0.6 0.1 0.3 0.3 0.5c0.3 0.7 0.8 1.3 1.3 1.9q0.7 0.8 1.5 1.5c0.3 0.3 0.6 0.5 0.8 0.8q0.6 0.4 1.2 0.8 0.2 0 0.3 0.1 0.2 0 0.4 0 0.2-0.1 0.3-0.2 0.1-0.1 0.2-0.3 0.1-0.1 0.1-0.3 0.1-0.2 0-0.3 0-0.2-0.1-0.4-0.1-0.1-0.3-0.2-0.4-0.2-0.7-0.5-0.4-0.3-0.7-0.6-0.4-0.4-0.8-0.7-0.8-0.8-1.5-1.7-0.1-0.2-0.3-0.4-0.1-0.3-0.2-0.5-0.1-0.3-0.2-0.6-0.1-0.3-0.1-0.5-0.1-0.3-0.1-0.5 0-0.3 0-0.5 0-0.3 0-0.5 0-0.2 0-0.5c0.1-0.6 0.4-1.2 0.6-1.8q0.1-0.2 0.2-0.4 0.1-0.2 0.2-0.4 0.1-0.1 0.2-0.3 0.1-0.2 0.2-0.3c0.3-0.4 0.7-0.7 1-1 0.3-0.3 0.6-0.6 1-0.9q0.5-0.4 1.1-0.8 0.5-0.3 1.1-0.6 0.4-0.2 0.9-0.3 0.4-0.1 0.9-0.1c1-0.1 1.9-0.2 2.9-0.2q0.7 0 1.5 0 0.7 0 1.4 0.1 0.6 0.1 1.3 0.3 0.6 0.1 1.2 0.3 0.6 0.2 1.2 0.5 0.6 0.2 1.2 0.5 0.5 0.3 0.9 0.6 0.5 0.4 1 0.8 0.3 0.3 0.6 0.5 0.2 0.3 0.4 0.6 0.2 0.2 0.4 0.5 0.2 0.3 0.4 0.6 0.2 0.3 0.3 0.6c0.2 0.4 0.3 0.9 0.4 1.3q0 0.3 0.1 0.6 0 0.3 0 0.5 0 0.3 0 0.6 0 0.3 0 0.6c-0.1 0.3-0.2 0.7-0.3 1.1q-0.2 0.4-0.4 0.9-0.2 0.2-0.3 0.4l-0.2 0.5-0.1 0.3c-0.2 0.2-0.2 0.4-0.1 0.7q0 0.1 0.1 0.3 0.1 0.1 0.3 0.2 0.1 0.1 0.3 0.1 0.2 0 0.4 0c0.2-0.1 0.4-0.2 0.5-0.4 0.2-0.3 0.3-0.6 0.4-0.9l0.2-0.4q0.2-0.3 0.4-0.6 0.1-0.4 0.3-0.7c0.1-0.2 0.1-0.5 0.1-0.7q0.1-0.6 0.2-1.3v-0.5-0.7q0-0.2 0-0.3-0.1-0.2-0.1-0.4 0-0.2 0-0.3-0.1-0.2-0.1-0.4-0.1-0.4-0.3-0.8-0.2-0.4-0.4-0.8-0.2-0.4-0.4-0.8-0.3-0.4-0.5-0.8-0.5-0.6-1.1-1.1-0.4-0.5-0.9-0.8-0.6-0.5-1.1-0.9-0.2-0.1-0.3-0.1-0.1-0.1-0.3-0.2-0.1-0.1-0.2-0.1-0.2-0.1-0.3-0.2c-0.9-0.3-1.7-0.7-2.6-1q-0.7-0.1-1.3-0.3-0.7-0.1-1.3-0.2-0.7-0.1-1.4-0.1-0.7 0-1.3 0z"/>
	<path id="Layer" fill-rule="evenodd" class="s0" d="m54 27.9c0.5 0 0.9 0.4 0.9 0.9 0 0.5-0.4 0.9-0.9 0.9-0.5 0-0.9-0.4-0.9-0.9 0-0.5 0.4-0.9 0.9-0.9zm4.5 0.8c0.5 0 0.9 0.4 0.9 0.9 0 0.5-0.4 0.9-0.9 0.9-0.5 0-0.9-0.4-0.9-0.9 0-0.5 0.4-0.9 0.9-0.9zm-8.9 2.9q0.1-0.2 0.3-0.2 0.1-0.1 0.3-0.1 0.2 0 0.4 0.1 0.1 0 0.3 0.2l0.7 0.7q0.2 0.3 0.5 0.6 0.2 0.1 0.5 0.3 0.2 0.1 0.4 0.3l1 0.3q0.4 0.2 0.8 0.3l0.4 0.2q0.1 0.1 0.3 0.1 0.1 0.1 0.2 0.1 0.1 0 0.2 0 0.1 0.1 0.3 0.1 0.4 0 0.8 0 0.4 0 0.9 0 0.2 0 0.4-0.1l0.3-0.1q0.1 0 0.2 0 0-0.1 0.1-0.1 0 0 0.1 0 0.1-0.1 0.1-0.1l0.2-0.1 0.4-0.1 0.5-0.3 0.3-0.1q0.1 0 0.2-0.1 0.1 0 0.2-0.1 0.1-0.1 0.1-0.1 0.1-0.1 0.2-0.1 0.4-0.2 0.8-0.2 0.1 0 0.3 0 0.2 0.1 0.3 0.2 0.1 0.2 0.2 0.3 0.1 0.2 0.1 0.4c0 0.4-0.4 0.8-0.9 0.9q-0.1 0.1-0.3 0.2-0.1 0.1-0.3 0.1-0.1 0.1-0.3 0.2-0.2 0.1-0.3 0.1-0.1 0.1-0.2 0.1-0.2 0.1-0.4 0.2h-0.1l-0.4 0.2-0.2 0.1q-0.2 0.1-0.3 0.1l-0.3 0.1q-0.1 0.1-0.3 0.1l-0.2 0.1c-0.5 0-1 0-1.4 0-0.5 0-1 0-1.4-0.1-0.6-0.1-1.1-0.3-1.6-0.6l-0.6-0.2q-0.2-0.1-0.5-0.1l-0.7-0.3c-0.2-0.1-0.3-0.2-0.5-0.3-0.4-0.3-0.9-0.6-1.2-1q-0.5-0.5-0.9-1-0.2-0.1-0.2-0.3-0.1-0.1-0.1-0.3 0-0.2 0.1-0.3 0-0.2 0.2-0.3zm12.3 3.2h-0.1c0 0 0.1 0 0.1 0zm-7.7 14.6c0.5 0 0.9 0.4 0.9 0.9 0 0.5-0.4 0.9-0.9 0.9-0.4 0-0.9-0.4-0.9-0.9 0-0.5 0.5-0.9 0.9-0.9zm35.2-31.9q0.5-0.1 1 0 0.5 0 1 0.1 0.5 0.1 0.9 0.2 0.5 0.1 1 0.3 0.3 0.2 0.6 0.3 0.3 0.3 0.6 0.5 0.2 0.3 0.4 0.6 0.1 0.1 0.1 0.1 0.1 0.1 0.1 0.1 0 0.1 0.1 0.1 0 0.1 0 0.2 0.2 0.3 0.3 0.6 0.1 0.3 0.2 0.6 0.1 0.3 0.1 0.7 0.1 0.3 0.1 0.6 0.1 0.6 0.2 1.3v0.6 0.4q0 0.3 0 0.6-0.1 0.3-0.2 0.6l-0.2 0.6-0.1 0.7c-0.1 0.3-0.3 0.7-0.6 1-0.3 0.4-0.9 0.4-1.2 0-0.4-0.3-0.4-0.9-0.1-1.2q0.2-0.5 0.3-1.1c0.1-0.3 0.2-0.6 0.3-1q0-0.2 0-0.4 0-0.2 0-0.4 0-0.2 0-0.4 0-0.2-0.1-0.5l-0.1-0.9q-0.1-0.7-0.3-1.3-0.2-0.4-0.4-0.7-0.2-0.2-0.4-0.4-0.3-0.1-0.5-0.3-0.4-0.1-0.7-0.2-0.4-0.1-0.8-0.1-0.3-0.1-0.7-0.1-0.3 0-0.7 0-0.8 0-1.6 0-0.8 0-1.5 0.1-0.8 0.1-1.6 0.2l-0.7 0.1q-0.6 0.1-1.2 0.2-0.6 0.1-1.2 0.2c-0.8 0.2-1.6 0.5-2.4 0.8q-0.9 0.4-1.7 1c-0.8 0.7-1.5 1.5-2.3 2.3-0.4 0.3-0.8 0.7-1.1 1q-0.4 0.4-0.7 0.7-0.2 0.3-0.4 0.5c-0.4 0.5-0.7 1-1 1.6q-0.3 0.7-0.5 1.6-0.2 0.8-0.4 1.6 0 0.2-0.1 0.5 0 0.2 0 0.5 0 0.3 0 0.5 0 0.3 0.1 0.5l0.1 0.9q0.1 0.5 0.2 0.9 0.3 0.9 0.6 1.8 0.2 0.3 0.4 0.6 0 0.1 0.1 0.2 0.1 0.1 0.2 0.2 0.1 0.1 0.2 0.1 0.1 0.1 0.2 0.2l1 0.8c0.1 0.2 0.2 0.4 0.2 0.7q0 0.1 0 0.3-0.1 0.2-0.2 0.3-0.2 0.1-0.3 0.2-0.2 0.1-0.4 0.1c-0.2 0-0.4-0.2-0.6-0.3-0.5-0.4-1.1-0.9-1.6-1.4q-0.4-0.4-0.6-0.9-0.3-0.4-0.4-0.9-0.2-0.4-0.3-0.7-0.1-0.4-0.2-0.7-0.1-0.4-0.2-0.8 0-0.3-0.1-0.7-0.1-0.6-0.2-1.2c0-1 0.1-1.9 0.3-2.9q0-0.2 0.1-0.5 0.1-0.3 0.1-0.5 0.1-0.3 0.2-0.5 0.1-0.3 0.2-0.5c0.1-0.3 0.2-0.7 0.4-1q0.3-0.7 0.8-1.3c0.3-0.5 0.6-0.9 1-1.3 0.7-0.6 1.3-1.2 2-1.9 0.6-0.7 1.3-1.4 2-2 0.8-0.6 1.8-1.1 2.7-1.5 0.9-0.3 1.7-0.6 2.6-0.7l1.3-0.3q0.6-0.1 1.3-0.2 0 0.1 0 0h0.1q0 0 0 0 0 0 0 0l1.6-0.2q0.8 0 1.6-0.1 0.8 0 1.7 0zm-4.9 0.3q0 0-0.1 0 0.1 0.1 0.1 0zm9.3 9.2q0 0 0 0 0 0 0 0 0 0 0 0 0 0-0.1 0c0 0 0.1 0 0.1 0z"/>
	<path id="Layer" fill-rule="evenodd" class="s0" d="m73 38.4q0 0 0.1 0 0 0 0 0 0 0 0.1 0 0 0 0.1 0 0.1 0 0.1 0 0.1 0 0.1 0 0.1 0.1 0.2 0.1 0.4 0.2 0.9 0.4 0.1 0.1 0.2 0.1 0.1 0 0.2 0.1 0.1 0 0.2 0 0.1 0 0.2 0.1 0.5 0 1.1 0 0.2 0 0.5 0 0.3 0 0.6 0 0.3 0 0.6 0 0.3 0 0.6 0h1q0.1 0 0.2 0 0.1 0 0.2 0 0.1 0 0.2 0 0.1 0.1 0.1 0.1 0.1 0.1 0.2 0.1 0 0.1 0.1 0.1 0 0.1 0.1 0.2 0 0.1 0 0.1c0.2 0.5-0.1 1.1-0.6 1.2q-0.3 0-0.6 0h-3.1q-0.4 0-0.9 0-0.2 0-0.5 0-0.3-0.1-0.6-0.1-0.2-0.1-0.5-0.2-0.2-0.1-0.5-0.2l-0.9-0.5c-0.2 0-0.3-0.3-0.4-0.5q0-0.2 0-0.3 0-0.2 0.1-0.4 0.1-0.1 0.2-0.2 0.2-0.2 0.4-0.2 0 0 0 0zm8.2-13.4c0.5 0 0.9 0.4 0.9 0.9 0 0.5-0.4 0.9-0.9 0.9-0.5 0-0.9-0.4-0.9-0.9 0-0.5 0.4-0.9 0.9-0.9zm4.3-1.3c0.5 0 0.9 0.4 0.9 0.9 0 0.4-0.4 0.9-0.9 0.9-0.5 0-0.9-0.5-0.9-0.9 0-0.5 0.4-0.9 0.9-0.9zm-0.1 5.3q0.2 0 0.4 0 0.1 0 0.3 0.1 0.2 0 0.3 0.1 0.2 0 0.4 0.1c0.3 0.2 0.6 0.6 0.6 1q0.2 0.4 0.1 0.8c0 0.3 0 0.6-0.1 0.9q-0.1 0.2-0.2 0.3 0 0.2-0.1 0.3-0.1 0.2-0.2 0.3-0.1 0.1-0.2 0.3-0.1 0.1-0.3 0.2-0.1 0.1-0.2 0.2-0.1 0-0.3 0.1-0.1 0.1-0.2 0.2-0.3 0.1-0.6 0.2-0.4 0.2-0.7 0.3-0.3 0-0.7 0.1-0.3 0-0.7 0c-0.8 0-1.7-0.2-2-1-0.1-0.2-0.2-0.4-0.2-0.7q0-0.1 0-0.3 0-0.1 0.1-0.3 0-0.1 0-0.3 0.1-0.1 0.1-0.2c0.2-0.5 0.6-0.8 1-1q0.2-0.1 0.4-0.2 0.2-0.3 0.6-0.6 0.1-0.1 0.3-0.2 0.2-0.1 0.3-0.1 0.2-0.1 0.4-0.2 0.1-0.1 0.3-0.1l0.4-0.2q0.3-0.1 0.7-0.1zm-0.1 1.8q-0.3 0.1-0.5 0.2l-0.3 0.1c0 0.4-0.2 0.8-0.6 0.9q-0.5 0-0.9 0.2l-0.2 0.1-0.1 0.1q0 0 0 0l-0.1 0.2v0.1q0 0 0.1 0 0 0 0 0 0.1 0 0.1 0 0 0 0.1 0 0.3 0 0.6 0 0.3-0.1 0.6-0.1l0.6-0.2q0.3-0.2 0.6-0.4l0.2-0.2 0.1-0.2 0.1-0.4q0-0.2 0-0.4zm-2.7 1.8q0 0 0 0 0 0 0 0 0 0 0 0zm0 0q0 0 0 0 0 0 0 0.1zm0.1 0v0.1q0 0 0 0 0 0 0 0 0 0 0-0.1 0 0 0 0zm0 0z"/>
	<path id="Layer" fill-rule="evenodd" class="s0" d="m79.9 39.4q0.2 0 0.4 0 0.1 0.1 0.3 0.2 0.1 0.1 0.2 0.2 0 0.1 0.1 0.2 0 0.1 0 0.2 0 0.1 0 0.2 0 0.1 0 0.1-0.2 0.9-0.4 1.6-0.1 0.7-0.3 1.4-0.2 0.7-0.3 1.5l-0.2 1.5v-0.1l-0.1 0.9-0.1 0.9 0.9-1.1q0 0 0-0.1 0.1 0 0.1-0.1 0 0 0.1-0.1 0 0 0-0.1 0 0 0.1-0.1 0 0 0-0.1 0 0 0.1-0.1 0 0 0-0.1l0.2-0.1q0.2-0.1 0.4-0.1 0.1 0 0.3 0 0.2 0.1 0.3 0.2 0.2 0.1 0.3 0.2c0.1 0.2 0.1 0.5 0.1 0.7q-0.2 0.4-0.5 0.8-0.2 0.4-0.5 0.7l-0.7 0.9c-0.4 0.4-0.7 0.8-1.1 1.2-0.2 0.2-0.3 0.4-0.6 0.5-0.1 0.1-0.3 0.1-0.5 0.1q-0.4 0-0.7-0.3c-0.2-0.2-0.3-0.6-0.3-0.9l0.1-0.4 0.1-0.9v-0.8q0.1-0.9 0.2-1.9l0.3-1.6q0.1-0.7 0.2-1.5l0.4-1.4q0.2-0.8 0.4-1.6 0-0.1 0-0.2 0.1-0.1 0.1-0.1 0.1-0.1 0.1-0.2 0.1 0 0.2-0.1 0.1-0.1 0.3-0.1zm22-12.6c0 0.2 0 0.5 0.1 0.7q0.1 0.1 0.3 0.2 0.1 0.1 0.3 0.2 0.1 0 0.3 0 0.2 0 0.4-0.1 0-0.1 0.1-0.1 0.1-0.1 0.1-0.2 0.1 0 0.1-0.1 0-0.1 0.1-0.2l0.1-0.2h-0.4c-0.3 0-0.4 0-0.6 0q-0.1 0-0.1-0.1 0 0-0.1 0 0 0-0.1 0 0 0 0 0-0.1-0.1-0.1-0.1 0 0-0.1 0 0 0 0 0-0.1 0-0.1 0 0 0-0.1 0 0 0 0 0-0.1 0-0.1-0.1 0 0-0.1 0zm-30.3-16.1q-0.6 0.1-1.3 0.3-0.5 0.1-1 0.3-0.5 0.1-1 0.3-0.5 0.2-1 0.5-0.5 0.2-0.9 0.5-0.6 0.3-1.2 0.7-0.5 0.4-1 0.9-0.5 0.4-1 0.9-0.5 0.5-0.9 1-0.3 0.3-0.5 0.6-0.2 0.3-0.4 0.6-0.2 0.3-0.4 0.7-0.1 0.3-0.3 0.7-0.2 0.6-0.5 1.3-0.1 0.3-0.2 0.7 0 0.3-0.1 0.7 0 0.3 0 0.7-0.1 0.3-0.1 0.6c0.1 0.6 0.2 1.1 0.4 1.6 0.1 0.4 0.6 0.7 1.1 0.6q0.2 0 0.3-0.2 0.2-0.1 0.2-0.2 0.1-0.2 0.2-0.4 0-0.1-0.1-0.3c-0.1-0.4-0.2-0.7-0.3-1.1q0-0.5 0.1-0.9 0-0.4 0.1-0.7 0.1-0.4 0.2-0.7 0.1-0.3 0.2-0.7 0.1-0.3 0.3-0.6 0.1-0.2 0.2-0.4 0.1-0.2 0.2-0.4 0.1-0.2 0.2-0.4 0.2-0.2 0.3-0.4 0.3-0.3 0.6-0.6l0.7-0.8q0.3-0.3 0.6-0.5 0.3-0.3 0.7-0.6 0.3-0.2 0.7-0.5 0.3-0.2 0.7-0.4 0.7-0.4 1.4-0.8 0.6-0.2 1.1-0.3 0.5-0.2 1.1-0.3 0.5-0.1 1-0.2 0.6-0.2 1.1-0.2 1.2-0.2 2.4-0.1 0.3 0.1 0.6 0.2 0.3 0 0.5 0.1 0.3 0.1 0.6 0.2 0.2 0.1 0.5 0.3 0.5 0.2 0.9 0.6 0.2 0.1 0.4 0.3 0.3 0.5 0.5 0.9 0.3 1 0.4 2 0.1 0.3 0.1 0.6 0 0.4 0 0.7 0 0.3 0 0.7 0 0.3 0 0.7-0.1 0.1-0.1 0.2 0 0.1 0 0.2 0.1 0.1 0.1 0.2 0 0.1 0.1 0.1 0 0.2 0.2 0.3 0.1 0.1 0.3 0.2 0.2 0 0.4 0 0.1 0 0.3-0.1c0.2-0.1 0.4-0.4 0.4-0.6 0.2-0.9 0.1-1.8 0.1-2.7q0-0.3-0.1-0.7 0-0.3-0.1-0.7 0-0.3-0.1-0.6-0.1-0.4-0.2-0.7-0.1-0.2-0.1-0.4-0.1-0.1-0.2-0.3 0-0.1-0.1-0.3-0.1-0.2-0.2-0.3-0.1-0.1-0.1-0.2-0.1-0.1-0.1-0.2-0.1-0.1-0.2-0.2 0 0-0.1-0.1-0.3-0.3-0.7-0.6-0.4-0.3-0.8-0.5-0.4-0.2-0.9-0.4-0.4-0.2-0.9-0.4-0.5-0.1-1-0.2-0.5-0.1-1-0.1-0.6-0.1-1.1 0-0.6 0-1.1 0.1-0.5 0.1-1.1 0.2z"/>
	<path id="Layer" fill-rule="evenodd" class="s0" d="m67.7 16.7c0.5 0 0.9 0.4 0.9 0.9 0 0.5-0.4 0.9-0.9 0.9-0.5 0-0.9-0.4-0.9-0.9 0-0.5 0.4-0.9 0.9-0.9zm4.2-0.7c0.5 0 0.9 0.4 0.9 0.9 0 0.5-0.4 0.9-0.9 0.9-0.5 0-0.9-0.4-0.9-0.9 0-0.5 0.5-0.9 0.9-0.9zm-4.5 5.4q0-0.1 0.1-0.1 0.1-0.1 0.3-0.1 0.1-0.1 0.2-0.1 0.1 0 0.1 0 0.1 0.1 0.1 0.1 0.1 0 0.1 0 0.1 0 0.1 0.1 0.5 0.3 1.1 0.6 0 0 0 0 0 0 0.1 0 0 0 0 0 0 0.1 0.1 0.1 0.1 0 0.1-0.1 0 0 0.1 0 0 0 0 0 0.1 0 0.1 0l0.3-0.2q0.1 0 0.2 0 0-0.1 0.1-0.1 0.1 0 0.2 0 0.1 0 0.2 0 0.2 0.1 0.3 0.2 0.2 0.1 0.2 0.3 0.1 0.1 0.1 0.3 0.1 0.2 0 0.4c0 0.2-0.2 0.4-0.4 0.5-0.3 0.1-0.6 0.3-0.9 0.4-0.5 0.1-0.9 0.1-1.4-0.1q-0.4-0.1-0.7-0.3l-0.7-0.5q-0.3-0.2-0.4-0.5 0-0.1 0-0.2 0-0.1 0-0.2 0-0.1 0-0.1 0.1-0.1 0.1-0.2 0.1-0.1 0.2-0.2zm29.7 18.7q0.1-0.1 0.2-0.2 0-0.1 0.1-0.2 0.1-0.1 0.2-0.1 0.1-0.1 0.1-0.1 0.1 0 0.1 0 0.1 0 0.1 0 0.1 0 0.2 0 0.5 0.1 1.1 0.1l0.3-0.1 0.2-0.2 0.2-0.2q0.1-0.1 0.1-0.2 0.1 0 0.2-0.1 0.1 0 0.1-0.1 0.1 0 0.2 0 0.2-0.1 0.4 0 0.1 0 0.3 0.1 0.1 0.1 0.2 0.3 0.1 0.1 0.2 0.3 0 0.1 0 0.2 0 0 0 0.1 0 0.1-0.1 0.2 0 0.1-0.1 0.1c-0.2 0.3-0.3 0.6-0.6 0.8-0.4 0.3-0.8 0.5-1.3 0.6q-0.4 0-0.8 0l-0.8-0.1q-0.3 0-0.6-0.3-0.2-0.3-0.2-0.7 0-0.1 0-0.2zm8.3-27.9c0.7 0 1.5 0 2.2 0.2q0.4 0.1 0.7 0.3 0.2 0 0.4 0.1 0.1 0.1 0.3 0.2 0.1 0.1 0.2 0.2 0.2 0.1 0.3 0.3 0.2 0.2 0.4 0.5 0.4 0.5 0.7 0.9c0.2 0.5 0.4 0.9 0.5 1.3q0.1 0.3 0.1 0.5 0.1 0.3 0.1 0.5 0.1 0.3 0.1 0.6 0 0.2 0 0.5 0 0.3 0 0.7 0 0.4 0 0.7-0.1 0.4-0.2 0.7-0.1 0.4-0.2 0.7-0.1 0.4-0.3 0.7c-0.1 0.4-0.4 0.7-0.6 1l-0.3 0.4-0.3 0.1q-0.4-0.2-0.9-0.2h-0.5q-0.2 0-0.5-0.1l0.8-0.9 0.4-0.6q0.2-0.3 0.4-0.6 0.3-0.7 0.4-1.5c0.1-0.6 0-1.2 0-1.8q-0.2-0.8-0.4-1.4-0.2-0.3-0.3-0.5-0.1-0.2-0.3-0.4-0.1-0.2-0.3-0.4-0.2-0.2-0.3-0.4-0.2-0.1-0.4-0.2-0.3-0.1-0.6-0.2-0.2-0.1-0.5-0.1-0.3 0-0.5 0-0.3 0-0.6 0h-1.3c-0.9 0-1.7 0-2.6 0.1q-0.6 0.1-1.1 0.3-0.6 0.1-1.1 0.3-0.6 0.2-1.1 0.5-0.5 0.2-1 0.5-0.3 0.2-0.7 0.5-0.4 0.2-0.7 0.5-0.3 0.2-0.6 0.5-0.3 0.3-0.6 0.7-0.2 0.2-0.4 0.5-0.1 0.4-0.2 0.8 0 0.2-0.2 0.3-0.1 0.2-0.2 0.3-0.2 0.1-0.4 0.1-0.1 0-0.3 0c-0.5-0.2-0.8-0.7-0.6-1.2 0.1-0.3 0.2-0.7 0.3-1.1q0.3-0.5 0.7-1 0.5-0.6 1.2-1.2c0.7-0.6 1.4-1 2.2-1.5 0.9-0.4 1.8-0.8 2.7-1.1q0.3-0.1 0.7-0.2 0.3-0.1 0.7-0.2 0.3 0 0.6-0.1 0.4 0 0.7-0.1 1.4 0 2.7 0zm-1.2 14.8h0.5q-0.1 0.1-0.3 0.1-0.1 0-0.3 0-0.1 0-0.3 0-0.1-0.1-0.3-0.1h0.7z"/>
	<path id="Layer" fill-rule="evenodd" class="s0" d="m98.8 18.5c0.5 0 0.9 0.4 0.9 0.9 0 0.5-0.4 0.9-0.9 0.9-0.5 0-0.9-0.4-0.9-0.9 0-0.5 0.4-0.9 0.9-0.9zm3.2-1.7c0.5 0 0.9 0.4 0.9 0.9 0 0.5-0.4 0.9-0.9 0.9-0.5 0-0.9-0.4-0.9-0.9 0-0.5 0.4-0.9 0.9-0.9zm-1 5.8q0-0.1 0.1-0.1 0 0 0.1 0 0 0 0.1 0 0 0 0.1 0 0 0 0 0 0.1 0 0.1 0 0 0 0.1 0 0.1 0.1 0.3 0.2 0.1 0.1 0.2 0.3 0.1 0.1 0.1 0.3 0 0.2 0 0.3c-0.1 0.3-0.2 0.4-0.4 0.6q-0.2 0.1-0.3 0.2-0.2 0.1-0.4 0.1-0.1 0.1-0.3 0.1-0.2 0.1-0.4 0.1-0.3 0-0.6 0c-0.5 0.1-0.9-0.4-0.9-0.9 0-0.5 0.4-0.9 0.9-0.9q0.2 0 0.5 0l0.3-0.1q0.1-0.1 0.3-0.2 0 0 0.1 0zm-25.1 18.7c0.5 0 0.9 0.4 0.9 0.9q0 0.1-0.1 0.1 0 0.1 0 0.2 0 0.1-0.1 0.2 0 0-0.1 0.1-0.1 0.1-0.1 0.1-0.1 0.1-0.2 0.1-0.1 0-0.2 0.1-0.1 0-0.2 0 0 0-0.1 0-0.1 0-0.1 0-0.1 0-0.2 0.1 0 0-0.1 0-0.3 0.2-0.6 0.4c-0.4 0.3-1 0.1-1.2-0.3q-0.1-0.2-0.1-0.4-0.1-0.2 0-0.3 0-0.2 0.1-0.3 0.1-0.2 0.3-0.3 0.2-0.1 0.4-0.2 0.2-0.1 0.4-0.2 0.2-0.1 0.4-0.2 0.2 0 0.4-0.1 0.2 0 0.4 0zm8 10q0.1 0 0.3 0 0.2 0 0.4 0.1 0.1 0.1 0.2 0.2 0.1 0.2 0.2 0.3 0.1 0.6 0.2 1.2 0.1 0 0.1 0 0 0.1 0 0.1 0.1 0.1 0.1 0.1 0 0.1 0 0.1 0.4 0.5 0.9 0.9l0.9 0.6q0.1 0.1 0.3 0.2 0.1 0.1 0.2 0.1 0.2 0.1 0.3 0.2 0.1 0 0.3 0.1 0.1 0 0.2 0.1 0.1 0 0.2 0 0.1 0.1 0.2 0.1 0.1 0 0.2 0l0.8 0.1c0.4 0.1 0.9 0.1 1.3 0.1 0.4-0.1 0.8-0.3 1.1-0.3q0.1-0.1 0.2-0.1 0.1 0 0.2 0 0.1 0.1 0.2 0.1 0.1 0 0.1 0.1 0.1 0 0.2 0.1 0 0 0.1 0.1 0.1 0.1 0.1 0.1 0 0.1 0.1 0.2c0.1 0.4-0.2 1-0.7 1.1q-0.3 0.1-0.5 0.2l-0.3 0.1q-0.5 0.1-1 0.1c-0.6 0-1.2-0.1-1.8-0.2-0.4 0-0.7-0.1-1.1-0.2q-0.5-0.1-1-0.4c-0.5-0.2-1-0.6-1.5-0.9q-0.2-0.1-0.4-0.3-0.2-0.1-0.4-0.3-0.1-0.1-0.3-0.3-0.2-0.2-0.3-0.4c-0.2-0.2-0.3-0.4-0.4-0.6q-0.2-0.3-0.3-0.6c-0.1-0.3-0.2-0.7-0.3-1.1q0-0.1 0-0.1 0-0.1 0-0.2 0-0.1 0.1-0.2 0-0.1 0-0.2 0.1 0 0.1-0.1 0.1-0.1 0.2-0.1 0-0.1 0.1-0.1 0.1-0.1 0.2-0.1zm5.7 4.5h0.2q-0.1 0-0.1 0zm0.1 0q0.1 0 0.1 0zm-45.1 25c0.5 0 0.9 0.4 0.9 0.9v1q0 0.5-0.1 0.9v1.8q-0.1 0.9-0.1 1.8-0.1 0.9-0.1 1.8l-0.1 1.4q-0.1 0.7-0.1 1.4l-0.1 1.4q0 0.7-0.1 1.3-0.1 1.4-0.2 2.7c0 1-0.1 1.9-0.1 2.9 0 0.5-0.4 0.9-0.9 0.9-0.5 0-0.9-0.4-0.9-0.9l0.1-1.9 0.1-1.7q0-0.9 0.1-1.7 0.1-0.9 0.1-1.8 0.1-0.7 0.1-1.4l0.1-1.4c0-0.5 0.1-0.9 0.1-1.4l0.1-1.3c0-1 0-1.9 0.1-2.9l0.1-1.4q0-0.7 0-1.5c0-0.5 0.4-0.9 0.9-0.9zm67.7 1.2c0-0.5 0.4-0.9 0.9-0.9 0.5 0 0.9 0.4 0.9 0.9 0 0.6 0 1.3 0 1.9q-0.1 1-0.1 2-0.1 1.9-0.1 3.9v4.2l-0.1 1.3v1.4l-0.1 1.4-0.1 1.3v0.7q0 0.4-0.1 0.9-0.1 0.1-0.1 0.2 0 0-0.1 0.1 0 0.1-0.1 0.1-0.1 0.1-0.1 0.1c-0.2 0.2-0.5 0.2-0.7 0.1q-0.4-0.1-0.6-0.4 0-0.1-0.1-0.2 0 0 0-0.1 0-0.1 0-0.2 0-0.1 0-0.2l0.1-0.2c0-0.5 0-1.1 0-1.6q0.1-0.9 0.2-1.8 0-0.9 0-1.8 0.1-0.2 0.1-0.4 0-0.2 0-0.5 0-0.2 0-0.4 0-0.2 0-0.5 0-2.7 0-5.5 0-1.4 0.1-2.9 0.1-0.7 0.1-1.4zm-9.9-56.1q0.5 0 1.1 0.1l0.5 0.1 0.6 0.1c0.2 0.1 0.4 0.1 0.6 0.2l0.5 0.2q0.7 0.3 1.4 0.6 0.3 0.2 0.4 0.3 0.2 0.1 0.4 0.3 0.2 0.1 0.3 0.3 0.2 0.2 0.3 0.4 0.2 0.2 0.1 0.5 0 0.3-0.1 0.5-0.2 0.2-0.5 0.3-0.2 0.1-0.5 0c-0.2-0.1-0.4-0.2-0.5-0.4l-0.1-0.1q-0.1-0.1-0.3-0.3c-0.3-0.2-0.6-0.3-1-0.5q-0.4-0.2-0.8-0.3-0.4-0.2-0.8-0.2-0.3-0.1-0.7-0.2l-0.5-0.1q-0.3 0-0.7 0-0.3 0-0.6 0-0.3 0-0.6 0-0.3 0-0.6 0.1-0.3 0-0.6 0c-0.4 0-0.9-0.4-0.9-0.9q0-0.1 0.1-0.2 0-0.1 0-0.1 0-0.1 0.1-0.2 0-0.1 0.1-0.1 0.1-0.1 0.1-0.2 0.1 0 0.2 0 0.1-0.1 0.2-0.1 0.1 0 0.1 0 0.3 0 0.5 0 0.2-0.1 0.5-0.1 0.2 0 0.4 0 0.2 0 0.5 0h0.8z"/>
	<path id="Layer" fill-rule="evenodd" class="s0" d="m109.7 20.9q0.2 0 0.3 0.1 0.2 0.1 0.3 0.2 0.2 0.1 0.2 0.3 0.1 0.1 0.1 0.3c0 0.2-0.1 0.5-0.3 0.6l-0.1 0.2-0.1 0.2-0.1 0.2q-0.2 0.3-0.5 0.5-0.3 0.3-0.6 0.6c-0.2 0.2-0.5 0.4-0.8 0.6-0.2 0.2-0.5 0.4-0.8 0.6q0 0.1-0.1 0.1-0.1 0.1-0.1 0.1-0.1 0-0.2 0.1 0 0-0.1 0.1-0.3 0.2-0.6 0.4l-0.4 0.2-0.3 0.2q-0.4 0.2-0.8 0.4-0.5 0.2-1 0.5l-1.2 0.7c-0.4 0.2-1 0.1-1.2-0.3q-0.1-0.2-0.1-0.4-0.1-0.2 0-0.3 0-0.2 0.1-0.3 0.1-0.2 0.3-0.3l1.3-0.7q0.2-0.1 0.3-0.2 0.2-0.1 0.4-0.2 0.2-0.1 0.3-0.1 0.2-0.1 0.4-0.2 0.1 0 0.1-0.1 0.1 0 0.2 0 0-0.1 0.1-0.1 0.1 0 0.1-0.1l0.5-0.3 0.6-0.4 0.5-0.3q0 0 0.1-0.1 0 0 0.1-0.1 0 0 0.1 0 0.1-0.1 0.1-0.1l0.4-0.3q0.3-0.2 0.6-0.5l0.3-0.4 0.3-0.2 0.1-0.3c0.2-0.2 0.3-0.4 0.5-0.6q0.1-0.1 0.1-0.1 0.1 0 0.1-0.1 0.1 0 0.1 0 0.1 0 0.1-0.1zm-66.3 30q0.1-0.1 0.2-0.1 0 0 0.1 0 0 0 0.1 0 0.1 0 0.2 0 0.1 0.1 0.2 0.1 0.1 0.1 0.2 0.2 0.1 0 0.2 0.2 0.2 0.5 0.5 1.1 0.1 0.2 0.2 0.3 0 0.1 0.1 0.2 0.1 0.1 0.2 0.3 0.1 0.1 0.1 0.2c0.5 0.5 0.9 1.1 1.3 1.7q0.7 0.8 1.4 1.6-0.3 0-0.7 0-0.2 0-0.4 0-0.2 0-0.4 0-0.2 0.1-0.4 0.1-0.2 0.1-0.4 0.1-0.1-0.1-0.2-0.3-0.2-0.2-0.3-0.4-0.1-0.1-0.3-0.3-0.1-0.2-0.2-0.4l-0.8-1c-0.2-0.4-0.5-0.7-0.7-1.1q-0.3-0.6-0.6-1.2 0-0.1-0.1-0.2 0-0.1 0-0.2 0-0.1 0-0.2 0-0.1 0-0.1 0-0.1 0.1-0.2 0-0.1 0.1-0.2 0 0 0.1-0.1 0.1 0 0.1-0.1 0.1 0 0.1 0zm-11.5 12q0.1 0 0.2 0 0.1 0 0.2 0 0 0.1 0.1 0.1 0.1 0.1 0.2 0.1 0 0.1 0.1 0.2 0 0 0.1 0.1 0 0.1 0 0.2l0.2 0.3 0.4 1 0.6 1.2 0.5 1.1q0.1 0.4 0.3 0.8 0.2 0.4 0.4 0.8 0.2 0.4 0.4 0.8 0.2 0.4 0.4 0.8 0.6 1.1 1.3 2 0.2 0.3 0.4 0.5 0.2 0.2 0.4 0.4 0.2 0.2 0.4 0.4 0.2 0.2 0.4 0.4c0.7 0.6 1.3 1.1 1.9 1.7q0.3 0.2 0.6 0.4 0.3 0.1 0.6 0.3 0.3 0.2 0.6 0.3 0.3 0.2 0.6 0.3l-0.1-0.1 0.8 0.4c0.9 0.3 1.8 0.6 2.6 0.9 0.8 0.3 1.7 0.6 2.5 0.8l2.8 0.7c0.9 0.2 1.8 0.4 2.7 0.5 0.9 0.2 1.9 0.4 2.8 0.6q0.5 0.1 1 0.2 0.5 0.1 1 0.2 0.5 0 1 0.1 0.6 0.1 1.1 0.1 0.4 0 0.8 0.1 0.4 0 0.8 0 0.5 0 0.9 0 0.4 0 0.8 0 0.7 0 1.4-0.1l0.3-0.1q0.1 0.3 0.3 0.5 0.2 0.2 0.4 0.4 0.3 0.2 0.5 0.4 0.2 0.1 0.5 0.3c-0.6 0.1-1.3 0.2-1.9 0.3q-1 0.1-1.9 0.1-1.5 0-2.8-0.1c-1 0-2-0.2-3-0.4-0.9-0.1-1.8-0.3-2.8-0.5q-0.6-0.1-1.3-0.3-0.7 0-1.4-0.2c-0.9-0.2-1.8-0.4-2.7-0.6q-0.7-0.2-1.4-0.4-0.7-0.1-1.3-0.3c-0.8-0.2-1.6-0.5-2.4-0.8q-0.7-0.2-1.3-0.5-0.7-0.3-1.3-0.6c-0.8-0.3-1.5-0.6-2.2-1l-0.5-0.4q-0.3-0.2-0.5-0.4-0.5-0.4-0.9-0.8l-1-0.8q-0.8-0.8-1.5-1.7-0.4-0.4-0.6-0.8-0.3-0.4-0.6-0.9-0.3-0.4-0.5-0.8-0.2-0.5-0.4-0.9l-0.6-1.2-1-2.3c-0.4-0.9-0.9-1.8-1.2-2.7q0-0.1 0-0.3 0-0.2 0.1-0.3 0.1-0.2 0.2-0.3 0.2-0.1 0.3-0.2 0.1 0 0.2 0zm42.4 0.7q0.1 0 0.2 0 0.2 0.1 0.3 0.1 0.1 0.1 0.1 0.2 0.1 0.1 0.2 0.2-0.4-0.3-0.8-0.5z"/>
	<path id="Layer" fill-rule="evenodd" class="s0" d="m87.9 55.5q0.2 0 0.4 0.1 0.1 0.1 0.3 0.2 0.1 0.2 0.2 0.3 0.2 0.4 0.2 0.8-0.1 0.4-0.2 0.7c-0.2 0.5-0.5 0.9-0.7 1.3q-0.2 0.3-0.4 0.5-0.2 0.3-0.4 0.5-0.3 0.3-0.5 0.5-0.2 0.3-0.4 0.5l-0.1 0.1q0.7-0.4 1.5-0.9 1-0.6 2-1.2 1-0.6 2-1.2c0.8-0.5 1.7-0.9 2.5-1.3q0.3-0.2 0.7-0.3 0.3-0.2 0.7-0.3 0.3-0.1 0.7-0.2 0.3 0 0.7-0.1 0.2 0 0.3 0 0.1 0 0.3 0 0.1 0 0.3 0.1 0.1 0 0.2 0.1 0.2 0.1 0.3 0.2 0.2 0.1 0.3 0.2 0.1 0.2 0.1 0.4 0.1 0.1 0.1 0.3c0 0.1 0 0.3-0.1 0.5q-0.1 0.3-0.3 0.7-0.1 0.1-0.2 0.3-0.1 0.1-0.2 0.3-0.2 0.1-0.3 0.2-0.1 0.2-0.3 0.3l-1.4 1.1 0.6-0.3q0.7-0.4 1.5-0.6 0.6-0.3 1.3-0.5 0.4 0 0.7-0.1 0.4 0 0.8-0.1 0.3 0 0.7 0 0.4-0.1 0.8-0.1 0.3 0 0.6 0l0.4 0.1q0.2 0 0.4 0 0.1 0 0.1 0.1 0 0 0.1 0 0 0 0 0 0.1 0 0.1 0l0.2 0.1q0 0 0.1 0.1 0 0 0.1 0 0 0 0 0.1 0.1 0 0.1 0l0.2 0.3c0.1 0.2 0.1 0.4 0.1 0.6q0 0.2 0 0.4l-0.1 0.2q-0.1 0.2-0.2 0.3-0.2 0.4-0.5 0.7-0.4 0.5-1 1-0.4 0.4-0.9 0.8-0.4 0.4-0.9 0.8-0.5 0.4-1 0.7-0.5 0.4-1 0.7 0.1 0 0.2 0 0.1 0 0.2-0.1 0.2 0 0.3 0 0.1 0 0.2 0-0.1 0.1-0.2 0.2-0.1 0.1-0.2 0.2-0.1 0.2-0.1 0.3 0 0.1-0.1 0.3l-0.7 0.1q-1 0.3-2 0.5c-0.4 0.1-0.7 0.2-1.1 0.2q-0.6 0.1-1.2 0.3c-0.5 0.1-1.1 0.3-1.7 0.4h-0.2q-0.6 0.1-1.2 0.3c-0.2 0.1-0.4 0.2-0.6 0.2q-0.3 0.1-0.6 0.2h-0.5q0.4-0.1 0.8-0.3 0.4-0.2 0.8-0.4 0.4-0.2 0.8-0.4 0.4-0.3 0.8-0.5l1.3-0.6c0.4-0.2 0.8-0.4 1.2-0.7q0.6-0.3 1.2-0.6l1.2-0.8q1.1-0.7 2.1-1.5 0.8-0.7 1.6-1.3 0.6-0.6 1.2-1.2c-0.8 0-1.5 0.1-2.3 0.1q-0.6 0.1-1.1 0.3-0.6 0.2-1.2 0.5-0.9 0.3-1.7 0.8c-0.6 0.3-1.1 0.5-1.7 0.8q-1.3 0.6-2.5 1.2c-0.8 0.5-1.7 0.9-2.5 1.3l-1.2 0.8q-0.6 0.4-1.2 0.7l-1.2 0.7q-0.1 0.1-0.2 0.1-0.2 0.1-0.3 0.2-0.1 0-0.2 0.1-0.2 0-0.3 0.1-0.4 0.1-0.8-0.1-0.2-0.1-0.3-0.2-0.1-0.1-0.1-0.3-0.1-0.2-0.1-0.4 0.1-0.2 0.2-0.3c0.1-0.2 0.3-0.4 0.4-0.6q0.4-0.2 0.7-0.5 0.3-0.2 0.6-0.5 0.4-0.2 0.7-0.4 0.3-0.3 0.7-0.5c0.7-0.5 1.5-1 2.3-1.5l1.2-0.8 1-0.7c0.8-0.5 1.4-1.1 2.1-1.6l1.6-1.2 0.6-0.4q0.3-0.3 0.6-0.6-0.6 0.1-1.2 0.4-0.5 0.2-0.9 0.4-0.5 0.3-0.9 0.5-0.5 0.2-0.9 0.5-0.5 0.3-0.9 0.5l-1.1 0.7-1.3 0.7c-0.7 0.5-1.5 0.9-2.2 1.3-0.8 0.5-1.6 1.1-2.3 1.6l0.2-0.1q-1.1 0.8-2.3 1.6-0.5 0.4-1 0.7l-0.5 0.3c-0.3 0.2-0.8 0.4-1.1 0.3-0.3-0.1-0.5-0.2-0.6-0.4q-0.1-0.2-0.1-0.5c0-0.3 0.1-0.5 0.3-0.8q0.2-0.2 0.4-0.4l0.8-0.8q0.4-0.5 0.8-1c0.3-0.3 0.6-0.6 1-1q0.8-0.9 1.7-1.9c0.5-0.5 1.1-1.1 1.6-1.7q0-0.1 0.1-0.1 0.1-0.1 0.1-0.2 0.1-0.1 0.1-0.2 0.1-0.1 0.1-0.1l0.2-0.3h-0.1l-1 0.3q-0.9 0.3-1.8 0.6-0.5 0.2-0.9 0.5l-1.1 0.6c-0.6 0.4-1.2 0.9-1.8 1.3l-0.5 0.4-0.6 0.5q-0.7 0.5-1.4 1.1l-1.2 1.1q-0.5 0.4-1 0.7-0.6-0.6-1.4-1.1c0.4-0.4 0.9-0.7 1.4-1.1q0.7-0.6 1.4-1.2 0.8-0.7 1.7-1.4l0.2-0.2h0.1l1.2-0.9q0.6-0.5 1.2-0.8c0.4-0.3 0.7-0.5 1.2-0.7q0.6-0.4 1.3-0.6 0.6-0.2 1.1-0.4c0.9-0.3 1.7-0.6 2.6-0.6q0.2-0.1 0.4 0zm-9.5 4.3v0.1zm0.4-0.4z"/>
	<path id="Layer" fill-rule="evenodd" class="s0" d="m108.8 58.8c0.1 0.1 0.3 0.3 0.3 0.6q0 0.1 0 0.2-0.1 0.1-0.1 0.1 0 0.1-0.1 0.2 0 0.1-0.1 0.2-0.4 0.5-0.9 1.1c-0.2 0.3-0.6 0.6-0.9 0.9l-0.9 0.9q-0.6 0.5-1.3 1-0.5 0.4-1.2 0.8-0.2 0.2-0.6 0.4-0.3 0.2-0.6 0.4-0.3 0.2-0.6 0.3-0.3 0.2-0.7 0.3-0.6 0.3-1.2 0.5l-0.8 0.4q-0.3 0.1-0.6 0.2-0.3 0.1-0.6 0.2-0.3 0.1-0.6 0.2-0.4 0-0.7 0.1-0.6 0.2-1.2 0.3-0.6 0.2-1.2 0.3-0.7 0.1-1.3 0.2-0.6 0.1-1.2 0.2-0.7 0.1-1.3 0.2c-0.9 0-1.8 0-2.7 0q-0.8 0-1.5 0-0.2-0.1-0.4-0.1-0.2 0-0.3 0-0.2 0-0.4 0-0.2 0-0.4-0.1l-1.5-0.1-1.3-0.2c-0.6-0.1-1.3-0.2-1.9-0.2q-0.5-0.1-0.9-0.2-0.5-0.1-0.9-0.2-0.5-0.2-0.9-0.3-0.5-0.2-0.9-0.4-0.4-0.2-0.8-0.4l-0.1 0.4q-0.2 0.7-0.3 1.4l-0.2 1.3c0 0.4-0.1 0.8-0.1 1.2q-0.1 0.7-0.1 1.3-0.1 0.7-0.2 1.4c-0.1 0.9-0.2 1.8-0.3 2.7 0 0.8-0.1 1.5-0.2 2.3q-0.1 1.1-0.3 2.2 0 0.1 0 0.2 0 0.1 0.1 0.2 0 0.1 0 0.2 0 0.1 0 0.2 0.1 0.1 0.2 0.2 0.1 0.1 0.3 0.2 0.1 0.1 0.2 0.2 0.1 0 0.3 0.1l0.7 0.3 1.7 0.6 1.1 0.4 1.1 0.4q0.6 0.3 1.3 0.4 0.4 0.2 0.8 0.2 0.4 0.1 0.9 0.2 0.4 0.1 0.8 0.2 0.4 0 0.9 0.1 0.7 0.1 1.4 0.2 1.4 0 2.8 0c0.9 0 1.9 0 2.9 0.1 0.9 0.1 1.9 0.1 2.8 0.1q1.4-0.1 2.9-0.1 1.3 0 2.7-0.2c0.9-0.1 1.8-0.3 2.7-0.4l1-0.2h-0.2q0.7-0.1 1.4-0.3 0.2 0 0.3-0.1 0.2 0 0.3-0.1 0.2 0 0.4-0.1 0.1-0.1 0.3-0.1 1.1-0.6 2.2-1.3c0.7-0.4 1.4-0.8 2-1.3q0.9-0.8 1.7-1.7c0.6-0.6 1.1-1.3 1.6-1.9l0.7-1 0.7-1 0.8-1.1 0.7-0.8 0.2-0.4c0.1-0.2 0.3-0.3 0.5-0.4q0.3-0.1 0.6 0 0.2 0 0.4 0.3 0.2 0.2 0.2 0.5 0 0.2-0.1 0.5c-0.5 0.8-1.1 1.6-1.7 2.3l-1.6 2.2q-0.4 0.5-0.8 1-0.3 0.4-0.6 0.8-0.3 0.4-0.7 0.8-0.4 0.3-0.7 0.7-0.4 0.3-0.8 0.7-0.9 0.7-1.9 1.3l-1.2 0.6-1 0.6c-0.2 0.1-0.4 0.2-0.6 0.3q-0.3 0.1-0.6 0.2c-0.8 0.3-1.6 0.5-2.4 0.6q-0.7 0.2-1.5 0.3l-1.3 0.2c-0.9 0.1-1.8 0.2-2.7 0.3q-0.6 0.1-1.3 0.1h-1.4c-1 0-2 0-2.9 0-0.5 0-1 0-1.4-0.1q-0.7 0-1.4 0c-1 0-1.9 0-2.9-0.1-1 0-2-0.1-3-0.2q-1.4-0.2-2.8-0.5-1-0.3-1.9-0.6c-0.7-0.2-1.3-0.5-1.9-0.7l-1-0.4-1.3-0.4q-0.2-0.1-0.3-0.1-0.1-0.1-0.3-0.2-0.1 0-0.2-0.1-0.2-0.1-0.3-0.1-0.1-0.1-0.3-0.2-0.1-0.1-0.2-0.2-0.2-0.1-0.3-0.2-0.1-0.1-0.2-0.2-0.2-0.1-0.3-0.3-0.1-0.1-0.2-0.3 0-0.2-0.1-0.3 0-0.2-0.1-0.4 0-0.3 0-0.6c0-0.4 0.1-0.9 0.1-1.3l0.2-1.2q0-0.6 0.1-1.2 0-0.6 0.1-1.2 0.1-0.8 0.2-1.6 0-0.7 0.1-1.4l0.2-1.4q0.1-1.4 0.3-2.8l0.2-1.3q0.1-0.7 0.2-1.4c0.1-0.4 0.2-0.8 0.4-1.2q0-0.2 0.2-0.4 0.1-0.1 0.3-0.2 0.2-0.1 0.4-0.1 0.2 0 0.4 0c0.2 0.1 0.5 0.2 0.7 0.4q0.8 0.5 1.8 0.8 0.9 0.3 1.8 0.5c0.6 0.2 1.3 0.2 2 0.3l1.8 0.2c0.7 0.1 1.3 0.2 2 0.3q0.4 0 0.9 0 0.4 0 0.8 0.1 0.5 0 0.9 0 0.5 0 0.9 0c0.5-0.1 1.1-0.1 1.6-0.1q0.9-0.1 1.7-0.2l0.6-0.1 2-0.5q1.1-0.2 2.3-0.5l0.9-0.3q0.6-0.2 1.1-0.4l1-0.5 0.8-0.3q0.4-0.3 0.9-0.5 0.4-0.3 0.8-0.5 0.4-0.3 0.8-0.6 0.4-0.3 0.7-0.6c0.6-0.4 1.1-1 1.6-1.4q0.5-0.4 0.9-0.8c0.3-0.4 0.5-0.7 0.8-1.1q0.1-0.1 0.2-0.2 0.1 0 0.2-0.1 0.1 0 0.2 0 0.1 0 0.2 0 0.3 0.1 0.5 0.3zm-64.9-24q0.1-0.2 0.3-0.2 0.2-0.1 0.3-0.2 0.2 0 0.4 0.1 0.2 0 0.3 0.1 0.1 0.1 0.2 0.3 0.1 0.2 0.1 0.3 0.1 0.2 0 0.4l-0.8 3.5-0.4 1.5q-0.1 0.5-0.2 0.9 0 0.3 0 0.6-0.1 0.2-0.1 0.5 0 0.3-0.1 0.6 0 0.3 0 0.6 0 0.8 0 1.7c0 1.1 0 2.1 0.1 3.2q0.1 0.6 0.3 1.1l0.3 1q0.1 0.6 0.3 1.1 0.1 0.7 0.2 1.3 0 0 0 0.1 0 0 0 0.1 0 0.1 0 0.1 0 0.1 0 0.1l-0.1 0.3q-0.1 0.1-0.2 0.2-0.2 0.1-0.3 0.2-0.2 0-0.4 0-0.2 0-0.3-0.1c-0.2-0.1-0.4-0.3-0.4-0.5q-0.2-1-0.4-1.8-0.2-0.8-0.5-1.6-0.3-0.9-0.3-1.9-0.1-0.9-0.1-1.8-0.1-1.3 0-2.7 0-0.3 0-0.6 0-0.3 0.1-0.6 0-0.3 0-0.5 0.1-0.3 0.1-0.6 0-0.3 0.1-0.6 0.7-3 1.4-5.9 0-0.2 0.1-0.3zm-16.4 8q0.1 0 0.2-0.1 0.1 0 0.2 0 0 0 0.1 0c0.5 0 1 0.4 0.9 0.9v1.4q-0.1 0.5-0.1 1 0 1.2 0 2.3c0.1 0.8 0.1 1.6 0.2 2.4q0 0.6 0.1 1.1l0.1 0.9q0.1 0.6 0.2 1.2 0.1 0.5 0.2 1 0.1 0.5 0.2 1 0.1 0.5 0.2 0.9 0.1 0.5 0.3 1l0.3 1.2 0.4 1.4 0.4 1.1q0.2 0.6 0.4 1.1 0.2 0.3 0.3 0.7 0.2 0.3 0.4 0.6 0.2 0.4 0.4 0.7 0.2 0.3 0.4 0.6l0.7 1.1c0.3 0.4 0.1 1-0.3 1.2-0.5 0.3-1 0.1-1.3-0.3l-0.8-1.4q-0.4-0.5-0.7-1.1-0.2-0.3-0.4-0.6-0.1-0.3-0.3-0.6-0.1-0.4-0.3-0.7-0.1-0.3-0.2-0.6l-0.4-1.2q-0.2-0.7-0.4-1.3c-0.2-0.8-0.5-1.6-0.7-2.5q-0.3-1.3-0.5-2.6l-0.2-1.3q-0.1-0.7-0.2-1.5l-0.2-1.3q0-0.5 0-1 0-0.5-0.1-1 0-0.5 0-1 0-0.5 0-1c0-1 0.1-2 0.1-2.9q0-0.1 0-0.2 0.1-0.1 0.1-0.2 0 0 0.1-0.1 0-0.1 0.1-0.2 0.1 0 0.1-0.1zm51.4 16.7v-0.1 0.1zm0.8 1.7v-0.1zm12.6 5.8h-0.2z"/>
	<path id="Layer" fill-rule="evenodd" class="s0" d="m63.7 53.6c0.8 0.3 1.6 0.8 2.4 1.2q0.6 0.3 1.1 0.7 0.6 0.4 1.2 0.9c0.4 0.3 0.7 0.6 1 0.9q0.6 0.5 1 1.1l1.1 1.2 0.2 0.3q0.7 0.8 1.4 1.7 0.5 0.7 1.1 1.5c0.4 0.5 0.8 0.9 1.2 1.5q0.5 0.8 1 1.8 0.2 0.3 0.1 0.7 0 0 0 0.1 0 0.1-0.1 0.2 0 0.1-0.1 0.1-0.1 0.1-0.2 0.1c-0.4 0.3-1 0.2-1.2-0.2q-0.5-0.9-1-1.6c-0.3-0.5-0.6-1-1-1.4l-1-1.4q-0.6-0.7-1.1-1.4-0.1-0.1-0.2-0.2-0.1-0.1-0.1-0.2-0.1-0.1-0.2-0.2-0.1-0.1-0.1-0.2l0.1 0.2-0.4-0.5c-0.5-0.6-1-1.2-1.6-1.7l-0.9-0.9q-0.4-0.3-0.8-0.6-0.8-0.6-1.7-1-0.4-0.3-0.9-0.5 0 0 0-0.1 0 0 0 0 0 0-0.1 0 0 0 0 0l0.1 0.3q0.2 0.4 0.3 0.7c0.4 0.7 0.8 1.4 1.2 2.1 0.5 0.8 0.9 1.5 1.3 2.3q0.4 0.6 0.7 1.2 0.3 0.6 0.7 1.1c0.2 0.4 0.4 0.7 0.6 1.1q0.1 0.2 0.3 0.4c0.1 0.3 0.2 0.6 0.1 0.9q0 0 0 0.1 0 0 0 0.1-0.1 0.1-0.1 0.1 0 0.1-0.1 0.1 0 0.1-0.1 0.1-0.1 0.1-0.2 0.1-0.1 0.1-0.2 0.1 0 0-0.1 0c-0.4 0.1-0.8-0.3-1.1-0.5q0 0-0.1-0.1 0 0-0.1-0.1-0.1-0.1-0.1-0.1-0.1-0.1-0.1-0.1-0.5-0.5-0.9-0.9c-0.6-0.7-1.2-1.4-1.8-2.1q-0.2-0.2-0.4-0.5-0.2-0.2-0.5-0.5-0.2-0.2-0.5-0.5-0.2-0.2-0.5-0.5c-0.6-0.6-1.3-1.2-2-1.8l-1-1-1-0.9q-0.4-0.4-0.7-0.7-0.4-0.4-0.8-0.7-0.4-0.3-0.8-0.7-0.4-0.3-0.8-0.6-0.2-0.1-0.3-0.2-0.1-0.1-0.3-0.2-0.1 0-0.3-0.1-0.1-0.1-0.2-0.1 0.2 0.3 0.4 0.6l0.5 0.6 1.3 1.5c0.6 0.7 1.2 1.4 1.8 2.1q0.4 0.4 0.9 0.9l1 1.1c0.6 0.7 1.3 1.3 1.9 2q0.3 0.3 0.6 0.6 0.3 0.3 0.6 0.6 0.3 0.3 0.5 0.6 0.3 0.4 0.5 0.7c0.2 0.2 0.3 0.4 0.4 0.6q0.1 0.4 0 0.8c-0.1 0.2-0.3 0.3-0.6 0.4q-0.1 0-0.2 0-0.1 0-0.2 0-0.1 0-0.2 0-0.1-0.1-0.2-0.1-0.1-0.1-0.2-0.2-0.2-0.1-0.3-0.2-0.1-0.1-0.2-0.1-0.1-0.1-0.2-0.2l-1-0.9q-0.6-0.5-1.1-1l-1.1-1.1c-0.6-0.6-1.4-1.2-2.1-1.8l-2.2-1.8c-0.5-0.4-1.1-0.8-1.6-1.2q-0.7-0.6-1.5-1.2l-1-0.7q-0.2 0-0.3-0.1-0.1-0.1-0.3-0.1-0.1-0.1-0.2-0.2-0.2 0-0.3-0.1-1.1-0.3-2.2-0.6c0.2 0.5 0.6 1 0.9 1.4q0.3 0.5 0.7 1 0.4 0.4 0.8 0.9 0.4 0.4 0.8 0.9 0.4 0.4 0.8 0.8l1 1.1q0.5 0.4 1 0.9 0.5 0.4 1 0.9 0.6 0.4 1.2 0.9 0.4 0.4 0.8 0.7 0.5 0.4 0.9 0.7 0.4 0.4 0.8 0.7 0.5 0.3 0.9 0.7 0.3 0.2 0.6 0.4l0.3 0.3c0.2 0.2 0.4 0.5 0.4 0.8q0 0.1 0 0.2-0.1 0.1-0.1 0.2-0.1 0.1-0.1 0.2-0.1 0.1-0.2 0.2-0.1 0.1-0.2 0.1-0.2 0-0.3 0-0.1 0-0.2 0-0.1 0-0.3-0.1c-0.2-0.1-0.3-0.2-0.5-0.3l-0.4-0.4-1.1-0.7-0.4-0.3q-0.5-0.4-1-0.7-0.6-0.4-1.1-0.7-0.5-0.4-1-0.7-0.6-0.3-1.1-0.6l-1.1-0.6-1.1-0.6q-0.5-0.3-1-0.6l-0.7-0.3q0.2 0.4 0.5 0.8 0.9 1 1.8 1.8 0.9 0.9 1.9 1.7l0.9 0.7q0.5 0.4 1 0.8c0.6 0.5 1.2 1.1 1.8 1.6l1.2 0.8q0.7 0.4 1.3 0.9l0.3 0.1c0.1 0.1 0.3 0.2 0.5 0.4q0.2 0.2 0.3 0.6 0 0.2-0.1 0.5-0.1 0-0.1 0.1 0 0-0.1 0.1 0 0-0.1 0 0 0.1-0.1 0.1 0 0.1-0.1 0.1-0.1 0-0.2 0.1-0.1 0-0.2 0-0.1 0-0.2-0.1-0.1 0-0.1 0-0.1 0-0.1-0.1-0.1 0-0.2 0 0 0-0.1-0.1l-0.6-0.3q-0.2-0.1-0.5-0.2-0.2-0.1-0.5-0.2-0.2-0.1-0.5-0.2-0.2-0.1-0.5-0.2-0.1 0-0.2 0-0.1-0.1-0.3-0.1-0.1 0-0.2 0-0.1-0.1-0.3-0.1-0.2 0-0.4 0-0.2 0-0.5 0-0.2 0-0.4 0.1-0.3 0-0.5 0l0.1 0.1c0.4 0.5 1 0.9 1.5 1.3l0.4 0.3-0.2-0.1c0.4 0.2 0.8 0.5 1.2 0.7l1.2 0.7c0.4 0.3 0.8 0.6 1.2 0.8l1.2 0.7c0.8 0.4 1.7 0.8 2.5 1.3l0.4 0.3q0.3 0.1 0.6 0.3 0.5 0.2 1 0.6 0.5 0.3 1 0.6 0.5 0.3 1.1 0.6l1.1 0.5q0.7 0.3 1.3 0.5 1 0.4 1.9 0.8 1.1 0.4 2.1 0.8c0.2 0.1 0.4 0.3 0.5 0.6q0 0.1 0 0.3 0 0.2-0.1 0.4-0.1 0.1-0.2 0.2-0.1 0.2-0.3 0.2l-0.2 0.1q-0.1 0-0.2-0.1 0 0-0.1 0 0 0-0.1 0-0.1 0-0.1 0c-0.6-0.3-1.1-0.5-1.7-0.7l-1.5-0.6q-0.7-0.2-1.3-0.5l-1.3-0.6q-0.7-0.3-1.3-0.6-0.6-0.3-1.1-0.7-0.5-0.3-1.1-0.6c-0.3-0.2-0.7-0.4-1-0.6-0.3-0.2-0.7-0.4-1.1-0.6l-1.2-0.7q-0.7-0.3-1.4-0.7-0.7-0.4-1.4-0.9l-1.3-0.8-0.7-0.4q-0.3-0.2-0.6-0.4c-0.8-0.5-1.5-1.1-2.1-1.7q0-0.1 0-0.2-0.1 0-0.1-0.1-0.1 0-0.1-0.1-0.1 0-0.1-0.1-0.1-0.2-0.2-0.5c-0.2-0.3-0.1-0.6-0.1-0.9l0.1-0.1q0-0.1 0-0.2 0.1-0.1 0.1-0.2 0.1-0.1 0.2-0.2 0-0.1 0.1-0.1 0.4-0.4 0.9-0.5c0.5-0.1 1-0.1 1.5-0.1h0.1l-1-0.9c-0.6-0.6-1.4-1.1-2-1.6q-0.4-0.4-0.8-0.8-0.4-0.3-0.8-0.7-0.4-0.3-0.8-0.7-0.3-0.4-0.7-0.8-0.1-0.1-0.2-0.3-0.2-0.1-0.3-0.3-0.1-0.1-0.2-0.3-0.1-0.1-0.2-0.3-0.1-0.1-0.2-0.3 0-0.1-0.1-0.3-0.1-0.1-0.1-0.3-0.1-0.1-0.1-0.3c-0.1-0.4-0.1-0.8 0-1.2 0.1-0.1 0.2-0.3 0.3-0.4l0.1-0.1q0.1-0.1 0.3-0.2c0.3-0.2 0.7-0.1 1-0.1 0.1 0.1 0.3 0.1 0.4 0.2q0.1 0 0.3 0.1 0.1 0 0.3 0.1 0.2 0.1 0.3 0.1 0.2 0.1 0.3 0.2-0.4-0.5-0.8-1-0.5-0.4-0.9-0.9-0.4-0.5-0.7-1-0.4-0.5-0.8-1-0.4-0.6-0.8-1.2 0-0.1-0.1-0.2 0-0.1 0-0.2-0.1-0.1-0.1-0.2-0.1-0.1-0.1-0.2 0-0.1 0-0.1-0.1-0.1-0.1-0.2 0-0.1 0-0.1 0-0.1 0-0.2 0-0.2 0-0.4c0-0.2 0.1-0.4 0.2-0.5l0.3-0.3q0.2-0.1 0.3-0.1l0.3-0.1q0.1 0 0.2 0c0.2 0 0.4 0 0.5 0l0.4 0.1 0.6 0.1q0.4 0.1 0.8 0.2 0.4 0.1 0.7 0.2 0.4 0.1 0.7 0.3 0.4 0.1 0.7 0.3c0.5 0.2 0.9 0.4 1.2 0.7q0.3 0.1 0.5 0.3 0.3 0.2 0.5 0.3 0.2 0.2 0.4 0.4 0.3 0.2 0.5 0.4-0.6-0.7-1.1-1.4-0.2-0.2-0.3-0.4-0.1-0.1-0.2-0.3-0.1-0.1-0.1-0.3-0.1-0.2-0.2-0.4-0.1-0.4-0.1-0.8c-0.1-0.1 0-0.3 0-0.4q0-0.2 0.1-0.3 0.1-0.2 0.3-0.3 0.1-0.2 0.2-0.2 0.2-0.1 0.4-0.2c0.4-0.1 0.8 0 1.1 0.1q0.4 0.1 0.7 0.3 0.4 0.1 0.7 0.3 0.3 0.2 0.7 0.4 0.3 0.2 0.5 0.5 1.2 0.9 2.2 1.8c0.6 0.6 1.2 1.1 1.8 1.7q0.8 0.8 1.7 1.6 0.7 0.6 1.4 1.2l-0.1-0.1c-0.5-0.8-0.9-1.5-1.3-2.4q-0.1-0.1-0.1-0.3-0.1-0.2-0.2-0.4 0-0.1-0.1-0.3 0-0.2 0-0.4 0-0.1 0-0.2-0.1-0.1-0.1-0.1 0-0.1 0.1-0.2 0-0.1 0-0.2 0-0.4 0.3-0.8 0.1-0.1 0.3-0.2 0.1-0.1 0.3-0.2 0.2 0 0.4 0 0.2 0 0.4 0zm0.5 9q0 0.1 0.1 0.1l-0.2-0.2q0.1 0.1 0.1 0.1zm-7.4 5l0.2 0.1-0.2-0.1zm-9.3-5.4zm0.6-0.3q0 0 0 0 0 0 0 0 0 0 0 0 0 0 0 0zm23.3-2.3h0.1q-0.1 0-0.1 0 0 0 0 0 0 0 0 0 0 0 0 0zm-17.6-6.7v0.1-0.1zm-1.3 19.4q0 0 0 0 0 0 0 0 0 0 0 0 0 0 0 0.1zm59.2-29.4c0 2 0.1 4.1 0.1 6.1q0 0.4-0.1 0.8 0 0.4 0 0.7-0.1 0.4-0.1 0.8-0.1 0.3-0.1 0.7c-0.2 0.9-0.4 1.8-0.6 2.8q-0.2 0.8-0.5 1.7-0.3 1-0.8 1.8-0.4 0.7-0.8 1.5-0.4 0.8-0.7 1.7-0.2 0.2-0.4 0.3-0.3 0.2-0.5 0.1-0.3 0-0.5-0.2-0.2-0.1-0.3-0.4l-0.1-0.2q0-0.3 0.1-0.5 0.3-0.6 0.5-1.2 0.3-0.5 0.6-1 0.2-0.5 0.5-1 0.3-0.5 0.5-1c0.4-1 0.6-2.1 0.8-3.2q0.2-0.8 0.4-1.7 0-0.3 0.1-0.6 0-0.3 0-0.6 0.1-0.2 0.1-0.5 0-0.3 0-0.6v-0.9-1.6-3.7c-0.1-0.5 0.3-1 0.8-1q0.2 0 0.4 0.1 0.2 0 0.3 0.2 0.1 0.1 0.2 0.2 0.1 0.2 0.1 0.4zm14.1 11q0.1 0 0.1 0 0.1 0.1 0.2 0.1 0.1 0.1 0.1 0.1 0.1 0.1 0.1 0.2 0.1 0.1 0.1 0.1 0 0.1 0 0.2 0.1 0.1 0.1 0.2-0.1 0.1-0.1 0.2c-0.1 0.9-0.2 1.9-0.5 2.9q-0.3 1.3-0.6 2.6-0.2 0.7-0.4 1.3-0.2 0.7-0.4 1.3-0.3 0.8-0.5 1.5c-0.2 0.4-0.4 0.8-0.5 1.2q-0.5 1.3-1.1 2.5c-0.4 0.8-0.9 1.5-1.3 2.3q-0.3 0.6-0.6 1.2l-0.7 1.1q-0.4 0.7-0.8 1.3-0.2 0.2-0.4 0.5-0.2 0.2-0.5 0.5-0.2 0.3-0.4 0.5-0.3 0.2-0.5 0.5l-1.2 1.1c-0.3 0.4-0.9 0.4-1.3 0.1-0.3-0.3-0.4-1 0-1.3l0.9-0.9q0.3-0.3 0.5-0.5 0.3-0.3 0.6-0.6 0.2-0.3 0.5-0.6 0.2-0.3 0.5-0.6 0.3-0.5 0.6-1 0.3-0.5 0.6-1 0.3-0.7 0.7-1.3 0.3-0.6 0.6-1.2 0.3-0.4 0.5-0.8 0.2-0.5 0.4-1 0.2-0.4 0.4-0.9 0.2-0.4 0.4-0.9l0.5-1.1 0.3-1 0.4-1.1q0.3-1.1 0.6-2.3 0.3-1.1 0.5-2.2 0.1-0.6 0.2-1.1l0.2-1.4 0.1-0.1q0.3 0 0.6-0.2 0.3-0.2 0.5-0.4zm-73.2 18.1c-52.6-72-52.6-72-52.6-72zm19.1-12h0.1z"/>
	<g id="Clip-Path" clip-path="url(#cp1)">
		<g id="Layer">
			<path id="Layer" fill-rule="evenodd" class="s0" d="m117.5 10.5l0.6 0.4 0.5 0.3c0.4 0.3 0.8 0.6 1.2 0.9q0.4 0.5 0.8 1l0.3 0.4 0.1 0.1 0.4 0.5 0.2 0.4v-0.1q0.1 0.2 0.3 0.4 0.1 0.1 0.2 0.3 0.2 0.2 0.3 0.4 0.1 0.2 0.2 0.4c0.3 0.4 0.5 0.9 0.7 1.4q0.2 0.4 0.3 0.9l0.3 0.7q0.3 0.7 0.5 1.4c0.1 0.6 0.3 1.1 0.4 1.7l0.2 0.8 0.2 1-0.1-0.2 0.2 1.4c0 0.3 0.1 0.7 0.1 1.1q0 0.2 0 0.3 0 0.2 0 0.4 0 0.1 0.1 0.3 0 0.1 0 0.3l0.1 1.2 0.2 2.4 0.2 1.2q0 0.6 0.1 1.2c0 0.9 0.1 1.9 0.2 2.8q0 0.4 0.1 0.7 0 0.3 0 0.7 0 0.3 0.1 0.6 0 0.4 0 0.7 0 1.4 0.1 2.7 0.1 0.6 0.1 1.3l0.1 1.4v1.4l0.1 1.3q0.1 0.6 0 1.3v1.3q0.1 1.3 0 2.7 0 0.6 0 1.3-0.1 0.6-0.2 1.2 0 0.4-0.1 0.8-0.1 0.3-0.1 0.5l-0.4 1.4q0 0.2-0.1 0.3-0.2 0.2-0.3 0.3-0.2 0-0.3 0.1-0.2 0-0.4-0.1c-0.5-0.1-0.8-0.6-0.6-1.1q0.2-0.6 0.3-1.2 0.1-0.5 0.2-0.9l0.1-1.1c0.1-0.7 0.1-1.3 0.1-2v-4.3c0-0.6 0-1.3-0.1-2q0-0.7 0-1.4l-0.1-1.4-0.1-1.4-0.1-1.2q0-1.4-0.1-2.7c-0.1-0.9-0.2-1.9-0.2-2.8q-0.1-0.7-0.2-1.4 0-0.7-0.1-1.3l-0.1-1.3q0-0.6-0.1-1.3l-0.2-1.3q0-0.6-0.1-1.3 0-0.7-0.1-1.3 0-0.6-0.1-1.2v-0.5q-0.2-0.7-0.4-1.5-0.2-0.7-0.4-1.4-0.2-0.7-0.4-1.3l-0.4-1.2q-0.1-0.2-0.2-0.4-0.1-0.2-0.2-0.4-0.1-0.2-0.1-0.3-0.1-0.2-0.2-0.4-0.3-0.5-0.7-1l-0.3-0.3 0.2 0.1-0.6-0.7-0.2-0.3 0.1 0.1-0.3-0.3v-0.1c-0.4-0.4-0.7-0.8-1.1-1.2l-0.6-0.4q-0.4-0.3-0.7-0.5l-0.2-0.1q0.3-0.2 0.6-0.6c0.1-0.3 0.2-0.7 0.2-1z"/>
		</g>
	</g>
	<path id="Layer" fill-rule="evenodd" class="s0" d="m46.9 10.8l-0.3 0.7q0 0.1-0.1 0.3-0.1 0.2-0.1 0.4-0.1 0.1-0.2 0.3 0 0.2-0.1 0.4-0.4 0.2-0.9 0.3c-0.2 0.1-0.5 0.1-0.8 0.2l-1 0.5-0.5 0.3q-0.3 0.1-0.6 0.3-0.4 0.3-0.9 0.6l-0.8 0.6-0.7 0.7-1 0.7q-0.4 0.4-0.8 0.8-0.4 0.4-0.7 0.8l-0.7 0.9 0.1-0.2-0.5 0.7q-0.3 0.4-0.6 0.9c-0.2 0.3-0.4 0.7-0.7 1.1q-0.3 0.6-0.6 1.1-0.3 0.5-0.5 1l-0.5 1.3-0.6 1.4q-1 2.1-1.6 4.4-0.3 1.1-0.6 2.2-0.2 0.6-0.3 1.1-0.1 0.6-0.2 1.1l-0.2 2q-0.1 1.1-0.3 2.2c-0.1 0.6-0.1 1.1-0.1 1.7q-0.1 0.9-0.3 1.9 0 0.2 0 0.4-0.1 0.2-0.1 0.4 0 0.2 0 0.4 0.1 0.2 0.1 0.4l0.1 0.5q0 0.1 0 0.2 0 0 0 0.1 0 0 0 0.1 0 0.1 0 0.1l-0.1 0.2q-0.1 0.2-0.3 0.3-0.1 0.1-0.3 0.2-0.2 0-0.3 0-0.2-0.1-0.4-0.1c-0.1-0.1-0.3-0.4-0.4-0.6-0.1-0.7-0.2-1.3-0.1-2 0-0.6 0.1-1.3 0.2-1.9q0.1-0.9 0.2-1.9 0.1-1.1 0.3-2.1c0.1-1.1 0.1-2.1 0.3-3.2q0.1-0.6 0.3-1.3l0.3-1.4q0.2-0.6 0.4-1.2 0.1-0.7 0.3-1.3 0.2-0.6 0.5-1.3 0.2-0.6 0.5-1.2l0.5-1.4 0.5-1.1 0.1-0.2c0.2-0.5 0.4-1.1 0.7-1.6q0.3-0.8 0.8-1.5l0.5-0.9q0.2-0.4 0.5-0.8 0.2-0.3 0.5-0.6l0.5-0.7 0.1-0.1c0.3-0.4 0.6-0.8 0.9-1.2q0.4-0.5 0.9-0.9 0.5-0.5 1.1-1 0.5-0.4 1-0.9l1.1-0.8q0.5-0.3 1-0.7 0.3-0.1 0.6-0.3l0.5-0.2q0.6-0.3 1.2-0.6c0.4-0.2 0.9-0.3 1.3-0.4l0.6-0.2q0.3-0.1 0.5-0.3 0.4-0.1 0.8-0.1z"/>
	<path id="Layer" fill-rule="evenodd" class="s0" d="m33.4 25.5l-0.1 0.1 0.1-0.2zm11.6 53.6c0.4 0 0.9 0.4 0.9 0.9l-0.1 1.6v0.7q0 0.3-0.1 0.7c-0.1 1.7-0.1 3.4-0.1 5.1q0.1 0.7 0 1.4l-0.1 1.4q0 0.6 0 1.3-0.1 0.7-0.1 1.3l-0.1 1.3q-0.1 0.7-0.1 1.4l-0.1 1.3q0 0.6 0 1.3-0.1 0.7-0.1 1.3-0.1 0.6-0.1 1.1v1.2 1c0 0.2 0 0.4-0.1 0.6q0 0.1-0.1 0.1 0 0.1 0 0.1 0 0.1-0.1 0.1 0 0.1-0.1 0.1l-0.1 0.1q-0.1 0.1-0.2 0.1-0.1 0.1-0.2 0.1-0.1 0-0.2 0-0.1 0-0.1-0.1-0.4-0.1-0.6-0.4c-0.1-0.2-0.1-0.5-0.1-0.7h0.1c0-0.4 0-0.9 0-1.3q0-0.2 0-0.5 0-0.3 0-0.6 0-0.3 0-0.6 0-0.3 0.1-0.6v-0.6-0.7q0.1-0.6 0.1-1.3 0.1-0.6 0.1-1.3l0.1-1.4c0-0.4 0-0.9 0.1-1.3q0.1-1.3 0.2-2.6v-1.4-1.4l0.1-2.5q0-1.3 0.1-2.6c0-0.5 0-0.9 0-1.4q0-0.7 0-1.4c0.1-0.5 0.5-0.9 1-0.9zm19.3-70.4q0 0 0.1-0.1 0.1 0 0.2-0.1 0.1 0 0.2 0 0.1 0 0.1 0 0.1 0 0.2 0.1 0 0 0.1 0 0 0 0.1 0.1 0.1 0 0.2 0.2 0.1 0.1 0.2 0.3 0 0.2 0 0.4 0 0.1-0.1 0.3c-0.1 0.2-0.3 0.5-0.5 0.6-0.4 0.2-0.8 0.2-1.2 0.2h-1.6q-1.1-0.1-2.2 0c-0.4 0-0.8 0.1-1.2 0.1h-1.1c-0.9 0-1.7 0-2.6 0.1q-0.3 0.1-0.8 0.1-0.4 0.1-0.8 0.2c-0.4 0.1-0.8 0.1-1.2 0.1q-0.2 0-0.4 0-0.1 0-0.3 0.1-0.2 0-0.4 0-0.2 0-0.4 0.1h-0.6c-0.6 0.1-1.2 0.3-1.8 0.4q-0.4 0.1-0.9 0.2-0.4 0.1-0.9 0.3l-0.2 0.1-0.5 0.2c-0.3 0.1-0.5 0.2-0.7 0.1q-0.2-0.1-0.3-0.2-0.2-0.1-0.3-0.2-0.1-0.2-0.1-0.4 0-0.1 0-0.3c0.1-0.2 0.3-0.5 0.5-0.6l0.8-0.3q0.4-0.2 0.7-0.3 0.4-0.1 0.7-0.2c0.4-0.1 0.8-0.2 1.2-0.3l0.7-0.1 0.6-0.1q0.4-0.1 0.8-0.1l0.5-0.1q0.5 0 1-0.1 0.5 0 1 0l0.7-0.2q0.5-0.1 1-0.1c0.9-0.2 1.9-0.2 2.8-0.2h1.2c0.4 0 0.7 0 1.1-0.1 0.8 0 1.5 0 2.3 0h1.9q0.1-0.1 0.2-0.2zm34.9-0.9h0.9q0.1 0 0.1 0 0.1 0 0.2 0 0 0 0.1 0 0 0 0.1 0 1.2 0.1 2.3 0.1h0.6 0.8q0.8 0.1 1.6 0.2c0.4 0.1 0.8 0.1 1.2 0.1 0.4 0 0.9-0.1 1.3 0l0.9 0.1q0.3 0 0.6 0.1 0.6 0.1 1.1 0.2l0.6 0.1 0.5 0.1c0.3 0 0.7 0 1 0.1q0.4 0.2 0.9 0.3l0.5 0.1q0 0 0.1 0.1 0.1 0 0.1 0 0.1 0 0.2 0 0 0.1 0.1 0.1 0.3 0.1 0.6 0.2l0.2 0.1 0.6 0.3c0.2 0.1 0.4 0.3 0.6 0.4 0.5 0.2 0.6 0.8 0.3 1.2-0.2 0.4-0.7 0.5-1.2 0.3q-0.2-0.1-0.4-0.2l-0.3-0.2-0.5-0.2-0.3-0.1q-0.7-0.3-1.3-0.4l-0.7-0.2q-0.3-0.1-0.7-0.1l-0.6-0.1q-0.4-0.1-0.9-0.2l-0.6-0.1q-0.6-0.1-1.2-0.2-0.4-0.1-0.8 0c-0.3 0-0.6 0-0.9 0-0.7 0-1.4-0.1-2-0.2q-0.7-0.1-1.4-0.1-1.3 0-2.5-0.1-0.3 0-0.6 0-0.4 0-0.7 0-0.3 0-0.6 0-0.4 0-0.7 0-0.7 0.1-1.3 0.1-0.7 0-1.3-0.1-0.7 0-1.2 0-0.7 0.1-1.3 0.1c-0.3 0.1-0.5-0.1-0.7-0.2q-0.1-0.1-0.2-0.3-0.1-0.2-0.1-0.4 0-0.1 0.1-0.3 0.1-0.2 0.2-0.3 0.1-0.1 0.1-0.1 0.1-0.1 0.2-0.1 0.1 0 0.2 0 0.1-0.1 0.2-0.1c0.6 0 1.3-0.1 2-0.1l1.3 0.1q0.7 0 1.3 0 0.7-0.1 1.4-0.1zm-56.2 95.6z"/>
	<path id="Layer" fill-rule="evenodd" class="s0" d="m73 5.5q0.1 0 0.2 0 0 0 0.1 0 0 0 0.1 0 0.1 0 0.2 0 0.1 0 0.2 0.1 0.1 0 0.2 0.1 0.1 0.1 0.2 0.2 0.1 0.1 0.1 0.3 0 0.1 0 0.3 0 0.1-0.1 0.3-0.1 0.1-0.2 0.2-0.3 0.3-0.7 0.6-0.5 0.4-0.9 0.7-0.4 0.3-0.9 0.6-0.6 0.3-1.2 0.5-0.5 0.2-0.9 0.4-0.4 0.1-0.8 0.1-0.3 0.1-0.7 0.2-0.3 0.1-0.7 0.2-0.3 0-0.7 0.1-0.5 0.1-1.1 0.2c-0.4 0.1-0.9-0.1-1.1-0.6-0.1-0.5 0.2-1 0.7-1.1l0.7-0.2 0.6-0.1c0.4-0.1 0.8-0.1 1.2-0.2q0.6-0.2 1.1-0.3 0.3-0.1 0.6-0.2 0.3-0.1 0.6-0.2 0.3-0.1 0.5-0.2 0.3-0.2 0.5-0.3 0.5-0.3 0.8-0.6l0.4-0.3 0.5-0.3 0.5-0.4q0-0.1 0-0.1z"/>
	<g id="Clip-Path" clip-path="url(#cp2)">
		<g id="Layer">
			<path id="Layer" fill-rule="evenodd" class="s0" d="m91.3 5q0.1 0 0.2 0 0.1 0 0.2 0 0.1 0.1 0.1 0.1 0.1 0.1 0.2 0.1 0 0.1 0.1 0.2 0.1 0 0.1 0.1 0 0.1 0.1 0.2l0.1 0.5q0 0 0.1 0.1 0 0 0 0.1 0.1 0 0.1 0.1 0 0 0 0.1l0.3 0.2q0.5 0.4 1.1 0.7c0.4 0.2 0.5 0.8 0.3 1.2-0.3 0.4-0.8 0.6-1.3 0.3-0.6-0.3-1.3-0.7-1.7-1.2q-0.1-0.1-0.2-0.3-0.1-0.1-0.1-0.2-0.1-0.2-0.2-0.3 0-0.1-0.1-0.3c-0.1-0.2-0.1-0.4-0.2-0.6q0-0.1 0-0.3 0-0.2 0.1-0.3 0.1-0.2 0.2-0.3 0.2-0.1 0.4-0.2 0 0 0.1 0z"/>
		</g>
	</g>
	<path id="Layer" fill-rule="evenodd" class="s0" d="m83.1 47.3q0.2 0 0.3 0 0.1 0.1 0.2 0.1 0.1 0.1 0.2 0.2 0.1 0 0.1 0.1 0.1 0.1 0.1 0.2 0 0.1 0 0.2 0 0.1 0 0.2 0 0 0 0.1l-0.1 0.7c-0.1 0.4 0 0.8 0 1.2l0.2 1c0.1 0.2 0.1 0.5 0.2 0.7l0.5 1.9q0 0.2 0 0.4 0 0.1-0.1 0.3-0.1 0.1-0.2 0.3-0.2 0.1-0.4 0.1c-0.4 0.1-0.9-0.1-1.1-0.6l-0.3-1.5c-0.1-0.4-0.3-0.8-0.3-1.2q-0.2-0.8-0.3-1.5c0-0.4-0.1-0.7 0-1.1q0-0.6 0.2-1.1c0-0.5 0.4-0.7 0.8-0.7zm24-2.1q-0.2 0-0.4 0.1-0.1 0.1-0.2 0.3-0.1 0.1-0.1 0.3 0 0.2 0 0.4v0.3q0 0.1 0 0.3 0 0.1 0 0.3 0 0.1 0 0.3 0 0.1-0.1 0.2 0 0.4-0.1 0.8-0.1 0.4-0.2 0.8-0.1 0.3-0.2 0.7-0.1 0.4-0.2 0.8-0.1 0.1-0.2 0.2-0.1 0.2-0.1 0.3-0.1 0.2-0.2 0.3-0.1 0.1-0.2 0.3l-0.3 0.3q-0.3 0.2-0.6 0.3l-0.9 0.4q-0.1 0-0.2 0-0.1 0.1-0.1 0.1-0.1 0.1-0.2 0.1 0 0.1-0.1 0.2-0.1 0.1-0.1 0.3 0 0.2 0 0.4 0.1 0.1 0.2 0.3 0.1 0.1 0.2 0.2c0.2 0.1 0.5 0.2 0.7 0.1 0.5-0.1 0.9-0.3 1.4-0.5q0.3-0.1 0.5-0.3 0.4-0.2 0.7-0.6c0.3-0.3 0.6-0.7 0.8-1.1q0.3-0.6 0.5-1.2c0.2-0.4 0.2-0.8 0.4-1.2q0.1-0.5 0.2-1.1 0.1-0.2 0.1-0.4 0-0.3 0.1-0.5 0-0.2 0-0.5 0-0.2 0-0.5c0-0.3 0.1-0.6 0-0.9q-0.1-0.2-0.2-0.3-0.1-0.2-0.3-0.2-0.1-0.1-0.3-0.2-0.2 0-0.3 0.1zm-32.5 6.4q-0.1 0-0.1 0.1-0.1 0-0.1 0.1-0.1 0.1-0.1 0.1-0.1 0.1-0.1 0.2v0.2q0 0.3 0.1 0.5 0.2 0.6 0.6 1.1c0.3 0.5 0.6 0.8 1.1 1.1q0.2 0.2 0.4 0.4 0.3 0.1 0.5 0.3 0.3 0.1 0.6 0.2 0.3 0.2 0.5 0.3 0.6 0.2 1.1 0.4 0.3 0.1 0.7 0.2l0.8 0.1q0.6 0 1.3 0 0.5 0 1.1 0.1 0.1 0 0.2 0 0.3 0 0.5-0.1 0.1-0.1 0.2-0.2 0.1-0.2 0.2-0.3 0-0.2 0-0.4 0-0.2-0.1-0.3c-0.1-0.2-0.3-0.4-0.6-0.4q-0.2-0.1-0.4-0.1-0.2 0-0.4-0.1-0.2 0-0.4 0-0.3 0-0.5 0-0.7 0-1.4-0.1-0.4-0.1-0.8-0.2-0.4-0.1-0.8-0.3h0.1l-0.3-0.1q-0.2-0.1-0.4-0.2-0.2-0.1-0.4-0.2-0.2-0.1-0.4-0.3-0.2-0.1-0.4-0.2-0.1-0.1-0.1-0.1-0.1-0.1-0.1-0.1-0.1 0-0.1-0.1-0.1 0-0.1-0.1-0.4-0.6-0.7-1.2 0-0.2-0.2-0.3-0.1-0.1-0.3-0.1-0.2-0.1-0.3-0.1-0.2 0.1-0.4 0.2zm-13.7 20.4c-0.2 0.4-0.1 1 0.4 1.2 0.5 0.3 1 0.6 1.6 0.8q0.1 0.1 0.3 0 0.2 0 0.3-0.1 0.2-0.1 0.3-0.2 0.1-0.1 0.2-0.3 0-0.2 0-0.4 0-0.1-0.1-0.3-0.1-0.2-0.2-0.3-0.2-0.1-0.4-0.1 0 0 0 0 0-0.1-0.1-0.1 0 0 0 0 0 0-0.1 0-0.5-0.2-0.9-0.5-0.1-0.1-0.1-0.1-0.1 0-0.2 0 0-0.1-0.1-0.1 0 0-0.1 0-0.1 0-0.2 0.1-0.1 0-0.2 0-0.1 0.1-0.2 0.2-0.1 0.1-0.2 0.2zm2.3-1.5c0 0.5 0.4 0.9 0.9 0.9 0.5 0 0.9-0.4 0.9-0.9 0-0.5-0.4-0.9-0.9-0.9-0.5 0-0.9 0.4-0.9 0.9zm7.4 13q0 0.1 0 0.2 0 0.1 0 0.2 0 0.1 0 0.1 0.1 0.1 0.1 0.2 0.2 0.3 0.5 0.4l1.1 0.4q0.4 0.1 0.8 0.3l0.5 0.2q0.6 0.2 1.2 0.4 0.7 0.2 1.3 0.3 0.6 0.1 1.1 0.2c0.5 0.1 0.9 0.1 1.3 0.2q0.7 0.1 1.3 0.1h0.6q0.4 0.1 0.8 0.1c0.2 0 0.5-0.1 0.7-0.2q0.1-0.2 0.2-0.3 0-0.2 0-0.4 0-0.2 0-0.3-0.1-0.2-0.2-0.3l-0.2-0.2q-0.1 0-0.1 0-0.1 0-0.1-0.1-0.1 0-0.2 0 0 0-0.1 0c-0.8-0.1-1.6-0.1-2.3-0.2l0.2 0.1-0.9-0.2q-0.5-0.1-0.9-0.1l-1-0.2h0.1q-0.2 0-0.5 0-0.2-0.1-0.4-0.2-0.3 0-0.5-0.1-0.2-0.1-0.4-0.2l-0.2-0.1q-0.7-0.3-1.4-0.5-0.6-0.2-1.3-0.4 0 0 0 0-0.1-0.1-0.1-0.1 0 0-0.1 0 0 0 0 0c-0.4 0-0.8 0.3-0.9 0.7zm13.4-33v0.1zm-5.5 36.1h0.1z"/>
	<path id="Layer" fill-rule="evenodd" class="s0" d="m79 86c0.1-0.4 0.5-0.6 0.9-0.6q0 0 0 0 0.1 0 0.1 0 0 0 0.1 0 0 0 0 0 0.2 0 0.3 0.2 0.2 0.1 0.3 0.2 0 0.2 0.1 0.4 0 0.1-0.1 0.3-0.1 0.7-0.2 1.3-0.1 1.1-0.2 2.1 0 1.2 0 2.3v10.2 0.3q0.1 0.1 0.1 0.2 0 0.2 0 0.3-0.1 0.1-0.1 0.2-0.1 0.2-0.2 0.3c-0.1 0.1-0.4 0.2-0.6 0.2h-0.3q0 0-0.1-0.1-0.1 0-0.1 0-0.1 0-0.1-0.1 0 0-0.1 0-0.3-0.3-0.3-0.7v-11.1c0-1 0-1.9 0.1-2.8q0-0.4 0-0.8 0.1-0.4 0.1-0.8 0.1-0.3 0.1-0.7 0.1-0.4 0.2-0.8zm5.7 13.1c0 0.5 0.4 0.9 0.9 0.9 0.5 0 0.9-0.4 0.9-0.9 0-0.5-0.4-0.9-0.9-0.9-0.5 0-0.9 0.4-0.9 0.9zm-0.9-8.4c0 0.5 0.4 0.9 0.9 0.9 0.5 0 0.9-0.4 0.9-0.9 0-0.5-0.4-0.9-0.9-0.9-0.5 0-0.9 0.4-0.9 0.9zm7.8-82.3c-0.4 0.1-0.7 0.3-1.1 0.5q-0.6 0.2-1.2 0.3-0.3 0.1-0.6 0.2l-0.5 0.1q-0.4 0-0.9 0.1c-0.4 0-0.8 0-1.2 0q-0.3 0-0.6 0-0.3 0-0.6 0-0.3-0.1-0.6-0.1-0.3 0-0.6-0.1c-0.4 0-0.8 0-1.2-0.1q-0.7 0-1.4-0.1h-1.1q-1.1 0-2.1-0.1-0.2 0-0.4-0.1-0.2 0-0.4-0.1-0.2 0-0.4 0-0.2 0-0.4-0.1l-0.8-0.1h-0.8l-0.6-0.1q-0.3-0.1-0.6-0.1l-1.5-0.1q-0.3 0-0.5 0.2-0.3 0.1-0.4 0.4-0.1 0.2 0 0.5 0 0.3 0.2 0.5c0.2 0.1 0.4 0.2 0.7 0.2q0.5 0.1 1.1 0.1 0.5 0 1 0.1 0.6 0.1 1.3 0.1l0.9 0.1q0.6 0.2 1.2 0.3 0.7 0.1 1.4 0.1h1.2 0.3q0.5 0 1 0.1 0.7 0 1.4 0.1h0.7l0.6 0.1c0.9 0.1 1.8 0.1 2.7 0.1q0.5 0 1-0.1 0.5 0 0.9-0.1l0.5-0.1 0.5-0.1q0.5-0.1 0.9-0.3 0.6-0.1 1.1-0.4l0.4-0.1q0.2-0.1 0.3-0.2 0.1-0.1 0.2-0.3 0.1-0.1 0.1-0.3 0.1-0.2 0-0.3 0-0.2-0.1-0.3-0.1-0.2-0.3-0.3-0.2-0.1-0.3-0.1-0.2 0-0.4 0z"/>
	<path id="Layer" fill-rule="evenodd" class="s0" d="m84.3 10.1q0.1 0 0.1-0.1 0.1 0 0.1 0 0.1 0 0.2 0 0.1 0 0.2 0 0.1 0.1 0.2 0.1 0.1 0.1 0.2 0.2 0.1 0.1 0.1 0.2 0.1 0 0.1 0.1 0 0.1 0 0.2 0.1 0.1 0 0.2 0 0.1 0 0.1-0.1 0.7-0.2 1.3c0 0.4-0.1 0.7-0.1 1l-0.1 0.9-0.1 0.8q-0.1 0.3-0.1 0.7-0.1 0.4-0.1 0.8 0 0.5-0.1 1c-0.1 0.5-0.1 1-0.1 1.5q0 0 0 0.1 0 0.1-0.1 0.1 0 0.1 0 0.1 0 0.1 0 0.1l-0.2 0.2q-0.1 0.1-0.3 0.2-0.1 0.1-0.3 0.1-0.2 0-0.4-0.1-0.1-0.1-0.3-0.2c-0.1-0.1-0.3-0.4-0.2-0.6q0-0.5 0-1.1 0.1-0.5 0.2-0.9c0-0.4 0-0.8 0-1.2q0.1-0.4 0.1-0.7l0.1-0.4 0.1-0.9 0.1-0.6 0.1-0.5v-0.7q0.1-0.7 0.3-1.4 0-0.1 0-0.2 0.1-0.1 0.1-0.1 0.1-0.1 0.2-0.2 0 0 0.1-0.1 0.1 0 0.1 0zm4.1 4.3c0.5 0 0.9 0.4 0.9 0.9 0 0.5-0.4 0.9-0.9 0.9-0.5 0-0.9-0.4-0.9-0.9 0-0.5 0.4-0.9 0.9-0.9zm-11.1 55.1c0.5 0 0.9 0.4 0.9 0.9 0 0.5-0.4 1-0.9 1-0.5 0-0.9-0.5-0.9-1 0-0.5 0.4-0.9 0.9-0.9z"/>
	<path id="Layer" fill-rule="evenodd" class="s0" d="m77.3 67.8q0.1 0 0.1 0 0.1-0.1 0.2-0.1 0.1 0 0.2 0c0.5 0 0.9 0.4 0.9 0.9q-0.1 1-0.1 1.9-0.1 0.9-0.1 1.7-0.1 1-0.2 2-0.2 0.9-0.3 1.8-0.1 0.8-0.3 1.6-0.1 0.8-0.2 1.6l-0.2 0.8-0.1 0.7c-0.1 0.4-0.2 0.8-0.3 1.3l-0.1 0.4-0.1 0.4q0 0.4-0.1 0.8-0.2 0.4-0.4 0.8l-0.2 0.4q0.3 0 0.6 0c0.3 0 0.5 0 0.8 0q0.1 0 0.3 0 0.1 0 0.2 0 0.2 0 0.3 0 0.1 0.1 0.2 0.1l0.7 0.2q0.1 0 0.2 0 0 0 0.1 0 0.1 0 0.1 0 0.1 0 0.2 0c0.5 0 0.9 0.4 0.9 0.9 0 0.5-0.4 0.9-0.9 0.9-0.5 0-0.9 0-1.3-0.2q-0.4 0-0.7-0.1-0.3 0-0.6 0h-0.5q-0.7 0.1-1.3-0.1c-0.2 0-0.3 0-0.5-0.1-0.3 0-0.6-0.2-0.8-0.5q-0.1-0.2-0.1-0.5 0 0 0-0.1 0 0 0-0.1 0 0 0 0 0-0.1 0-0.1 0.1-0.1 0.1-0.2 0-0.1 0.1-0.1 0-0.1 0-0.2 0.1 0 0.1-0.1l0.5-1q0.1-0.3 0.2-0.7 0.1-0.5 0.2-0.9l0.1-0.6q0.1-0.4 0.2-0.7 0.1-0.7 0.3-1.4 0.2-1.6 0.4-3.1c0.2-0.9 0.3-1.8 0.5-2.7 0-0.7 0.1-1.5 0.1-2.3q0.1-1.3 0.2-2.5 0-0.1 0-0.2 0-0.1 0.1-0.2 0 0 0-0.1 0.1-0.1 0.2-0.1 0-0.1 0.1-0.2z"/>
</svg>